{"glyphs":{"0":{"ha":910,"x_min":35,"x_max":875,"o":"m 454 -17 q 237 48 332 -17 q 88 226 142 113 q 35 486 35 339 q 88 747 35 633 q 235 924 142 860 q 451 989 329 989 q 672 924 576 989 q 821 747 767 860 q 875 486 875 633 q 821 226 875 339 q 672 48 767 113 q 454 -17 578 -17 m 454 217 q 542 251 504 217 q 603 347 581 286 q 625 486 625 407 q 603 628 625 567 q 542 724 581 689 q 451 758 503 758 q 365 724 403 758 q 306 628 328 689 q 285 486 285 567 q 306 347 285 407 q 367 251 328 286 q 454 217 406 217 z "},"1":{"ha":597,"x_min":49,"x_max":486,"o":"m 243 0 l 243 656 q 150 619 199 631 q 49 613 101 607 l 49 846 q 128 861 89 842 q 206 912 168 881 q 272 972 243 943 l 486 972 l 486 0 l 243 0 z "},"2":{"ha":829,"x_min":28,"x_max":788,"o":"m 63 0 l 63 181 q 93 267 63 217 q 177 372 124 318 q 297 468 231 425 l 394 531 q 447 569 419 547 q 494 617 475 590 q 514 669 514 643 q 502 714 514 694 q 466 744 490 733 q 401 754 442 754 q 351 742 374 754 q 315 708 329 729 q 293 663 300 688 l 28 706 q 88 846 40 781 q 216 951 136 911 q 401 990 296 990 q 603 950 519 990 q 733 838 688 910 q 778 672 778 767 q 720 497 778 568 q 572 367 663 425 l 493 315 q 439 276 467 299 q 386 225 411 254 l 788 225 l 788 0 l 63 0 z "},"3":{"ha":788,"x_min":28,"x_max":746,"o":"m 406 -17 q 226 13 307 -17 q 92 103 144 43 q 28 251 40 163 l 275 301 q 291 263 281 286 q 324 222 301 239 q 389 204 347 204 q 462 228 436 204 q 488 294 488 253 q 479 337 488 315 q 441 372 471 358 q 347 386 411 386 l 261 386 l 261 593 l 347 593 q 450 618 425 593 q 475 686 475 643 q 464 729 475 711 q 433 758 453 747 q 389 768 414 768 q 348 760 371 768 q 306 732 325 753 q 281 668 288 711 l 35 718 q 102 869 47 808 q 235 959 157 929 q 394 989 314 989 q 565 955 489 989 q 687 859 642 921 q 732 714 732 797 q 688 581 732 635 q 576 494 644 526 q 699 395 653 456 q 746 258 746 335 q 697 108 746 169 q 569 15 647 46 q 406 -17 492 -17 z "},"4":{"ha":896,"x_min":14,"x_max":854,"o":"m 469 0 l 469 150 l 14 150 l 14 357 l 433 972 l 711 972 l 711 368 l 854 368 l 854 150 l 711 150 l 711 0 l 469 0 m 267 368 l 469 368 l 469 665 l 267 368 z "},"5":{"ha":815,"x_min":42,"x_max":774,"o":"m 411 -17 q 257 10 335 -17 q 120 89 179 38 q 42 213 61 140 l 290 263 q 331 219 301 233 q 393 206 360 206 q 474 235 443 206 q 506 317 506 265 q 475 394 506 361 q 392 428 444 428 q 333 411 357 428 q 299 374 310 394 l 68 424 l 138 972 l 715 972 l 715 739 l 353 739 l 325 575 q 406 606 361 594 q 507 617 451 618 q 639 578 578 615 q 737 478 700 542 q 774 332 774 415 q 727 150 774 229 q 599 27 681 71 q 411 -17 518 -17 z "},"6":{"ha":824,"x_min":42,"x_max":782,"o":"m 415 -17 q 249 17 319 -17 q 133 110 179 50 q 65 249 88 169 q 42 424 42 329 q 63 624 42 524 q 131 806 83 724 q 259 939 178 889 q 461 989 340 989 q 617 967 543 989 q 751 903 692 944 l 631 714 q 540 753 588 742 q 458 765 493 765 q 332 693 382 765 q 282 454 282 621 l 231 481 q 323 592 263 550 q 468 635 383 635 q 631 589 560 635 q 742 467 701 543 q 782 297 782 390 q 738 137 782 208 q 611 24 693 65 q 415 -17 529 -17 m 417 197 q 472 213 447 197 q 512 253 497 228 q 526 311 526 279 q 512 372 526 344 q 472 415 497 399 q 417 431 447 431 q 360 415 386 431 q 319 372 335 399 q 304 311 304 344 q 319 253 304 279 q 360 213 335 228 q 417 197 386 197 z "},"7":{"ha":796,"x_min":35,"x_max":754,"o":"m 144 0 l 468 736 l 35 736 l 35 972 l 754 972 l 754 792 l 429 0 l 144 0 z "},"8":{"ha":847,"x_min":42,"x_max":806,"o":"m 422 -17 q 210 17 294 -17 q 83 112 125 51 q 42 253 42 172 q 82 407 42 340 q 206 511 122 474 q 103 599 138 544 q 69 725 69 654 q 110 863 69 803 q 228 956 150 922 q 422 989 307 989 q 617 956 538 989 q 737 863 696 922 q 778 725 778 803 q 743 599 778 654 q 640 511 708 544 q 764 408 722 475 q 806 253 806 340 q 763 112 806 172 q 636 17 721 51 q 422 -17 551 -17 m 422 194 q 508 222 475 194 q 542 290 542 249 q 508 372 542 340 q 422 403 475 403 q 363 389 389 403 q 321 349 336 375 q 306 290 306 324 q 321 241 306 263 q 363 207 336 219 q 422 194 389 194 m 422 593 q 498 622 468 593 q 528 693 528 650 q 498 761 528 735 q 422 788 468 788 q 348 761 376 788 q 319 693 319 735 q 348 622 319 650 q 422 593 376 593 z "},"9":{"ha":824,"x_min":42,"x_max":782,"o":"m 408 988 q 574 954 504 988 q 690 861 644 921 q 759 722 736 801 q 782 547 782 642 q 761 347 782 447 q 693 165 740 247 q 565 32 646 82 q 363 -18 483 -18 q 208 4 282 -18 q 72 68 133 26 l 193 257 q 283 217 236 229 q 365 206 331 206 q 492 278 442 206 q 542 517 542 350 l 593 490 q 501 379 561 422 q 356 336 440 336 q 193 382 264 336 q 82 504 122 428 q 42 674 42 581 q 86 835 42 764 q 213 947 131 906 q 408 988 296 988 m 407 774 q 351 758 376 774 q 312 717 326 743 q 297 660 297 692 q 312 600 297 628 q 351 556 326 572 q 407 540 376 540 q 464 556 439 540 q 504 600 489 572 q 519 660 519 628 q 504 717 519 692 q 464 758 489 743 q 407 774 439 774 z "},"A":{"ha":1040,"x_min":10,"x_max":1031,"o":"m 10 0 l 382 972 l 658 972 l 1031 0 l 758 0 l 701 156 l 339 156 l 282 0 l 10 0 m 422 382 l 618 382 l 521 651 l 422 382 z "},"Á":{"ha":1040,"x_min":10,"x_max":1031,"o":"m 10 0 l 382 972 l 658 972 l 1031 0 l 758 0 l 701 156 l 339 156 l 282 0 l 10 0 m 422 382 l 618 382 l 521 651 l 422 382 m 383 1043 l 536 1236 l 800 1236 l 619 1043 l 383 1043 z "},"Ă":{"ha":1040,"x_min":10,"x_max":1031,"o":"m 10 0 l 382 972 l 658 972 l 1031 0 l 758 0 l 701 156 l 339 156 l 282 0 l 10 0 m 422 382 l 618 382 l 521 651 l 422 382 m 522 1031 q 376 1058 440 1031 q 276 1136 313 1086 q 240 1250 240 1186 l 468 1250 q 483 1211 468 1226 q 522 1196 499 1196 q 560 1211 546 1196 q 575 1250 575 1226 l 803 1250 q 767 1136 803 1186 q 667 1058 731 1086 q 522 1031 604 1031 z "},"Ǎ":{"ha":1040,"x_min":10,"x_max":1031,"o":"m 10 0 l 382 972 l 658 972 l 1031 0 l 758 0 l 701 156 l 339 156 l 282 0 l 10 0 m 422 382 l 618 382 l 521 651 l 422 382 m 410 1047 l 410 1054 l 600 1250 l 808 1250 l 632 1047 l 410 1047 m 394 1047 l 218 1250 l 426 1250 l 617 1054 l 617 1047 l 394 1047 z "},"Â":{"ha":1040,"x_min":10,"x_max":1031,"o":"m 10 0 l 382 972 l 658 972 l 1031 0 l 758 0 l 701 156 l 339 156 l 282 0 l 10 0 m 422 382 l 618 382 l 521 651 l 422 382 m 600 1063 l 396 1249 l 396 1267 l 632 1267 l 808 1063 l 600 1063 m 218 1063 l 394 1267 l 631 1267 l 631 1249 l 426 1063 l 218 1063 z "},"Ä":{"ha":1040,"x_min":10,"x_max":1031,"o":"m 10 0 l 382 972 l 658 972 l 1031 0 l 758 0 l 701 156 l 339 156 l 282 0 l 10 0 m 422 382 l 618 382 l 521 651 l 422 382 m 708 1068 q 623 1105 660 1068 q 586 1190 586 1142 q 623 1276 586 1239 q 708 1313 660 1313 q 794 1276 757 1313 q 831 1190 831 1239 q 794 1105 831 1142 q 708 1068 757 1068 m 333 1068 q 247 1104 283 1068 q 211 1190 211 1140 q 247 1276 211 1240 q 333 1313 283 1313 q 419 1276 383 1313 q 456 1190 456 1240 q 419 1104 456 1140 q 333 1068 383 1068 z "},"À":{"ha":1040,"x_min":10,"x_max":1031,"o":"m 10 0 l 382 972 l 658 972 l 1031 0 l 758 0 l 701 156 l 339 156 l 282 0 l 10 0 m 422 382 l 618 382 l 521 651 l 422 382 m 440 1047 l 257 1251 l 521 1251 l 676 1047 l 440 1047 z "},"Ā":{"ha":1040,"x_min":10,"x_max":1031,"o":"m 10 0 l 382 972 l 658 972 l 1031 0 l 758 0 l 701 156 l 339 156 l 282 0 l 10 0 m 422 382 l 618 382 l 521 651 l 422 382 m 285 1040 l 285 1250 l 757 1250 l 757 1040 l 285 1040 z "},"Ą":{"ha":1040,"x_min":10,"x_max":1085,"o":"m 10 0 l 382 972 l 658 972 l 1031 0 l 758 0 l 701 156 l 339 156 l 282 0 l 10 0 m 422 382 l 618 382 l 521 651 l 422 382 m 976 -294 q 869 -275 918 -294 q 790 -217 819 -256 q 760 -122 760 -179 q 783 -49 760 -82 q 839 0 807 -17 l 1031 0 q 973 -52 993 -24 q 953 -104 953 -81 q 960 -124 953 -115 q 978 -132 967 -132 q 997 -129 989 -132 q 1013 -122 1006 -126 l 1085 -272 q 1038 -290 1064 -285 q 976 -294 1011 -294 z "},"Å":{"ha":1040,"x_min":10,"x_max":1031,"o":"m 10 0 l 382 972 l 658 972 l 1031 0 l 758 0 l 701 156 l 339 156 l 282 0 l 10 0 m 422 382 l 618 382 l 521 651 l 422 382 m 521 1000 q 426 1024 469 1000 q 356 1089 382 1049 q 329 1179 329 1129 q 356 1271 329 1231 q 426 1335 382 1311 q 521 1360 469 1360 q 615 1335 572 1360 q 685 1271 658 1311 q 711 1179 711 1231 q 685 1089 711 1129 q 615 1024 658 1049 q 521 1000 572 1000 m 521 1133 q 565 1179 565 1133 q 521 1226 565 1226 q 475 1179 475 1226 q 521 1133 475 1133 z "},"Ã":{"ha":1040,"x_min":10,"x_max":1031,"o":"m 10 0 l 382 972 l 658 972 l 1031 0 l 758 0 l 701 156 l 339 156 l 282 0 l 10 0 m 422 382 l 618 382 l 521 651 l 422 382 m 633 1019 q 552 1035 581 1019 q 508 1069 524 1050 q 479 1104 493 1089 q 442 1119 465 1119 q 419 1110 432 1119 q 399 1065 407 1101 l 244 1065 q 276 1183 253 1139 q 338 1247 299 1228 q 433 1267 378 1267 q 522 1251 490 1267 q 569 1217 553 1236 q 599 1182 586 1197 q 632 1167 611 1167 q 658 1183 651 1167 q 668 1221 665 1199 l 822 1221 q 766 1072 810 1124 q 633 1019 722 1019 z "},"Æ":{"ha":1435,"x_min":10,"x_max":1365,"o":"m 10 0 l 521 972 l 1356 972 l 1356 736 l 968 736 l 968 601 l 1281 601 l 1281 372 l 968 372 l 968 236 l 1365 236 l 1365 0 l 704 0 l 704 156 l 379 156 l 301 0 l 10 0 m 493 382 l 704 382 l 704 736 l 669 736 l 493 382 z "},"B":{"ha":853,"x_min":83,"x_max":818,"o":"m 83 0 l 83 972 l 433 972 q 613 942 535 972 q 735 847 690 911 q 779 685 779 783 q 754 597 779 640 q 685 518 729 554 q 783 427 749 483 q 818 289 818 371 q 775 131 818 196 q 656 33 732 67 q 482 0 581 0 l 83 0 m 333 226 l 451 226 q 524 251 497 226 q 551 315 551 276 q 524 377 551 354 q 451 400 497 400 l 333 400 l 333 226 m 333 604 l 415 604 q 488 626 460 604 q 515 689 515 649 q 488 751 515 729 q 415 774 460 774 l 333 774 l 333 604 z "},"C":{"ha":1013,"x_min":35,"x_max":992,"o":"m 532 -17 q 274 48 386 -17 q 99 226 163 113 q 35 486 35 339 q 99 747 35 633 q 274 924 163 860 q 532 989 386 989 q 735 950 644 989 q 890 842 825 911 q 990 681 956 772 l 746 603 q 696 683 726 649 q 624 735 665 717 q 532 753 583 753 q 411 719 464 753 q 328 625 358 685 q 299 486 299 565 q 329 348 299 408 q 413 253 360 288 q 536 219 467 219 q 630 238 590 219 q 698 291 669 257 q 747 371 726 325 l 992 293 q 893 131 958 201 q 736 22 828 61 q 532 -17 644 -17 z "},"Ć":{"ha":1013,"x_min":35,"x_max":992,"o":"m 532 -17 q 274 48 386 -17 q 99 226 163 113 q 35 486 35 339 q 99 747 35 633 q 274 924 163 860 q 532 989 386 989 q 735 950 644 989 q 890 842 825 911 q 990 681 956 772 l 746 603 q 696 683 726 649 q 624 735 665 717 q 532 753 583 753 q 411 719 464 753 q 328 625 358 685 q 299 486 299 565 q 329 348 299 408 q 413 253 360 288 q 536 219 467 219 q 630 238 590 219 q 698 291 669 257 q 747 371 726 325 l 992 293 q 893 131 958 201 q 736 22 828 61 q 532 -17 644 -17 m 394 1047 l 547 1250 l 811 1250 l 631 1047 l 394 1047 z "},"Č":{"ha":1013,"x_min":35,"x_max":992,"o":"m 532 -17 q 274 48 386 -17 q 99 226 163 113 q 35 486 35 339 q 99 747 35 633 q 274 924 163 860 q 532 989 386 989 q 735 950 644 989 q 890 842 825 911 q 990 681 956 772 l 746 603 q 696 683 726 649 q 624 735 665 717 q 532 753 583 753 q 411 719 464 753 q 328 625 358 685 q 299 486 299 565 q 329 348 299 408 q 413 253 360 288 q 536 219 467 219 q 630 238 590 219 q 698 291 669 257 q 747 371 726 325 l 992 293 q 893 131 958 201 q 736 22 828 61 q 532 -17 644 -17 m 421 1047 l 421 1054 l 611 1250 l 819 1250 l 643 1047 l 421 1047 m 406 1047 l 229 1250 l 438 1250 l 628 1054 l 628 1047 l 406 1047 z "},"Ç":{"ha":1013,"x_min":35,"x_max":992,"o":"m 532 -17 q 274 48 386 -17 q 99 226 163 113 q 35 486 35 339 q 99 747 35 633 q 274 924 163 860 q 532 989 386 989 q 735 950 644 989 q 890 842 825 911 q 990 681 956 772 l 746 603 q 696 683 726 649 q 624 735 665 717 q 532 753 583 753 q 411 719 464 753 q 328 625 358 685 q 299 486 299 565 q 329 348 299 408 q 413 253 360 288 q 536 219 467 219 q 630 238 590 219 q 698 291 669 257 q 747 371 726 325 l 992 293 q 893 131 958 201 q 736 22 828 61 q 532 -17 644 -17 m 457 -292 q 388 -280 424 -292 q 324 -249 353 -268 l 353 -143 q 390 -158 372 -153 q 418 -162 407 -162 q 456 -156 442 -162 q 469 -136 469 -149 q 449 -106 469 -117 q 393 -96 429 -96 l 435 8 l 569 8 l 549 -36 q 622 -82 596 -51 q 649 -150 649 -112 q 598 -254 649 -217 q 457 -292 547 -292 z "},"Ĉ":{"ha":1013,"x_min":35,"x_max":992,"o":"m 532 -17 q 274 48 386 -17 q 99 226 163 113 q 35 486 35 339 q 99 747 35 633 q 274 924 163 860 q 532 989 386 989 q 735 950 644 989 q 890 842 825 911 q 990 681 956 772 l 746 603 q 696 683 726 649 q 624 735 665 717 q 532 753 583 753 q 411 719 464 753 q 328 625 358 685 q 299 486 299 565 q 329 348 299 408 q 413 253 360 288 q 536 219 467 219 q 630 238 590 219 q 698 291 669 257 q 747 371 726 325 l 992 293 q 893 131 958 201 q 736 22 828 61 q 532 -17 644 -17 m 611 1063 l 407 1249 l 407 1267 l 643 1267 l 819 1063 l 611 1063 m 229 1063 l 406 1267 l 642 1267 l 642 1249 l 438 1063 l 229 1063 z "},"Ċ":{"ha":1013,"x_min":35,"x_max":992,"o":"m 532 -17 q 274 48 386 -17 q 99 226 163 113 q 35 486 35 339 q 99 747 35 633 q 274 924 163 860 q 532 989 386 989 q 735 950 644 989 q 890 842 825 911 q 990 681 956 772 l 746 603 q 696 683 726 649 q 624 735 665 717 q 532 753 583 753 q 411 719 464 753 q 328 625 358 685 q 299 486 299 565 q 329 348 299 408 q 413 253 360 288 q 536 219 467 219 q 630 238 590 219 q 698 291 669 257 q 747 371 726 325 l 992 293 q 893 131 958 201 q 736 22 828 61 q 532 -17 644 -17 m 532 1039 q 435 1081 476 1039 q 393 1178 393 1122 q 435 1276 393 1235 q 532 1317 476 1317 q 630 1276 589 1317 q 671 1178 671 1235 q 630 1081 671 1122 q 532 1039 589 1039 z "},"D":{"ha":988,"x_min":83,"x_max":953,"o":"m 83 0 l 83 972 l 408 972 q 691 910 568 972 q 883 738 814 847 q 953 486 953 629 q 883 235 953 344 q 691 63 814 125 q 408 0 568 0 l 83 0 m 340 243 l 408 243 q 521 261 469 243 q 610 311 572 279 q 668 388 647 343 q 689 486 689 432 q 668 585 689 540 q 610 661 647 629 q 521 711 572 693 q 408 729 469 729 l 340 729 l 340 243 z "},"Ď":{"ha":988,"x_min":83,"x_max":953,"o":"m 83 0 l 83 972 l 408 972 q 691 910 568 972 q 883 738 814 847 q 953 486 953 629 q 883 235 953 344 q 691 63 814 125 q 408 0 568 0 l 83 0 m 340 243 l 408 243 q 521 261 469 243 q 610 311 572 279 q 668 388 647 343 q 689 486 689 432 q 668 585 689 540 q 610 661 647 629 q 521 711 572 693 q 408 729 469 729 l 340 729 l 340 243 m 310 1047 l 310 1054 l 500 1250 l 708 1250 l 532 1047 l 310 1047 m 294 1047 l 118 1250 l 326 1250 l 517 1054 l 517 1047 l 294 1047 z "},"Đ":{"ha":1029,"x_min":56,"x_max":994,"o":"m 56 399 l 56 575 l 525 575 l 525 399 l 56 399 m 125 0 l 125 972 l 450 972 q 733 910 610 972 q 925 738 856 847 q 994 486 994 629 q 925 235 994 344 q 733 63 856 125 q 450 0 610 0 l 125 0 m 382 243 l 450 243 q 563 261 511 243 q 651 311 614 279 q 710 388 689 343 q 731 486 731 432 q 710 585 731 540 q 651 661 689 629 q 563 711 614 693 q 450 729 511 729 l 382 729 l 382 243 z "},"Ð":{"ha":1029,"x_min":56,"x_max":994,"o":"m 56 399 l 56 575 l 525 575 l 525 399 l 56 399 m 125 0 l 125 972 l 450 972 q 733 910 610 972 q 925 738 856 847 q 994 486 994 629 q 925 235 994 344 q 733 63 856 125 q 450 0 610 0 l 125 0 m 382 243 l 450 243 q 563 261 511 243 q 651 311 614 279 q 710 388 689 343 q 731 486 731 432 q 710 585 731 540 q 651 661 689 629 q 563 711 614 693 q 450 729 511 729 l 382 729 l 382 243 z "},"E":{"ha":814,"x_min":83,"x_max":744,"o":"m 83 0 l 83 972 l 735 972 l 735 736 l 340 736 l 340 601 l 660 601 l 660 372 l 340 372 l 340 236 l 744 236 l 744 0 l 83 0 z "},"É":{"ha":814,"x_min":83,"x_max":744,"o":"m 83 0 l 83 972 l 735 972 l 735 736 l 340 736 l 340 601 l 660 601 l 660 372 l 340 372 l 340 236 l 744 236 l 744 0 l 83 0 m 263 1043 l 415 1236 l 679 1236 l 499 1043 l 263 1043 z "},"Ě":{"ha":814,"x_min":83,"x_max":744,"o":"m 83 0 l 83 972 l 735 972 l 735 736 l 340 736 l 340 601 l 660 601 l 660 372 l 340 372 l 340 236 l 744 236 l 744 0 l 83 0 m 289 1047 l 289 1054 l 479 1250 l 688 1250 l 511 1047 l 289 1047 m 274 1047 l 97 1250 l 306 1250 l 496 1054 l 496 1047 l 274 1047 z "},"Ê":{"ha":814,"x_min":83,"x_max":744,"o":"m 83 0 l 83 972 l 735 972 l 735 736 l 340 736 l 340 601 l 660 601 l 660 372 l 340 372 l 340 236 l 744 236 l 744 0 l 83 0 m 479 1063 l 275 1249 l 275 1267 l 511 1267 l 688 1063 l 479 1063 m 97 1063 l 274 1267 l 510 1267 l 510 1249 l 306 1063 l 97 1063 z "},"Ë":{"ha":814,"x_min":83,"x_max":744,"o":"m 83 0 l 83 972 l 735 972 l 735 736 l 340 736 l 340 601 l 660 601 l 660 372 l 340 372 l 340 236 l 744 236 l 744 0 l 83 0 m 588 1068 q 502 1105 539 1068 q 465 1190 465 1142 q 502 1276 465 1239 q 588 1313 539 1313 q 673 1276 636 1313 q 710 1190 710 1239 q 673 1105 710 1142 q 588 1068 636 1068 m 213 1068 q 126 1104 163 1068 q 90 1190 90 1140 q 126 1276 90 1240 q 213 1313 163 1313 q 299 1276 263 1313 q 335 1190 335 1240 q 299 1104 335 1140 q 213 1068 263 1068 z "},"Ė":{"ha":814,"x_min":83,"x_max":744,"o":"m 83 0 l 83 972 l 735 972 l 735 736 l 340 736 l 340 601 l 660 601 l 660 372 l 340 372 l 340 236 l 744 236 l 744 0 l 83 0 m 400 1039 q 303 1081 344 1039 q 261 1178 261 1122 q 303 1276 261 1235 q 400 1317 344 1317 q 498 1276 457 1317 q 539 1178 539 1235 q 498 1081 539 1122 q 400 1039 457 1039 z "},"È":{"ha":814,"x_min":83,"x_max":744,"o":"m 83 0 l 83 972 l 735 972 l 735 736 l 340 736 l 340 601 l 660 601 l 660 372 l 340 372 l 340 236 l 744 236 l 744 0 l 83 0 m 319 1047 l 136 1251 l 400 1251 l 556 1047 l 319 1047 z "},"Ē":{"ha":814,"x_min":83,"x_max":744,"o":"m 83 0 l 83 972 l 735 972 l 735 736 l 340 736 l 340 601 l 660 601 l 660 372 l 340 372 l 340 236 l 744 236 l 744 0 l 83 0 m 164 1040 l 164 1250 l 636 1250 l 636 1040 l 164 1040 z "},"Ę":{"ha":814,"x_min":83,"x_max":799,"o":"m 83 0 l 83 972 l 735 972 l 735 736 l 340 736 l 340 601 l 660 601 l 660 372 l 340 372 l 340 236 l 744 236 l 744 0 l 83 0 m 690 -294 q 583 -275 632 -294 q 503 -217 533 -256 q 474 -122 474 -179 q 497 -49 474 -82 q 553 0 521 -17 l 744 0 q 687 -52 707 -24 q 667 -104 667 -81 q 674 -124 667 -115 q 692 -132 681 -132 q 711 -129 703 -132 q 726 -122 719 -126 l 799 -272 q 751 -290 778 -285 q 690 -294 725 -294 z "},"F":{"ha":783,"x_min":83,"x_max":749,"o":"m 83 0 l 83 972 l 749 972 l 749 736 l 340 736 l 340 594 l 660 594 l 660 358 l 340 358 l 340 0 l 83 0 z "},"G":{"ha":1010,"x_min":35,"x_max":989,"o":"m 546 -17 q 281 48 396 -17 q 100 226 165 113 q 35 486 35 339 q 100 747 35 633 q 281 924 165 860 q 546 989 396 989 q 720 961 644 989 q 851 885 796 933 q 946 775 907 838 l 732 649 q 683 703 713 679 q 617 740 653 726 q 546 753 582 753 q 418 719 474 753 q 331 625 363 685 q 299 486 299 565 q 329 347 299 408 q 417 251 360 286 q 553 217 475 217 q 643 233 603 217 q 709 280 683 250 q 742 350 735 310 l 528 350 l 528 544 l 989 544 l 989 401 q 926 168 985 261 q 770 29 868 75 q 546 -17 672 -17 z "},"Ğ":{"ha":1010,"x_min":35,"x_max":989,"o":"m 546 -17 q 281 48 396 -17 q 100 226 165 113 q 35 486 35 339 q 100 747 35 633 q 281 924 165 860 q 546 989 396 989 q 720 961 644 989 q 851 885 796 933 q 946 775 907 838 l 732 649 q 683 703 713 679 q 617 740 653 726 q 546 753 582 753 q 418 719 474 753 q 331 625 363 685 q 299 486 299 565 q 329 347 299 408 q 417 251 360 286 q 553 217 475 217 q 643 233 603 217 q 709 280 683 250 q 742 350 735 310 l 528 350 l 528 544 l 989 544 l 989 401 q 926 168 985 261 q 770 29 868 75 q 546 -17 672 -17 m 547 1031 q 401 1058 465 1031 q 301 1136 338 1086 q 265 1250 265 1186 l 493 1250 q 508 1211 493 1226 q 547 1196 524 1196 q 585 1211 571 1196 q 600 1250 600 1226 l 828 1250 q 792 1136 828 1186 q 692 1058 756 1086 q 547 1031 629 1031 z "},"Ĝ":{"ha":1010,"x_min":35,"x_max":989,"o":"m 546 -17 q 281 48 396 -17 q 100 226 165 113 q 35 486 35 339 q 100 747 35 633 q 281 924 165 860 q 546 989 396 989 q 720 961 644 989 q 851 885 796 933 q 946 775 907 838 l 732 649 q 683 703 713 679 q 617 740 653 726 q 546 753 582 753 q 418 719 474 753 q 331 625 363 685 q 299 486 299 565 q 329 347 299 408 q 417 251 360 286 q 553 217 475 217 q 643 233 603 217 q 709 280 683 250 q 742 350 735 310 l 528 350 l 528 544 l 989 544 l 989 401 q 926 168 985 261 q 770 29 868 75 q 546 -17 672 -17 m 625 1063 l 421 1249 l 421 1267 l 657 1267 l 833 1063 l 625 1063 m 243 1063 l 419 1267 l 656 1267 l 656 1249 l 451 1063 l 243 1063 z "},"Ģ":{"ha":1010,"x_min":35,"x_max":989,"o":"m 546 -17 q 281 48 396 -17 q 100 226 165 113 q 35 486 35 339 q 100 747 35 633 q 281 924 165 860 q 546 989 396 989 q 720 961 644 989 q 851 885 796 933 q 946 775 907 838 l 732 649 q 683 703 713 679 q 617 740 653 726 q 546 753 582 753 q 418 719 474 753 q 331 625 363 685 q 299 486 299 565 q 329 347 299 408 q 417 251 360 286 q 553 217 475 217 q 643 233 603 217 q 709 280 683 250 q 742 350 735 310 l 528 350 l 528 544 l 989 544 l 989 401 q 926 168 985 261 q 770 29 868 75 q 546 -17 672 -17 m 381 -278 l 444 -56 l 678 -56 l 561 -278 l 381 -278 z "},"Ġ":{"ha":1010,"x_min":35,"x_max":989,"o":"m 546 -17 q 281 48 396 -17 q 100 226 165 113 q 35 486 35 339 q 100 747 35 633 q 281 924 165 860 q 546 989 396 989 q 720 961 644 989 q 851 885 796 933 q 946 775 907 838 l 732 649 q 683 703 713 679 q 617 740 653 726 q 546 753 582 753 q 418 719 474 753 q 331 625 363 685 q 299 486 299 565 q 329 347 299 408 q 417 251 360 286 q 553 217 475 217 q 643 233 603 217 q 709 280 683 250 q 742 350 735 310 l 528 350 l 528 544 l 989 544 l 989 401 q 926 168 985 261 q 770 29 868 75 q 546 -17 672 -17 m 546 1039 q 449 1081 490 1039 q 407 1178 407 1122 q 449 1276 407 1235 q 546 1317 490 1317 q 644 1276 603 1317 q 685 1178 685 1235 q 644 1081 685 1122 q 546 1039 603 1039 z "},"H":{"ha":1039,"x_min":83,"x_max":956,"o":"m 83 0 l 83 974 l 340 974 l 340 613 l 699 613 l 699 972 l 956 972 l 956 0 l 699 0 l 699 376 l 340 376 l 340 0 l 83 0 z "},"Ħ":{"ha":1039,"x_min":7,"x_max":1032,"o":"m 7 700 l 7 876 l 1032 876 l 1032 700 l 7 700 m 83 0 l 83 974 l 340 974 l 340 613 l 699 613 l 699 972 l 956 972 l 956 0 l 699 0 l 699 376 l 340 376 l 340 0 l 83 0 z "},"Ĥ":{"ha":1039,"x_min":83,"x_max":956,"o":"m 83 0 l 83 974 l 340 974 l 340 613 l 699 613 l 699 972 l 956 972 l 956 0 l 699 0 l 699 376 l 340 376 l 340 0 l 83 0 m 607 1064 l 403 1250 l 403 1268 l 639 1268 l 815 1064 l 607 1064 m 225 1064 l 401 1268 l 638 1268 l 638 1250 l 433 1064 l 225 1064 z "},"I":{"ha":424,"x_min":83,"x_max":340,"o":"m 83 0 l 83 972 l 340 972 l 340 0 l 83 0 z "},"Ĳ":{"ha":1239,"x_min":83,"x_max":1169,"o":"m 83 0 l 83 972 l 340 972 l 340 0 l 83 0 m 789 -22 q 632 8 699 -22 q 522 87 565 39 q 458 186 479 135 q 438 279 438 238 l 664 349 q 711 247 679 281 q 792 214 743 214 q 855 229 828 214 q 897 276 882 244 q 913 354 913 307 l 913 972 l 1169 972 l 1169 290 q 1144 165 1169 222 q 1069 65 1118 107 q 949 1 1019 24 q 789 -22 878 -22 z "},"Í":{"ha":424,"x_min":78,"x_max":494,"o":"m 83 0 l 83 972 l 340 972 l 340 0 l 83 0 m 78 1043 l 231 1236 l 494 1236 l 314 1043 l 78 1043 z "},"Î":{"ha":424,"x_min":-87,"x_max":503,"o":"m 83 0 l 83 972 l 340 972 l 340 0 l 83 0 m 294 1063 l 90 1249 l 90 1267 l 326 1267 l 503 1063 l 294 1063 m -87 1063 l 89 1267 l 325 1267 l 325 1249 l 121 1063 l -87 1063 z "},"Ï":{"ha":458,"x_min":-32,"x_max":490,"o":"m 368 1068 q 283 1105 319 1068 q 246 1190 246 1142 q 283 1276 246 1239 q 368 1313 319 1313 q 453 1276 417 1313 q 490 1190 490 1239 q 453 1105 490 1142 q 368 1068 417 1068 m 90 1068 q 4 1104 40 1068 q -32 1190 -32 1140 q 4 1276 -32 1240 q 90 1313 40 1313 q 176 1276 140 1313 q 213 1190 213 1240 q 176 1104 213 1140 q 90 1068 140 1068 m 83 0 l 83 972 l 340 972 l 340 0 l 83 0 z "},"İ":{"ha":424,"x_min":76,"x_max":354,"o":"m 83 0 l 83 972 l 340 972 l 340 0 l 83 0 m 215 1039 q 118 1081 160 1039 q 76 1178 76 1122 q 118 1276 76 1235 q 215 1317 160 1317 q 313 1276 272 1317 q 354 1178 354 1235 q 313 1081 354 1122 q 215 1039 272 1039 z "},"Ì":{"ha":424,"x_min":-49,"x_max":371,"o":"m 83 0 l 83 972 l 340 972 l 340 0 l 83 0 m 135 1047 l -49 1251 l 215 1251 l 371 1047 l 135 1047 z "},"Ī":{"ha":424,"x_min":-21,"x_max":451,"o":"m 83 0 l 83 972 l 340 972 l 340 0 l 83 0 m -21 1040 l -21 1250 l 451 1250 l 451 1040 l -21 1040 z "},"Į":{"ha":424,"x_min":69,"x_max":394,"o":"m 83 0 l 83 972 l 340 972 l 340 0 l 83 0 m 286 -294 q 178 -275 228 -294 q 99 -217 129 -256 q 69 -122 69 -179 q 93 -49 69 -82 q 149 0 117 -17 l 340 0 q 283 -52 303 -24 q 263 -104 263 -81 q 269 -124 263 -115 q 288 -132 276 -132 q 307 -129 299 -132 q 322 -122 315 -126 l 394 -272 q 347 -290 374 -285 q 286 -294 321 -294 z "},"J":{"ha":815,"x_min":14,"x_max":746,"o":"m 365 -22 q 208 8 275 -22 q 99 87 142 39 q 35 186 56 135 q 14 279 14 238 l 240 349 q 288 247 256 281 q 368 214 319 214 q 431 229 404 214 q 474 276 458 244 q 489 354 489 307 l 489 972 l 746 972 l 746 290 q 720 165 746 222 q 645 65 694 107 q 525 1 596 24 q 365 -22 454 -22 z "},"Ĵ":{"ha":815,"x_min":14,"x_max":885,"o":"m 365 -22 q 208 8 275 -22 q 99 87 142 39 q 35 186 56 135 q 14 279 14 238 l 240 349 q 288 247 256 281 q 368 214 319 214 q 431 229 404 214 q 474 276 458 244 q 489 354 489 307 l 489 972 l 746 972 l 746 290 q 720 165 746 222 q 645 65 694 107 q 525 1 596 24 q 365 -22 454 -22 m 676 1067 l 472 1253 l 472 1271 l 708 1271 l 885 1067 l 676 1067 m 294 1067 l 471 1271 l 707 1271 l 707 1253 l 503 1067 l 294 1067 z "},"K":{"ha":997,"x_min":83,"x_max":983,"o":"m 83 0 l 83 972 l 340 972 l 340 649 l 633 972 l 971 972 l 567 533 l 983 0 l 664 0 l 397 350 l 340 288 l 340 0 l 83 0 z "},"Ķ":{"ha":997,"x_min":83,"x_max":983,"o":"m 83 0 l 83 972 l 340 972 l 340 649 l 633 972 l 971 972 l 567 533 l 983 0 l 664 0 l 397 350 l 340 288 l 340 0 l 83 0 m 333 -278 l 397 -56 l 631 -56 l 514 -278 l 333 -278 z "},"L":{"ha":768,"x_min":83,"x_max":740,"o":"m 83 0 l 83 972 l 340 972 l 340 236 l 740 236 l 740 0 l 83 0 z "},"Ĺ":{"ha":768,"x_min":75,"x_max":740,"o":"m 83 0 l 83 972 l 340 972 l 340 236 l 740 236 l 740 0 l 83 0 m 75 1047 l 228 1250 l 492 1250 l 311 1047 l 75 1047 z "},"Ľ":{"ha":768,"x_min":83,"x_max":740,"o":"m 83 0 l 83 972 l 340 972 l 340 236 l 740 236 l 740 0 l 83 0 m 378 849 l 410 1054 l 618 1054 l 558 849 l 378 849 z "},"Ļ":{"ha":768,"x_min":83,"x_max":740,"o":"m 83 0 l 83 972 l 340 972 l 340 236 l 740 236 l 740 0 l 83 0 m 233 -278 l 297 -56 l 531 -56 l 414 -278 l 233 -278 z "},"Ł":{"ha":768,"x_min":0,"x_max":740,"o":"m 0 307 l 0 513 l 464 764 l 464 558 l 0 307 m 83 0 l 83 972 l 340 972 l 340 236 l 740 236 l 740 0 l 83 0 z "},"M":{"ha":1206,"x_min":83,"x_max":1122,"o":"m 83 0 l 83 972 l 368 972 l 603 625 l 838 972 l 1122 972 l 1122 0 l 865 0 l 865 575 l 604 194 l 340 575 l 340 0 l 83 0 z "},"N":{"ha":1074,"x_min":83,"x_max":990,"o":"m 83 0 l 83 972 l 354 972 l 733 438 l 733 972 l 990 972 l 990 0 l 733 0 l 340 554 l 340 0 l 83 0 z "},"Ń":{"ha":1074,"x_min":83,"x_max":990,"o":"m 83 0 l 83 972 l 354 972 l 733 438 l 733 972 l 990 972 l 990 0 l 733 0 l 340 554 l 340 0 l 83 0 m 400 1019 l 553 1222 l 817 1222 l 636 1019 l 400 1019 z "},"Ň":{"ha":1074,"x_min":83,"x_max":990,"o":"m 83 0 l 83 972 l 354 972 l 733 438 l 733 972 l 990 972 l 990 0 l 733 0 l 340 554 l 340 0 l 83 0 m 426 1019 l 426 1026 l 617 1222 l 825 1222 l 649 1019 l 426 1019 m 411 1019 l 235 1222 l 443 1222 l 633 1026 l 633 1019 l 411 1019 z "},"Ņ":{"ha":1074,"x_min":83,"x_max":990,"o":"m 83 0 l 83 972 l 354 972 l 733 438 l 733 972 l 990 972 l 990 0 l 733 0 l 340 554 l 340 0 l 83 0 m 375 -278 l 439 -56 l 672 -56 l 556 -278 l 375 -278 z "},"Ñ":{"ha":1074,"x_min":83,"x_max":990,"o":"m 83 0 l 83 972 l 354 972 l 733 438 l 733 972 l 990 972 l 990 0 l 733 0 l 340 554 l 340 0 l 83 0 m 650 992 q 569 1007 597 992 q 525 1042 540 1022 q 496 1076 510 1061 q 458 1092 482 1092 q 436 1083 449 1092 q 415 1038 424 1074 l 261 1038 q 292 1156 269 1111 q 355 1219 315 1200 q 450 1239 394 1239 q 538 1224 507 1239 q 586 1189 569 1208 q 615 1154 603 1169 q 649 1139 628 1139 q 675 1155 668 1139 q 685 1193 682 1171 l 839 1193 q 783 1044 826 1096 q 650 992 739 992 z "},"Ŋ":{"ha":1074,"x_min":83,"x_max":990,"o":"m 707 -299 q 535 -250 601 -299 l 638 -43 q 665 -59 650 -53 q 693 -65 679 -65 q 733 -10 733 -65 l 733 0 l 990 0 l 990 -29 q 915 -227 990 -156 q 707 -299 840 -299 m 83 0 l 83 972 l 354 972 l 733 438 l 733 972 l 990 972 l 990 0 l 733 0 l 340 554 l 340 0 l 83 0 z "},"O":{"ha":1107,"x_min":35,"x_max":1072,"o":"m 556 -17 q 285 48 403 -17 q 101 226 168 113 q 35 485 35 339 q 101 745 35 632 q 285 923 168 858 q 553 988 401 988 q 822 923 706 988 q 1006 745 939 858 q 1072 485 1072 632 q 1006 226 1072 339 q 824 48 940 113 q 556 -17 707 -17 m 556 219 q 688 253 631 219 q 776 347 744 288 q 808 485 808 407 q 776 623 808 563 q 685 717 743 683 q 553 751 628 751 q 422 717 479 751 q 331 623 364 683 q 299 485 299 563 q 332 347 299 407 q 423 253 365 288 q 556 219 481 219 z "},"Ó":{"ha":1107,"x_min":35,"x_max":1072,"o":"m 556 -17 q 285 48 403 -17 q 101 226 168 113 q 35 485 35 339 q 101 745 35 632 q 285 923 168 858 q 553 988 401 988 q 822 923 706 988 q 1006 745 939 858 q 1072 485 1072 632 q 1006 226 1072 339 q 824 48 940 113 q 556 -17 707 -17 m 556 219 q 688 253 631 219 q 776 347 744 288 q 808 485 808 407 q 776 623 808 563 q 685 717 743 683 q 553 751 628 751 q 422 717 479 751 q 331 623 364 683 q 299 485 299 563 q 332 347 299 407 q 423 253 365 288 q 556 219 481 219 m 417 1043 l 569 1236 l 833 1236 l 653 1043 l 417 1043 z "},"Ô":{"ha":1107,"x_min":35,"x_max":1072,"o":"m 556 -17 q 285 48 403 -17 q 101 226 168 113 q 35 485 35 339 q 101 745 35 632 q 285 923 168 858 q 553 988 401 988 q 822 923 706 988 q 1006 745 939 858 q 1072 485 1072 632 q 1006 226 1072 339 q 824 48 940 113 q 556 -17 707 -17 m 556 219 q 688 253 631 219 q 776 347 744 288 q 808 485 808 407 q 776 623 808 563 q 685 717 743 683 q 553 751 628 751 q 422 717 479 751 q 331 623 364 683 q 299 485 299 563 q 332 347 299 407 q 423 253 365 288 q 556 219 481 219 m 633 1063 l 429 1249 l 429 1267 l 665 1267 l 842 1063 l 633 1063 m 251 1063 l 428 1267 l 664 1267 l 664 1249 l 460 1063 l 251 1063 z "},"Ö":{"ha":1107,"x_min":35,"x_max":1072,"o":"m 556 -17 q 285 48 403 -17 q 101 226 168 113 q 35 485 35 339 q 101 745 35 632 q 285 923 168 858 q 553 988 401 988 q 822 923 706 988 q 1006 745 939 858 q 1072 485 1072 632 q 1006 226 1072 339 q 824 48 940 113 q 556 -17 707 -17 m 556 219 q 688 253 631 219 q 776 347 744 288 q 808 485 808 407 q 776 623 808 563 q 685 717 743 683 q 553 751 628 751 q 422 717 479 751 q 331 623 364 683 q 299 485 299 563 q 332 347 299 407 q 423 253 365 288 q 556 219 481 219 m 742 1068 q 656 1105 693 1068 q 619 1190 619 1142 q 656 1276 619 1239 q 742 1313 693 1313 q 827 1276 790 1313 q 864 1190 864 1239 q 827 1105 864 1142 q 742 1068 790 1068 m 367 1068 q 281 1104 317 1068 q 244 1190 244 1140 q 281 1276 244 1240 q 367 1313 317 1313 q 453 1276 417 1313 q 489 1190 489 1240 q 453 1104 489 1140 q 367 1068 417 1068 z "},"Ò":{"ha":1107,"x_min":35,"x_max":1072,"o":"m 556 -17 q 285 48 403 -17 q 101 226 168 113 q 35 485 35 339 q 101 745 35 632 q 285 923 168 858 q 553 988 401 988 q 822 923 706 988 q 1006 745 939 858 q 1072 485 1072 632 q 1006 226 1072 339 q 824 48 940 113 q 556 -17 707 -17 m 556 219 q 688 253 631 219 q 776 347 744 288 q 808 485 808 407 q 776 623 808 563 q 685 717 743 683 q 553 751 628 751 q 422 717 479 751 q 331 623 364 683 q 299 485 299 563 q 332 347 299 407 q 423 253 365 288 q 556 219 481 219 m 474 1047 l 290 1251 l 554 1251 l 710 1047 l 474 1047 z "},"Ő":{"ha":1107,"x_min":35,"x_max":1072,"o":"m 556 -17 q 285 48 403 -17 q 101 226 168 113 q 35 485 35 339 q 101 745 35 632 q 285 923 168 858 q 553 988 401 988 q 822 923 706 988 q 1006 745 939 858 q 1072 485 1072 632 q 1006 226 1072 339 q 824 48 940 113 q 556 -17 707 -17 m 556 219 q 688 253 631 219 q 776 347 744 288 q 808 485 808 407 q 776 623 808 563 q 685 717 743 683 q 553 751 628 751 q 422 717 479 751 q 331 623 364 683 q 299 485 299 563 q 332 347 299 407 q 423 253 365 288 q 556 219 481 219 m 615 1047 l 754 1250 l 990 1250 l 821 1047 l 615 1047 m 296 1047 l 429 1250 l 665 1250 l 499 1047 l 296 1047 z "},"Ō":{"ha":1107,"x_min":35,"x_max":1072,"o":"m 556 -17 q 285 48 403 -17 q 101 226 168 113 q 35 485 35 339 q 101 745 35 632 q 285 923 168 858 q 553 988 401 988 q 822 923 706 988 q 1006 745 939 858 q 1072 485 1072 632 q 1006 226 1072 339 q 824 48 940 113 q 556 -17 707 -17 m 556 219 q 688 253 631 219 q 776 347 744 288 q 808 485 808 407 q 776 623 808 563 q 685 717 743 683 q 553 751 628 751 q 422 717 479 751 q 331 623 364 683 q 299 485 299 563 q 332 347 299 407 q 423 253 365 288 q 556 219 481 219 m 275 1040 l 275 1250 l 832 1250 l 832 1040 l 275 1040 z "},"Ø":{"ha":1106,"x_min":28,"x_max":1078,"o":"m 31 0 l 867 972 l 1078 972 l 240 0 l 31 0 m 549 -17 q 278 48 396 -17 q 94 226 161 113 q 28 485 28 339 q 94 745 28 632 q 278 923 161 858 q 546 988 394 988 q 815 923 699 988 q 999 745 932 858 q 1065 485 1065 632 q 999 226 1065 339 q 817 48 933 113 q 549 -17 700 -17 m 549 219 q 681 253 624 219 q 769 347 738 288 q 801 485 801 407 q 769 623 801 563 q 678 717 736 683 q 546 751 621 751 q 415 717 472 751 q 324 623 357 683 q 292 485 292 563 q 325 347 292 407 q 416 253 358 288 q 549 219 474 219 z "},"Õ":{"ha":1107,"x_min":35,"x_max":1072,"o":"m 556 -17 q 285 48 403 -17 q 101 226 168 113 q 35 485 35 339 q 101 745 35 632 q 285 923 168 858 q 553 988 401 988 q 822 923 706 988 q 1006 745 939 858 q 1072 485 1072 632 q 1006 226 1072 339 q 824 48 940 113 q 556 -17 707 -17 m 556 219 q 688 253 631 219 q 776 347 744 288 q 808 485 808 407 q 776 623 808 563 q 685 717 743 683 q 553 751 628 751 q 422 717 479 751 q 331 623 364 683 q 299 485 299 563 q 332 347 299 407 q 423 253 365 288 q 556 219 481 219 m 667 1019 q 585 1035 614 1019 q 542 1069 557 1050 q 513 1104 526 1089 q 475 1119 499 1119 q 453 1110 465 1119 q 432 1065 440 1101 l 278 1065 q 309 1183 286 1139 q 372 1247 332 1228 q 467 1267 411 1267 q 555 1251 524 1267 q 603 1217 586 1236 q 632 1182 619 1197 q 665 1167 644 1167 q 692 1183 685 1167 q 701 1221 699 1199 l 856 1221 q 799 1072 843 1124 q 667 1019 756 1019 z "},"Œ":{"ha":1522,"x_min":35,"x_max":1453,"o":"m 556 -17 q 285 48 403 -17 q 101 226 168 113 q 35 486 35 339 q 101 745 35 632 q 285 923 168 858 q 553 988 401 988 q 788 924 686 988 q 948 749 890 861 q 1006 492 1006 638 q 948 228 1006 343 q 789 49 890 114 q 556 -17 688 -17 m 556 226 q 680 260 626 226 q 763 351 733 293 q 793 486 793 410 q 763 619 793 561 q 678 711 732 678 q 553 744 624 744 q 425 711 481 744 q 338 619 369 678 q 306 485 306 561 q 338 351 306 410 q 426 260 369 293 q 556 226 483 226 m 792 0 l 792 972 l 1443 972 l 1443 736 l 1049 736 l 1049 601 l 1368 601 l 1368 372 l 1049 372 l 1049 236 l 1453 236 l 1453 0 l 792 0 z "},"P":{"ha":868,"x_min":83,"x_max":861,"o":"m 83 0 l 83 972 l 486 972 q 681 929 596 972 q 813 810 765 886 q 861 633 861 733 q 813 456 861 533 q 681 335 765 379 q 486 292 596 292 l 340 292 l 340 0 l 83 0 m 340 528 l 479 528 q 565 557 532 528 q 597 633 597 586 q 565 708 597 679 q 479 738 532 738 l 340 738 l 340 528 z "},"Þ":{"ha":896,"x_min":97,"x_max":882,"o":"m 97 1 l 97 974 l 361 974 l 361 835 l 507 835 q 701 792 617 835 q 834 672 786 749 q 882 496 882 596 q 834 319 882 396 q 701 198 786 242 q 507 154 617 154 l 361 154 l 361 1 l 97 1 m 361 390 l 493 390 q 578 419 546 390 q 611 496 611 449 q 578 571 611 542 q 493 600 546 600 l 361 600 l 361 390 z "},"Q":{"ha":1107,"x_min":35,"x_max":1072,"o":"m 890 -61 l 797 35 q 683 -3 744 10 q 556 -17 622 -17 q 285 48 403 -17 q 101 226 168 113 q 35 485 35 339 q 73 688 35 596 q 181 847 111 779 q 344 952 250 915 q 553 989 439 989 q 822 924 706 989 q 1006 746 939 860 q 1072 485 1072 632 q 1047 315 1072 394 q 972 174 1021 236 l 1050 94 l 890 -61 m 556 219 q 583 221 571 219 q 610 225 596 222 l 522 314 l 685 468 l 785 365 q 802 422 796 392 q 808 485 808 451 q 776 624 808 564 q 685 719 743 685 q 553 753 628 753 q 422 719 479 753 q 331 624 364 685 q 299 485 299 564 q 332 347 299 407 q 423 253 365 288 q 556 219 481 219 z "},"R":{"ha":921,"x_min":83,"x_max":900,"o":"m 83 0 l 83 972 l 486 972 q 681 930 596 972 q 813 813 765 888 q 861 642 861 739 q 814 471 861 546 q 686 354 767 396 l 900 0 l 606 0 l 431 308 q 414 308 422 308 q 397 308 406 308 l 340 308 l 340 0 l 83 0 m 340 544 l 472 544 q 533 557 507 544 q 575 592 560 569 q 590 642 590 614 q 558 710 590 683 q 472 738 525 738 l 340 738 l 340 544 z "},"Ŕ":{"ha":921,"x_min":83,"x_max":900,"o":"m 83 0 l 83 972 l 486 972 q 681 930 596 972 q 813 813 765 888 q 861 642 861 739 q 814 471 861 546 q 686 354 767 396 l 900 0 l 606 0 l 431 308 q 414 308 422 308 q 397 308 406 308 l 340 308 l 340 0 l 83 0 m 340 544 l 472 544 q 533 557 507 544 q 575 592 560 569 q 590 642 590 614 q 558 710 590 683 q 472 738 525 738 l 340 738 l 340 544 m 281 1047 l 433 1250 l 697 1250 l 517 1047 l 281 1047 z "},"Ř":{"ha":921,"x_min":83,"x_max":900,"o":"m 83 0 l 83 972 l 486 972 q 681 930 596 972 q 813 813 765 888 q 861 642 861 739 q 814 471 861 546 q 686 354 767 396 l 900 0 l 606 0 l 431 308 q 414 308 422 308 q 397 308 406 308 l 340 308 l 340 0 l 83 0 m 340 544 l 472 544 q 533 557 507 544 q 575 592 560 569 q 590 642 590 614 q 558 710 590 683 q 472 738 525 738 l 340 738 l 340 544 m 307 1047 l 307 1054 l 497 1250 l 706 1250 l 529 1047 l 307 1047 m 292 1047 l 115 1250 l 324 1250 l 514 1054 l 514 1047 l 292 1047 z "},"Ŗ":{"ha":921,"x_min":83,"x_max":900,"o":"m 83 0 l 83 972 l 486 972 q 681 930 596 972 q 813 813 765 888 q 861 642 861 739 q 814 471 861 546 q 686 354 767 396 l 900 0 l 606 0 l 431 308 q 414 308 422 308 q 397 308 406 308 l 340 308 l 340 0 l 83 0 m 340 544 l 472 544 q 533 557 507 544 q 575 592 560 569 q 590 642 590 614 q 558 710 590 683 q 472 738 525 738 l 340 738 l 340 544 m 296 -278 l 360 -56 l 593 -56 l 476 -278 l 296 -278 z "},"S":{"ha":833,"x_min":42,"x_max":790,"o":"m 424 -17 q 290 2 356 -17 q 172 54 225 21 q 83 130 118 88 q 42 219 49 172 l 297 290 q 340 231 310 256 q 419 204 371 207 q 488 225 458 203 q 518 283 518 247 q 501 328 518 307 q 446 360 483 350 l 300 397 q 172 457 225 417 q 90 556 118 497 q 61 686 61 614 q 156 909 61 829 q 424 989 251 989 q 585 965 515 989 q 706 891 656 942 q 790 758 757 840 l 536 685 q 501 740 529 713 q 424 768 472 768 q 351 747 376 768 q 325 686 325 726 q 346 642 325 661 q 406 614 367 624 l 553 576 q 726 467 664 549 q 789 282 789 386 q 745 119 789 186 q 619 18 701 53 q 424 -17 538 -17 z "},"Ś":{"ha":833,"x_min":42,"x_max":790,"o":"m 424 -17 q 290 2 356 -17 q 172 54 225 21 q 83 130 118 88 q 42 219 49 172 l 297 290 q 340 231 310 256 q 419 204 371 207 q 488 225 458 203 q 518 283 518 247 q 501 328 518 307 q 446 360 483 350 l 300 397 q 172 457 225 417 q 90 556 118 497 q 61 686 61 614 q 156 909 61 829 q 424 989 251 989 q 585 965 515 989 q 706 891 656 942 q 790 758 757 840 l 536 685 q 501 740 529 713 q 424 768 472 768 q 351 747 376 768 q 325 686 325 726 q 346 642 325 661 q 406 614 367 624 l 553 576 q 726 467 664 549 q 789 282 789 386 q 745 119 789 186 q 619 18 701 53 q 424 -17 538 -17 m 286 1047 l 439 1250 l 703 1250 l 522 1047 l 286 1047 z "},"Š":{"ha":833,"x_min":42,"x_max":790,"o":"m 424 -17 q 290 2 356 -17 q 172 54 225 21 q 83 130 118 88 q 42 219 49 172 l 297 290 q 340 231 310 256 q 419 204 371 207 q 488 225 458 203 q 518 283 518 247 q 501 328 518 307 q 446 360 483 350 l 300 397 q 172 457 225 417 q 90 556 118 497 q 61 686 61 614 q 156 909 61 829 q 424 989 251 989 q 585 965 515 989 q 706 891 656 942 q 790 758 757 840 l 536 685 q 501 740 529 713 q 424 768 472 768 q 351 747 376 768 q 325 686 325 726 q 346 642 325 661 q 406 614 367 624 l 553 576 q 726 467 664 549 q 789 282 789 386 q 745 119 789 186 q 619 18 701 53 q 424 -17 538 -17 m 313 1047 l 313 1054 l 503 1250 l 711 1250 l 535 1047 l 313 1047 m 297 1047 l 121 1250 l 329 1250 l 519 1054 l 519 1047 l 297 1047 z "},"Ş":{"ha":833,"x_min":42,"x_max":790,"o":"m 424 -17 q 290 2 356 -17 q 172 54 225 21 q 83 130 118 88 q 42 219 49 172 l 297 290 q 340 231 310 256 q 419 204 371 207 q 488 225 458 203 q 518 283 518 247 q 501 328 518 307 q 446 360 483 350 l 300 397 q 172 457 225 417 q 90 556 118 497 q 61 686 61 614 q 156 909 61 829 q 424 989 251 989 q 585 965 515 989 q 706 891 656 942 q 790 758 757 840 l 536 685 q 501 740 529 713 q 424 768 472 768 q 351 747 376 768 q 325 686 325 726 q 346 642 325 661 q 406 614 367 624 l 553 576 q 726 467 664 549 q 789 282 789 386 q 745 119 789 186 q 619 18 701 53 q 424 -17 538 -17 m 349 -292 q 280 -280 315 -292 q 215 -249 244 -268 l 244 -143 q 281 -158 264 -153 q 310 -162 299 -162 q 347 -156 333 -162 q 361 -136 361 -149 q 341 -106 361 -117 q 285 -96 321 -96 l 326 8 l 461 8 l 440 -36 q 514 -82 488 -51 q 540 -150 540 -112 q 490 -254 540 -217 q 349 -292 439 -292 z "},"Ŝ":{"ha":833,"x_min":42,"x_max":790,"o":"m 424 -17 q 290 2 356 -17 q 172 54 225 21 q 83 130 118 88 q 42 219 49 172 l 297 290 q 340 231 310 256 q 419 204 371 207 q 488 225 458 203 q 518 283 518 247 q 501 328 518 307 q 446 360 483 350 l 300 397 q 172 457 225 417 q 90 556 118 497 q 61 686 61 614 q 156 909 61 829 q 424 989 251 989 q 585 965 515 989 q 706 891 656 942 q 790 758 757 840 l 536 685 q 501 740 529 713 q 424 768 472 768 q 351 747 376 768 q 325 686 325 726 q 346 642 325 661 q 406 614 367 624 l 553 576 q 726 467 664 549 q 789 282 789 386 q 745 119 789 186 q 619 18 701 53 q 424 -17 538 -17 m 503 1063 l 299 1249 l 299 1267 l 535 1267 l 711 1063 l 503 1063 m 121 1063 l 297 1267 l 533 1267 l 533 1249 l 329 1063 l 121 1063 z "},"Ș":{"ha":833,"x_min":42,"x_max":790,"o":"m 424 -17 q 290 2 356 -17 q 172 54 225 21 q 83 130 118 88 q 42 219 49 172 l 297 290 q 340 231 310 256 q 419 204 371 207 q 488 225 458 203 q 518 283 518 247 q 501 328 518 307 q 446 360 483 350 l 300 397 q 172 457 225 417 q 90 556 118 497 q 61 686 61 614 q 156 909 61 829 q 424 989 251 989 q 585 965 515 989 q 706 891 656 942 q 790 758 757 840 l 536 685 q 501 740 529 713 q 424 768 472 768 q 351 747 376 768 q 325 686 325 726 q 346 642 325 661 q 406 614 367 624 l 553 576 q 726 467 664 549 q 789 282 789 386 q 745 119 789 186 q 619 18 701 53 q 424 -17 538 -17 m 258 -278 l 322 -56 l 556 -56 l 439 -278 l 258 -278 z "},"ẞ":{"ha":950,"x_min":83,"x_max":915,"o":"m 578 -17 q 507 -11 551 -17 q 424 8 463 -6 l 467 244 q 504 233 482 238 q 556 228 526 228 q 631 253 597 228 q 664 325 664 279 q 639 381 664 364 q 542 397 614 397 l 457 397 l 457 568 l 582 733 q 515 751 550 744 q 439 758 479 758 q 372 736 396 758 q 347 674 347 714 l 347 0 l 83 0 l 83 754 q 182 927 83 865 q 457 989 281 989 q 635 961 550 989 q 792 890 721 933 q 911 803 863 847 l 732 542 q 871 444 826 511 q 915 281 915 376 q 829 62 915 140 q 578 -17 743 -17 z "},"T":{"ha":853,"x_min":24,"x_max":829,"o":"m 299 0 l 299 736 l 24 736 l 24 972 l 829 972 l 829 736 l 556 736 l 556 0 l 299 0 z "},"Ť":{"ha":853,"x_min":24,"x_max":829,"o":"m 299 0 l 299 736 l 24 736 l 24 972 l 829 972 l 829 736 l 556 736 l 556 0 l 299 0 m 314 1047 l 314 1054 l 504 1250 l 713 1250 l 536 1047 l 314 1047 m 299 1047 l 122 1250 l 331 1250 l 521 1054 l 521 1047 l 299 1047 z "},"Ț":{"ha":853,"x_min":24,"x_max":829,"o":"m 299 0 l 299 736 l 24 736 l 24 972 l 829 972 l 829 736 l 556 736 l 556 0 l 299 0 m 261 -278 l 325 -56 l 558 -56 l 442 -278 l 261 -278 z "},"U":{"ha":972,"x_min":69,"x_max":903,"o":"m 483 -17 q 261 31 354 -17 q 119 166 168 78 q 69 376 69 254 l 69 972 l 326 972 l 326 376 q 346 293 326 328 q 401 240 365 258 q 486 222 436 222 q 572 240 536 222 q 627 293 608 258 q 646 376 646 328 l 646 972 l 903 972 l 903 376 q 853 166 903 254 q 709 31 803 78 q 483 -17 615 -17 z "},"Ú":{"ha":972,"x_min":69,"x_max":903,"o":"m 483 -17 q 261 31 354 -17 q 119 166 168 78 q 69 376 69 254 l 69 972 l 326 972 l 326 376 q 346 293 326 328 q 401 240 365 258 q 486 222 436 222 q 572 240 536 222 q 627 293 608 258 q 646 376 646 328 l 646 972 l 903 972 l 903 376 q 853 166 903 254 q 709 31 803 78 q 483 -17 615 -17 m 349 1043 l 501 1236 l 765 1236 l 585 1043 l 349 1043 z "},"Ŭ":{"ha":972,"x_min":69,"x_max":903,"o":"m 483 -17 q 261 31 354 -17 q 119 166 168 78 q 69 376 69 254 l 69 972 l 326 972 l 326 376 q 346 293 326 328 q 401 240 365 258 q 486 222 436 222 q 572 240 536 222 q 627 293 608 258 q 646 376 646 328 l 646 972 l 903 972 l 903 376 q 853 166 903 254 q 709 31 803 78 q 483 -17 615 -17 m 488 1031 q 342 1058 406 1031 q 242 1136 278 1086 q 206 1250 206 1186 l 433 1250 q 449 1211 433 1226 q 488 1196 464 1196 q 526 1211 511 1196 q 540 1250 540 1226 l 768 1250 q 732 1136 768 1186 q 633 1058 696 1086 q 488 1031 569 1031 z "},"Û":{"ha":972,"x_min":69,"x_max":903,"o":"m 483 -17 q 261 31 354 -17 q 119 166 168 78 q 69 376 69 254 l 69 972 l 326 972 l 326 376 q 346 293 326 328 q 401 240 365 258 q 486 222 436 222 q 572 240 536 222 q 627 293 608 258 q 646 376 646 328 l 646 972 l 903 972 l 903 376 q 853 166 903 254 q 709 31 803 78 q 483 -17 615 -17 m 565 1063 l 361 1249 l 361 1267 l 597 1267 l 774 1063 l 565 1063 m 183 1063 l 360 1267 l 596 1267 l 596 1249 l 392 1063 l 183 1063 z "},"Ü":{"ha":972,"x_min":69,"x_max":903,"o":"m 483 -17 q 261 31 354 -17 q 119 166 168 78 q 69 376 69 254 l 69 972 l 326 972 l 326 376 q 346 293 326 328 q 401 240 365 258 q 486 222 436 222 q 572 240 536 222 q 627 293 608 258 q 646 376 646 328 l 646 972 l 903 972 l 903 376 q 853 166 903 254 q 709 31 803 78 q 483 -17 615 -17 m 674 1068 q 588 1105 625 1068 q 551 1190 551 1142 q 588 1276 551 1239 q 674 1313 625 1313 q 759 1276 722 1313 q 796 1190 796 1239 q 759 1105 796 1142 q 674 1068 722 1068 m 299 1068 q 213 1104 249 1068 q 176 1190 176 1140 q 213 1276 176 1240 q 299 1313 249 1313 q 385 1276 349 1313 q 421 1190 421 1240 q 385 1104 421 1140 q 299 1068 349 1068 z "},"Ù":{"ha":972,"x_min":69,"x_max":903,"o":"m 483 -17 q 261 31 354 -17 q 119 166 168 78 q 69 376 69 254 l 69 972 l 326 972 l 326 376 q 346 293 326 328 q 401 240 365 258 q 486 222 436 222 q 572 240 536 222 q 627 293 608 258 q 646 376 646 328 l 646 972 l 903 972 l 903 376 q 853 166 903 254 q 709 31 803 78 q 483 -17 615 -17 m 406 1047 l 222 1251 l 486 1251 l 642 1047 l 406 1047 z "},"Ű":{"ha":972,"x_min":69,"x_max":922,"o":"m 483 -17 q 261 31 354 -17 q 119 166 168 78 q 69 376 69 254 l 69 972 l 326 972 l 326 376 q 346 293 326 328 q 401 240 365 258 q 486 222 436 222 q 572 240 536 222 q 627 293 608 258 q 646 376 646 328 l 646 972 l 903 972 l 903 376 q 853 166 903 254 q 709 31 803 78 q 483 -17 615 -17 m 547 1047 l 686 1250 l 922 1250 l 753 1047 l 547 1047 m 228 1047 l 361 1250 l 597 1250 l 431 1047 l 228 1047 z "},"Ū":{"ha":972,"x_min":69,"x_max":903,"o":"m 483 -17 q 261 31 354 -17 q 119 166 168 78 q 69 376 69 254 l 69 972 l 326 972 l 326 376 q 346 293 326 328 q 401 240 365 258 q 486 222 436 222 q 572 240 536 222 q 627 293 608 258 q 646 376 646 328 l 646 972 l 903 972 l 903 376 q 853 166 903 254 q 709 31 803 78 q 483 -17 615 -17 m 250 1040 l 250 1250 l 722 1250 l 722 1040 l 250 1040 z "},"Ų":{"ha":972,"x_min":69,"x_max":903,"o":"m 483 -17 q 261 31 354 -17 q 119 166 168 78 q 69 376 69 254 l 69 972 l 326 972 l 326 376 q 346 293 326 328 q 401 240 365 258 q 486 222 436 222 q 572 240 536 222 q 627 293 608 258 q 646 376 646 328 l 646 972 l 903 972 l 903 376 q 853 166 903 254 q 709 31 803 78 q 483 -17 615 -17 m 758 -294 q 637 -278 693 -294 q 547 -228 581 -261 q 514 -144 514 -194 q 545 -57 514 -94 q 629 13 576 -19 q 744 83 682 46 l 786 83 q 724 10 743 40 q 699 -42 704 -19 q 694 -87 694 -65 q 707 -121 694 -108 q 742 -133 719 -133 q 772 -131 760 -133 q 794 -124 783 -128 l 867 -272 q 819 -290 846 -285 q 758 -294 793 -294 z "},"Ů":{"ha":972,"x_min":69,"x_max":903,"o":"m 483 -17 q 261 31 354 -17 q 119 166 168 78 q 69 376 69 254 l 69 972 l 326 972 l 326 376 q 346 293 326 328 q 401 240 365 258 q 486 222 436 222 q 572 240 536 222 q 627 293 608 258 q 646 376 646 328 l 646 972 l 903 972 l 903 376 q 853 166 903 254 q 709 31 803 78 q 483 -17 615 -17 m 486 1000 q 391 1024 435 1000 q 321 1089 347 1049 q 294 1179 294 1129 q 321 1271 294 1231 q 391 1335 347 1311 q 486 1360 435 1360 q 581 1335 538 1360 q 650 1271 624 1311 q 676 1179 676 1231 q 650 1089 676 1129 q 581 1024 624 1049 q 486 1000 538 1000 m 486 1133 q 531 1179 531 1133 q 486 1226 531 1226 q 440 1179 440 1226 q 486 1133 440 1133 z "},"V":{"ha":1042,"x_min":10,"x_max":1032,"o":"m 383 0 l 10 972 l 288 972 l 522 311 l 754 972 l 1032 972 l 661 0 l 383 0 z "},"W":{"ha":1400,"x_min":10,"x_max":1390,"o":"m 289 0 l 10 972 l 272 972 l 426 396 l 572 972 l 828 972 l 978 411 l 1128 972 l 1390 972 l 1111 0 l 844 0 l 700 575 l 556 0 l 289 0 z "},"Ẃ":{"ha":1400,"x_min":10,"x_max":1390,"o":"m 289 0 l 10 972 l 272 972 l 426 396 l 572 972 l 828 972 l 978 411 l 1128 972 l 1390 972 l 1111 0 l 844 0 l 700 575 l 556 0 l 289 0 m 561 1006 l 714 1208 l 978 1208 l 797 1006 l 561 1006 z "},"Ŵ":{"ha":1400,"x_min":10,"x_max":1390,"o":"m 289 0 l 10 972 l 272 972 l 426 396 l 572 972 l 828 972 l 978 411 l 1128 972 l 1390 972 l 1111 0 l 844 0 l 700 575 l 556 0 l 289 0 m 778 1021 l 574 1207 l 574 1225 l 810 1225 l 986 1021 l 778 1021 m 396 1021 l 572 1225 l 808 1225 l 808 1207 l 604 1021 l 396 1021 z "},"Ẅ":{"ha":1400,"x_min":10,"x_max":1390,"o":"m 289 0 l 10 972 l 272 972 l 426 396 l 572 972 l 828 972 l 978 411 l 1128 972 l 1390 972 l 1111 0 l 844 0 l 700 575 l 556 0 l 289 0 m 886 1026 q 801 1063 838 1026 q 764 1149 764 1100 q 801 1234 764 1197 q 886 1271 838 1271 q 972 1234 935 1271 q 1008 1149 1008 1197 q 972 1063 1008 1100 q 886 1026 935 1026 m 511 1026 q 425 1063 461 1026 q 389 1149 389 1099 q 425 1235 389 1199 q 511 1271 461 1271 q 597 1235 561 1271 q 633 1149 633 1199 q 597 1063 633 1099 q 511 1026 561 1026 z "},"Ẁ":{"ha":1400,"x_min":10,"x_max":1390,"o":"m 289 0 l 10 972 l 272 972 l 426 396 l 572 972 l 828 972 l 978 411 l 1128 972 l 1390 972 l 1111 0 l 844 0 l 700 575 l 556 0 l 289 0 m 618 1006 l 435 1210 l 699 1210 l 854 1006 l 618 1006 z "},"X":{"ha":1026,"x_min":14,"x_max":1013,"o":"m 14 0 l 371 501 l 25 972 l 332 972 l 514 708 l 694 972 l 1001 972 l 657 503 l 1013 0 l 703 0 l 514 289 l 324 0 l 14 0 z "},"Y":{"ha":953,"x_min":7,"x_max":946,"o":"m 349 0 l 349 413 l 7 972 l 299 972 l 476 668 l 654 972 l 946 972 l 606 414 l 606 0 l 349 0 z "},"Ý":{"ha":953,"x_min":7,"x_max":946,"o":"m 349 0 l 349 413 l 7 972 l 299 972 l 476 668 l 654 972 l 946 972 l 606 414 l 606 0 l 349 0 m 339 1006 l 492 1208 l 756 1208 l 575 1006 l 339 1006 z "},"Ŷ":{"ha":953,"x_min":7,"x_max":946,"o":"m 349 0 l 349 413 l 7 972 l 299 972 l 476 668 l 654 972 l 946 972 l 606 414 l 606 0 l 349 0 m 556 1021 l 351 1207 l 351 1225 l 588 1225 l 764 1021 l 556 1021 m 174 1021 l 350 1225 l 586 1225 l 586 1207 l 382 1021 l 174 1021 z "},"Ÿ":{"ha":953,"x_min":7,"x_max":946,"o":"m 349 0 l 349 413 l 7 972 l 299 972 l 476 668 l 654 972 l 946 972 l 606 414 l 606 0 l 349 0 m 664 1026 q 578 1063 615 1026 q 542 1149 542 1100 q 578 1234 542 1197 q 664 1271 615 1271 q 749 1234 713 1271 q 786 1149 786 1197 q 749 1063 786 1100 q 664 1026 713 1026 m 289 1026 q 203 1063 239 1026 q 167 1149 167 1099 q 203 1235 167 1199 q 289 1271 239 1271 q 375 1235 339 1271 q 411 1149 411 1199 q 375 1063 411 1099 q 289 1026 339 1026 z "},"Ỳ":{"ha":953,"x_min":7,"x_max":946,"o":"m 349 0 l 349 413 l 7 972 l 299 972 l 476 668 l 654 972 l 946 972 l 606 414 l 606 0 l 349 0 m 396 1006 l 213 1210 l 476 1210 l 632 1006 l 396 1006 z "},"Z":{"ha":867,"x_min":42,"x_max":825,"o":"m 42 0 l 42 243 l 489 729 l 46 729 l 46 972 l 825 972 l 825 729 l 378 243 l 821 243 l 821 0 l 42 0 z "},"Ź":{"ha":867,"x_min":42,"x_max":825,"o":"m 42 0 l 42 243 l 489 729 l 46 729 l 46 972 l 825 972 l 825 729 l 378 243 l 821 243 l 821 0 l 42 0 m 297 1047 l 450 1250 l 714 1250 l 533 1047 l 297 1047 z "},"Ž":{"ha":867,"x_min":42,"x_max":825,"o":"m 42 0 l 42 243 l 489 729 l 46 729 l 46 972 l 825 972 l 825 729 l 378 243 l 821 243 l 821 0 l 42 0 m 324 1047 l 324 1054 l 514 1250 l 722 1250 l 546 1047 l 324 1047 m 308 1047 l 132 1250 l 340 1250 l 531 1054 l 531 1047 l 308 1047 z "},"Ż":{"ha":867,"x_min":42,"x_max":825,"o":"m 42 0 l 42 243 l 489 729 l 46 729 l 46 972 l 825 972 l 825 729 l 378 243 l 821 243 l 821 0 l 42 0 m 435 1039 q 338 1081 379 1039 q 296 1178 296 1122 q 338 1276 296 1235 q 435 1317 379 1317 q 533 1276 492 1317 q 574 1178 574 1235 q 533 1081 574 1122 q 435 1039 492 1039 z "},"a":{"ha":758,"x_min":28,"x_max":703,"o":"m 283 -17 q 95 38 163 -17 q 28 196 28 93 q 95 356 28 304 q 283 408 163 408 l 458 408 q 433 483 454 454 q 356 511 413 511 q 299 494 321 511 q 261 456 276 478 l 43 525 q 116 624 72 582 q 219 688 160 665 q 350 711 278 711 q 540 671 461 711 q 661 558 619 631 q 703 390 703 486 l 703 0 l 468 0 l 465 61 q 388 3 435 22 q 283 -17 342 -17 m 349 158 q 408 171 383 158 q 447 207 433 183 q 461 261 461 231 l 461 265 l 382 265 q 307 249 333 265 q 281 201 281 232 q 299 169 281 181 q 349 158 317 158 z "},"á":{"ha":758,"x_min":28,"x_max":703,"o":"m 283 -17 q 95 38 163 -17 q 28 196 28 93 q 95 356 28 304 q 283 408 163 408 l 458 408 q 433 483 454 454 q 356 511 413 511 q 299 494 321 511 q 261 456 276 478 l 43 525 q 116 624 72 582 q 219 688 160 665 q 350 711 278 711 q 540 671 461 711 q 661 558 619 631 q 703 390 703 486 l 703 0 l 468 0 l 465 61 q 388 3 435 22 q 283 -17 342 -17 m 349 158 q 408 171 383 158 q 447 207 433 183 q 461 261 461 231 l 461 265 l 382 265 q 307 249 333 265 q 281 201 281 232 q 299 169 281 181 q 349 158 317 158 m 213 769 l 365 972 l 629 972 l 449 769 l 213 769 z "},"ă":{"ha":758,"x_min":28,"x_max":703,"o":"m 283 -17 q 95 38 163 -17 q 28 196 28 93 q 95 356 28 304 q 283 408 163 408 l 458 408 q 433 483 454 454 q 356 511 413 511 q 299 494 321 511 q 261 456 276 478 l 43 525 q 116 624 72 582 q 219 688 160 665 q 350 711 278 711 q 540 671 461 711 q 661 558 619 631 q 703 390 703 486 l 703 0 l 468 0 l 465 61 q 388 3 435 22 q 283 -17 342 -17 m 349 158 q 408 171 383 158 q 447 207 433 183 q 461 261 461 231 l 461 265 l 382 265 q 307 249 333 265 q 281 201 281 232 q 299 169 281 181 q 349 158 317 158 m 351 753 q 206 781 269 753 q 106 858 142 808 q 69 972 69 908 l 297 972 q 313 933 297 949 q 351 918 328 918 q 390 933 375 918 q 404 972 404 949 l 632 972 q 596 858 632 908 q 497 781 560 808 q 351 753 433 753 z "},"ǎ":{"ha":758,"x_min":28,"x_max":703,"o":"m 283 -17 q 95 38 163 -17 q 28 196 28 93 q 95 356 28 304 q 283 408 163 408 l 458 408 q 433 483 454 454 q 356 511 413 511 q 299 494 321 511 q 261 456 276 478 l 43 525 q 116 624 72 582 q 219 688 160 665 q 350 711 278 711 q 540 671 461 711 q 661 558 619 631 q 703 390 703 486 l 703 0 l 468 0 l 465 61 q 388 3 435 22 q 283 -17 342 -17 m 349 158 q 408 171 383 158 q 447 207 433 183 q 461 261 461 231 l 461 265 l 382 265 q 307 249 333 265 q 281 201 281 232 q 299 169 281 181 q 349 158 317 158 m 239 769 l 239 776 l 429 972 l 638 972 l 461 769 l 239 769 m 224 769 l 47 972 l 256 972 l 446 776 l 446 769 l 224 769 z "},"â":{"ha":758,"x_min":28,"x_max":703,"o":"m 283 -17 q 95 38 163 -17 q 28 196 28 93 q 95 356 28 304 q 283 408 163 408 l 458 408 q 433 483 454 454 q 356 511 413 511 q 299 494 321 511 q 261 456 276 478 l 43 525 q 116 624 72 582 q 219 688 160 665 q 350 711 278 711 q 540 671 461 711 q 661 558 619 631 q 703 390 703 486 l 703 0 l 468 0 l 465 61 q 388 3 435 22 q 283 -17 342 -17 m 349 158 q 408 171 383 158 q 447 207 433 183 q 461 261 461 231 l 461 265 l 382 265 q 307 249 333 265 q 281 201 281 232 q 299 169 281 181 q 349 158 317 158 m 429 785 l 225 971 l 225 989 l 461 989 l 638 785 l 429 785 m 47 785 l 224 989 l 460 989 l 460 971 l 256 785 l 47 785 z "},"ä":{"ha":758,"x_min":28,"x_max":703,"o":"m 283 -17 q 95 38 163 -17 q 28 196 28 93 q 95 356 28 304 q 283 408 163 408 l 458 408 q 433 483 454 454 q 356 511 413 511 q 299 494 321 511 q 261 456 276 478 l 43 525 q 116 624 72 582 q 219 688 160 665 q 350 711 278 711 q 540 671 461 711 q 661 558 619 631 q 703 390 703 486 l 703 0 l 468 0 l 465 61 q 388 3 435 22 q 283 -17 342 -17 m 349 158 q 408 171 383 158 q 447 207 433 183 q 461 261 461 231 l 461 265 l 382 265 q 307 249 333 265 q 281 201 281 232 q 299 169 281 181 q 349 158 317 158 m 538 790 q 452 827 489 790 q 415 913 415 864 q 452 998 415 961 q 538 1035 489 1035 q 623 998 586 1035 q 660 913 660 961 q 623 827 660 864 q 538 790 586 790 m 163 790 q 76 826 113 790 q 40 913 40 863 q 76 999 40 963 q 163 1035 113 1035 q 249 999 213 1035 q 285 913 285 963 q 249 826 285 863 q 163 790 213 790 z "},"à":{"ha":758,"x_min":28,"x_max":703,"o":"m 283 -17 q 95 38 163 -17 q 28 196 28 93 q 95 356 28 304 q 283 408 163 408 l 458 408 q 433 483 454 454 q 356 511 413 511 q 299 494 321 511 q 261 456 276 478 l 43 525 q 116 624 72 582 q 219 688 160 665 q 350 711 278 711 q 540 671 461 711 q 661 558 619 631 q 703 390 703 486 l 703 0 l 468 0 l 465 61 q 388 3 435 22 q 283 -17 342 -17 m 349 158 q 408 171 383 158 q 447 207 433 183 q 461 261 461 231 l 461 265 l 382 265 q 307 249 333 265 q 281 201 281 232 q 299 169 281 181 q 349 158 317 158 m 269 769 l 86 974 l 350 974 l 506 769 l 269 769 z "},"ā":{"ha":758,"x_min":28,"x_max":703,"o":"m 283 -17 q 95 38 163 -17 q 28 196 28 93 q 95 356 28 304 q 283 408 163 408 l 458 408 q 433 483 454 454 q 356 511 413 511 q 299 494 321 511 q 261 456 276 478 l 43 525 q 116 624 72 582 q 219 688 160 665 q 350 711 278 711 q 540 671 461 711 q 661 558 619 631 q 703 390 703 486 l 703 0 l 468 0 l 465 61 q 388 3 435 22 q 283 -17 342 -17 m 349 158 q 408 171 383 158 q 447 207 433 183 q 461 261 461 231 l 461 265 l 382 265 q 307 249 333 265 q 281 201 281 232 q 299 169 281 181 q 349 158 317 158 m 114 763 l 114 972 l 586 972 l 586 763 l 114 763 z "},"ą":{"ha":758,"x_min":28,"x_max":757,"o":"m 283 -17 q 95 38 163 -17 q 28 196 28 93 q 95 356 28 304 q 283 408 163 408 l 458 408 q 433 483 454 454 q 356 511 413 511 q 299 494 321 511 q 261 456 276 478 l 43 525 q 116 624 72 582 q 219 688 160 665 q 350 711 278 711 q 540 671 461 711 q 661 558 619 631 q 703 390 703 486 l 703 0 l 468 0 l 465 61 q 388 3 435 22 q 283 -17 342 -17 m 349 158 q 408 171 383 158 q 447 207 433 183 q 461 261 461 231 l 461 265 l 382 265 q 307 249 333 265 q 281 201 281 232 q 299 169 281 181 q 349 158 317 158 m 649 -294 q 541 -275 590 -294 q 462 -217 492 -256 q 432 -122 432 -179 q 456 -49 432 -82 q 511 0 479 -17 l 703 0 q 645 -52 665 -24 q 625 -104 625 -81 q 632 -124 625 -115 q 650 -132 639 -132 q 669 -129 661 -132 q 685 -122 678 -126 l 757 -272 q 710 -290 736 -285 q 649 -294 683 -294 z "},"å":{"ha":758,"x_min":28,"x_max":703,"o":"m 283 -17 q 95 38 163 -17 q 28 196 28 93 q 95 356 28 304 q 283 408 163 408 l 458 408 q 433 483 454 454 q 356 511 413 511 q 299 494 321 511 q 261 456 276 478 l 43 525 q 116 624 72 582 q 219 688 160 665 q 350 711 278 711 q 540 671 461 711 q 661 558 619 631 q 703 390 703 486 l 703 0 l 468 0 l 465 61 q 388 3 435 22 q 283 -17 342 -17 m 349 158 q 408 171 383 158 q 447 207 433 183 q 461 261 461 231 l 461 265 l 382 265 q 307 249 333 265 q 281 201 281 232 q 299 169 281 181 q 349 158 317 158 m 350 722 q 255 747 299 722 q 185 811 211 771 q 158 901 158 851 q 185 993 158 953 q 255 1058 211 1033 q 350 1082 299 1082 q 444 1058 401 1082 q 514 993 488 1033 q 540 901 540 953 q 514 811 540 851 q 444 747 488 771 q 350 722 401 722 m 350 856 q 394 901 394 856 q 350 949 394 949 q 304 901 304 949 q 350 856 304 856 z "},"ã":{"ha":758,"x_min":28,"x_max":703,"o":"m 283 -17 q 95 38 163 -17 q 28 196 28 93 q 95 356 28 304 q 283 408 163 408 l 458 408 q 433 483 454 454 q 356 511 413 511 q 299 494 321 511 q 261 456 276 478 l 43 525 q 116 624 72 582 q 219 688 160 665 q 350 711 278 711 q 540 671 461 711 q 661 558 619 631 q 703 390 703 486 l 703 0 l 468 0 l 465 61 q 388 3 435 22 q 283 -17 342 -17 m 349 158 q 408 171 383 158 q 447 207 433 183 q 461 261 461 231 l 461 265 l 382 265 q 307 249 333 265 q 281 201 281 232 q 299 169 281 181 q 349 158 317 158 m 463 742 q 381 757 410 742 q 338 792 353 772 q 308 826 322 811 q 271 842 294 842 q 249 833 261 842 q 228 788 236 824 l 74 788 q 105 906 82 861 q 167 969 128 950 q 263 989 207 989 q 351 974 319 989 q 399 939 382 958 q 428 904 415 919 q 461 889 440 889 q 488 905 481 889 q 497 943 494 921 l 651 943 q 595 794 639 846 q 463 742 551 742 z "},"æ":{"ha":1211,"x_min":28,"x_max":1197,"o":"m 468 222 l 461 340 q 453 428 458 389 q 424 489 447 467 q 344 511 400 511 q 293 498 314 511 q 250 456 272 485 l 29 525 q 157 661 78 611 q 350 711 236 711 q 569 623 490 711 q 647 390 647 535 l 647 222 l 468 222 m 283 -17 q 95 38 163 -17 q 28 196 28 93 q 95 356 28 304 q 283 408 163 408 l 488 408 l 488 265 l 379 265 q 304 249 331 265 q 278 201 278 232 q 295 169 278 181 q 343 158 313 158 q 424 189 394 158 q 454 271 454 219 l 649 297 q 552 65 649 146 q 283 -17 456 -17 m 839 -17 q 639 29 726 -17 q 502 157 551 75 q 453 347 453 239 q 501 538 453 456 q 636 665 550 619 q 835 711 722 711 q 1023 665 942 711 q 1151 524 1104 618 q 1197 285 1197 429 l 711 285 q 749 203 718 233 q 832 174 781 174 q 912 195 878 174 q 954 249 946 217 l 1174 181 q 1094 65 1149 108 q 972 2 1039 21 q 839 -17 904 -17 m 713 438 l 943 438 q 918 499 936 476 q 876 530 900 521 q 828 539 853 539 q 779 530 803 539 q 738 499 756 521 q 713 438 719 476 z "},"b":{"ha":840,"x_min":63,"x_max":813,"o":"m 499 -17 q 388 8 435 -17 q 308 79 340 32 l 300 0 l 63 0 l 63 972 l 313 972 l 313 622 q 390 689 344 667 q 499 711 436 711 q 667 668 597 711 q 775 544 738 625 q 813 347 813 463 q 775 151 813 233 q 667 26 738 69 q 499 -17 597 -17 m 432 214 q 493 231 467 214 q 535 278 519 249 q 551 347 551 308 q 536 416 551 386 q 494 463 521 446 q 433 479 468 479 q 371 463 399 479 q 328 416 343 446 q 313 347 313 386 q 328 278 313 308 q 370 231 343 249 q 432 214 397 214 z "},"c":{"ha":764,"x_min":28,"x_max":750,"o":"m 419 -17 q 217 30 306 -17 q 78 159 128 76 q 28 347 28 242 q 78 536 28 454 q 215 665 128 618 q 417 711 303 711 q 618 654 526 711 q 749 489 710 597 l 510 411 q 469 457 499 439 q 403 475 439 475 q 342 459 368 475 q 300 414 315 443 q 285 347 285 385 q 300 281 285 310 q 343 236 315 253 q 406 219 371 219 q 469 238 440 219 q 511 283 499 256 l 750 207 q 620 41 711 99 q 419 -17 529 -17 z "},"ć":{"ha":764,"x_min":28,"x_max":750,"o":"m 419 -17 q 217 30 306 -17 q 78 159 128 76 q 28 347 28 242 q 78 536 28 454 q 215 665 128 618 q 417 711 303 711 q 618 654 526 711 q 749 489 710 597 l 510 411 q 469 457 499 439 q 403 475 439 475 q 342 459 368 475 q 300 414 315 443 q 285 347 285 385 q 300 281 285 310 q 343 236 315 253 q 406 219 371 219 q 469 238 440 219 q 511 283 499 256 l 750 207 q 620 41 711 99 q 419 -17 529 -17 m 279 769 l 432 972 l 696 972 l 515 769 l 279 769 z "},"č":{"ha":764,"x_min":28,"x_max":750,"o":"m 419 -17 q 217 30 306 -17 q 78 159 128 76 q 28 347 28 242 q 78 536 28 454 q 215 665 128 618 q 417 711 303 711 q 618 654 526 711 q 749 489 710 597 l 510 411 q 469 457 499 439 q 403 475 439 475 q 342 459 368 475 q 300 414 315 443 q 285 347 285 385 q 300 281 285 310 q 343 236 315 253 q 406 219 371 219 q 469 238 440 219 q 511 283 499 256 l 750 207 q 620 41 711 99 q 419 -17 529 -17 m 306 769 l 306 776 l 496 972 l 704 972 l 528 769 l 306 769 m 290 769 l 114 972 l 322 972 l 513 776 l 513 769 l 290 769 z "},"ç":{"ha":764,"x_min":28,"x_max":750,"o":"m 419 -17 q 217 30 306 -17 q 78 159 128 76 q 28 347 28 242 q 78 536 28 454 q 215 665 128 618 q 417 711 303 711 q 618 654 526 711 q 749 489 710 597 l 510 411 q 469 457 499 439 q 403 475 439 475 q 342 459 368 475 q 300 414 315 443 q 285 347 285 385 q 300 281 285 310 q 343 236 315 253 q 406 219 371 219 q 469 238 440 219 q 511 283 499 256 l 750 207 q 620 41 711 99 q 419 -17 529 -17 m 344 -293 q 276 -281 311 -293 q 211 -250 240 -269 l 240 -144 q 277 -159 260 -154 q 306 -164 294 -164 q 343 -157 329 -164 q 357 -137 357 -150 q 337 -108 357 -118 q 281 -97 317 -97 l 322 7 l 457 7 l 436 -37 q 510 -83 483 -53 q 536 -151 536 -114 q 485 -256 536 -218 q 344 -293 435 -293 z "},"ĉ":{"ha":764,"x_min":28,"x_max":750,"o":"m 419 -17 q 217 30 306 -17 q 78 159 128 76 q 28 347 28 242 q 78 536 28 454 q 215 665 128 618 q 417 711 303 711 q 618 654 526 711 q 749 489 710 597 l 510 411 q 469 457 499 439 q 403 475 439 475 q 342 459 368 475 q 300 414 315 443 q 285 347 285 385 q 300 281 285 310 q 343 236 315 253 q 406 219 371 219 q 469 238 440 219 q 511 283 499 256 l 750 207 q 620 41 711 99 q 419 -17 529 -17 m 496 785 l 292 971 l 292 989 l 528 989 l 704 785 l 496 785 m 114 785 l 290 989 l 526 989 l 526 971 l 322 785 l 114 785 z "},"ċ":{"ha":764,"x_min":28,"x_max":750,"o":"m 419 -17 q 217 30 306 -17 q 78 159 128 76 q 28 347 28 242 q 78 536 28 454 q 215 665 128 618 q 417 711 303 711 q 618 654 526 711 q 749 489 710 597 l 510 411 q 469 457 499 439 q 403 475 439 475 q 342 459 368 475 q 300 414 315 443 q 285 347 285 385 q 300 281 285 310 q 343 236 315 253 q 406 219 371 219 q 469 238 440 219 q 511 283 499 256 l 750 207 q 620 41 711 99 q 419 -17 529 -17 m 417 761 q 319 803 361 761 q 278 900 278 844 q 319 998 278 957 q 417 1039 361 1039 q 515 998 474 1039 q 556 900 556 957 q 515 803 556 844 q 417 761 474 761 z "},"d":{"ha":839,"x_min":28,"x_max":776,"o":"m 342 -17 q 173 26 243 -17 q 65 151 103 69 q 28 347 28 233 q 65 544 28 463 q 173 668 103 625 q 342 711 243 711 q 449 689 403 711 q 526 624 496 667 l 526 972 l 776 972 l 776 0 l 539 0 l 532 78 q 453 8 501 32 q 342 -17 406 -17 m 408 214 q 465 228 440 214 q 506 267 490 242 q 526 325 522 293 l 526 369 q 506 426 522 401 q 465 465 490 451 q 407 479 439 479 q 347 463 374 479 q 304 416 319 446 q 289 347 289 386 q 305 278 289 308 q 348 231 321 249 q 408 214 375 214 z "},"ď":{"ha":839,"x_min":28,"x_max":1039,"o":"m 342 -17 q 173 26 243 -17 q 65 151 103 69 q 28 347 28 233 q 65 544 28 463 q 173 668 103 625 q 342 711 243 711 q 449 689 403 711 q 526 624 496 667 l 526 972 l 776 972 l 776 0 l 539 0 l 532 78 q 453 8 501 32 q 342 -17 406 -17 m 408 214 q 465 228 440 214 q 506 267 490 242 q 526 325 522 293 l 526 369 q 506 426 522 401 q 465 465 490 451 q 407 479 439 479 q 347 463 374 479 q 304 416 319 446 q 289 347 289 386 q 305 278 289 308 q 348 231 321 249 q 408 214 375 214 m 799 767 l 831 972 l 1039 972 l 979 767 l 799 767 z "},"đ":{"ha":839,"x_min":28,"x_max":853,"o":"m 361 757 l 361 903 l 853 903 l 853 757 l 361 757 m 342 -17 q 173 26 243 -17 q 65 151 103 69 q 28 347 28 233 q 65 544 28 463 q 173 668 103 625 q 342 711 243 711 q 449 689 403 711 q 526 624 496 667 l 526 972 l 776 972 l 776 0 l 539 0 l 532 78 q 453 8 501 32 q 342 -17 406 -17 m 408 214 q 465 228 440 214 q 506 267 490 242 q 526 325 522 293 l 526 369 q 506 426 522 401 q 465 465 490 451 q 407 479 439 479 q 347 463 374 479 q 304 416 319 446 q 289 347 289 386 q 305 278 289 308 q 348 231 321 249 q 408 214 375 214 z "},"ð":{"ha":778,"x_min":28,"x_max":738,"o":"m 382 -17 q 198 24 278 -17 q 73 135 118 64 q 28 300 28 207 q 67 464 28 393 q 178 576 106 535 q 347 617 250 617 q 489 579 417 617 q 466 647 482 615 q 424 704 450 679 l 318 629 l 260 713 l 331 764 q 174 814 268 792 l 218 1015 q 392 972 317 1001 q 524 901 468 942 l 636 982 l 697 899 l 601 831 q 690 681 660 764 q 728 507 719 597 q 735 328 738 417 q 690 150 735 228 q 565 28 644 72 q 382 -17 485 -17 m 382 208 q 432 220 411 208 q 465 253 453 232 q 476 300 476 274 q 465 347 476 326 q 431 378 453 367 q 379 390 408 390 q 331 378 353 390 q 298 347 310 367 q 286 300 286 326 q 298 253 286 274 q 331 220 310 232 q 382 208 353 208 z "},"e":{"ha":786,"x_min":28,"x_max":772,"o":"m 414 -17 q 214 29 301 -17 q 77 157 126 75 q 28 347 28 239 q 76 538 28 456 q 211 665 125 619 q 410 711 297 711 q 598 665 517 711 q 726 524 679 618 q 772 285 772 429 l 286 285 q 324 203 293 233 q 407 174 356 174 q 487 195 453 174 q 529 249 521 217 l 749 181 q 669 65 724 108 q 547 2 614 21 q 414 -17 479 -17 m 288 438 l 518 438 q 493 499 511 476 q 451 530 475 521 q 403 539 428 539 q 354 530 378 539 q 313 499 331 521 q 288 438 294 476 z "},"é":{"ha":786,"x_min":28,"x_max":772,"o":"m 414 -17 q 214 29 301 -17 q 77 157 126 75 q 28 347 28 239 q 76 538 28 456 q 211 665 125 619 q 410 711 297 711 q 598 665 517 711 q 726 524 679 618 q 772 285 772 429 l 286 285 q 324 203 293 233 q 407 174 356 174 q 487 195 453 174 q 529 249 521 217 l 749 181 q 669 65 724 108 q 547 2 614 21 q 414 -17 479 -17 m 288 438 l 518 438 q 493 499 511 476 q 451 530 475 521 q 403 539 428 539 q 354 530 378 539 q 313 499 331 521 q 288 438 294 476 m 272 769 l 425 972 l 689 972 l 508 769 l 272 769 z "},"ě":{"ha":786,"x_min":28,"x_max":772,"o":"m 414 -17 q 214 29 301 -17 q 77 157 126 75 q 28 347 28 239 q 76 538 28 456 q 211 665 125 619 q 410 711 297 711 q 598 665 517 711 q 726 524 679 618 q 772 285 772 429 l 286 285 q 324 203 293 233 q 407 174 356 174 q 487 195 453 174 q 529 249 521 217 l 749 181 q 669 65 724 108 q 547 2 614 21 q 414 -17 479 -17 m 288 438 l 518 438 q 493 499 511 476 q 451 530 475 521 q 403 539 428 539 q 354 530 378 539 q 313 499 331 521 q 288 438 294 476 m 299 769 l 299 776 l 489 972 l 697 972 l 521 769 l 299 769 m 283 769 l 107 972 l 315 972 l 506 776 l 506 769 l 283 769 z "},"ê":{"ha":786,"x_min":28,"x_max":772,"o":"m 414 -17 q 214 29 301 -17 q 77 157 126 75 q 28 347 28 239 q 76 538 28 456 q 211 665 125 619 q 410 711 297 711 q 598 665 517 711 q 726 524 679 618 q 772 285 772 429 l 286 285 q 324 203 293 233 q 407 174 356 174 q 487 195 453 174 q 529 249 521 217 l 749 181 q 669 65 724 108 q 547 2 614 21 q 414 -17 479 -17 m 288 438 l 518 438 q 493 499 511 476 q 451 530 475 521 q 403 539 428 539 q 354 530 378 539 q 313 499 331 521 q 288 438 294 476 m 489 785 l 285 971 l 285 989 l 521 989 l 697 785 l 489 785 m 107 785 l 283 989 l 519 989 l 519 971 l 315 785 l 107 785 z "},"ë":{"ha":786,"x_min":28,"x_max":772,"o":"m 414 -17 q 214 29 301 -17 q 77 157 126 75 q 28 347 28 239 q 76 538 28 456 q 211 665 125 619 q 410 711 297 711 q 598 665 517 711 q 726 524 679 618 q 772 285 772 429 l 286 285 q 324 203 293 233 q 407 174 356 174 q 487 195 453 174 q 529 249 521 217 l 749 181 q 669 65 724 108 q 547 2 614 21 q 414 -17 479 -17 m 288 438 l 518 438 q 493 499 511 476 q 451 530 475 521 q 403 539 428 539 q 354 530 378 539 q 313 499 331 521 q 288 438 294 476 m 597 790 q 512 827 549 790 q 475 913 475 864 q 512 998 475 961 q 597 1035 549 1035 q 683 998 646 1035 q 719 913 719 961 q 683 827 719 864 q 597 790 646 790 m 222 790 q 136 826 172 790 q 100 913 100 863 q 136 999 100 963 q 222 1035 172 1035 q 308 999 272 1035 q 344 913 344 963 q 308 826 344 863 q 222 790 272 790 z "},"ė":{"ha":786,"x_min":28,"x_max":772,"o":"m 414 -17 q 214 29 301 -17 q 77 157 126 75 q 28 347 28 239 q 76 538 28 456 q 211 665 125 619 q 410 711 297 711 q 598 665 517 711 q 726 524 679 618 q 772 285 772 429 l 286 285 q 324 203 293 233 q 407 174 356 174 q 487 195 453 174 q 529 249 521 217 l 749 181 q 669 65 724 108 q 547 2 614 21 q 414 -17 479 -17 m 288 438 l 518 438 q 493 499 511 476 q 451 530 475 521 q 403 539 428 539 q 354 530 378 539 q 313 499 331 521 q 288 438 294 476 m 410 761 q 313 803 354 761 q 271 900 271 844 q 313 998 271 957 q 410 1039 354 1039 q 508 998 467 1039 q 549 900 549 957 q 508 803 549 844 q 410 761 467 761 z "},"è":{"ha":786,"x_min":28,"x_max":772,"o":"m 414 -17 q 214 29 301 -17 q 77 157 126 75 q 28 347 28 239 q 76 538 28 456 q 211 665 125 619 q 410 711 297 711 q 598 665 517 711 q 726 524 679 618 q 772 285 772 429 l 286 285 q 324 203 293 233 q 407 174 356 174 q 487 195 453 174 q 529 249 521 217 l 749 181 q 669 65 724 108 q 547 2 614 21 q 414 -17 479 -17 m 288 438 l 518 438 q 493 499 511 476 q 451 530 475 521 q 403 539 428 539 q 354 530 378 539 q 313 499 331 521 q 288 438 294 476 m 329 769 l 146 974 l 410 974 l 565 769 l 329 769 z "},"ē":{"ha":786,"x_min":28,"x_max":772,"o":"m 414 -17 q 214 29 301 -17 q 77 157 126 75 q 28 347 28 239 q 76 538 28 456 q 211 665 125 619 q 410 711 297 711 q 598 665 517 711 q 726 524 679 618 q 772 285 772 429 l 286 285 q 324 203 293 233 q 407 174 356 174 q 487 195 453 174 q 529 249 521 217 l 749 181 q 669 65 724 108 q 547 2 614 21 q 414 -17 479 -17 m 288 438 l 518 438 q 493 499 511 476 q 451 530 475 521 q 403 539 428 539 q 354 530 378 539 q 313 499 331 521 q 288 438 294 476 m 174 763 l 174 972 l 646 972 l 646 763 l 174 763 z "},"ę":{"ha":786,"x_min":28,"x_max":772,"o":"m 414 -17 q 214 29 301 -17 q 77 157 126 75 q 28 347 28 239 q 76 538 28 456 q 211 665 125 619 q 410 711 297 711 q 598 665 517 711 q 726 524 679 618 q 772 285 772 429 l 286 285 q 324 203 293 233 q 407 174 356 174 q 487 195 453 174 q 529 249 521 217 l 749 181 q 669 65 724 108 q 547 2 614 21 q 414 -17 479 -17 m 288 438 l 518 438 q 493 499 511 476 q 451 530 475 521 q 403 539 428 539 q 354 530 378 539 q 313 499 331 521 q 288 438 294 476 m 661 -294 q 540 -278 596 -294 q 450 -228 483 -261 q 417 -144 417 -194 q 448 -57 417 -94 q 532 13 479 -19 q 647 83 585 46 l 689 83 q 626 10 646 40 q 602 -42 607 -19 q 597 -87 597 -65 q 610 -121 597 -108 q 644 -133 622 -133 q 674 -131 663 -133 q 697 -124 686 -128 l 769 -272 q 722 -290 749 -285 q 661 -294 696 -294 z "},"f":{"ha":576,"x_min":28,"x_max":583,"o":"m 132 0 l 132 500 l 28 500 l 28 694 l 132 694 l 132 754 q 194 938 132 869 q 386 1006 257 1006 q 494 988 439 1006 q 583 949 549 971 l 490 775 q 463 790 478 786 q 435 794 449 794 q 394 774 407 794 q 382 704 382 754 l 382 694 l 525 694 l 525 500 l 382 500 l 382 0 l 132 0 z "},"g":{"ha":853,"x_min":28,"x_max":790,"o":"m 406 -297 q 249 -287 315 -297 q 138 -259 183 -278 q 58 -214 92 -240 l 157 -15 q 209 -41 179 -26 q 283 -67 239 -56 q 393 -78 328 -78 q 469 -61 436 -78 q 522 -11 503 -44 q 540 72 540 22 l 540 133 q 458 60 508 86 q 342 33 407 33 q 173 72 243 33 q 65 181 103 110 q 28 353 28 253 q 65 545 28 465 q 173 668 103 625 q 342 711 243 711 q 458 681 407 711 q 540 594 508 651 l 540 694 l 790 694 l 790 83 q 747 -118 790 -32 q 617 -251 703 -204 q 406 -297 532 -297 m 418 240 q 477 256 453 240 q 515 300 501 272 q 528 363 528 328 q 514 428 528 400 q 476 471 500 456 q 417 486 451 486 q 358 471 383 486 q 319 428 333 456 q 304 363 306 400 q 319 300 306 328 q 359 256 333 272 q 418 240 385 240 z "},"ğ":{"ha":853,"x_min":28,"x_max":790,"o":"m 406 -297 q 249 -287 315 -297 q 138 -259 183 -278 q 58 -214 92 -240 l 157 -15 q 209 -41 179 -26 q 283 -67 239 -56 q 393 -78 328 -78 q 469 -61 436 -78 q 522 -11 503 -44 q 540 72 540 22 l 540 133 q 458 60 508 86 q 342 33 407 33 q 173 72 243 33 q 65 181 103 110 q 28 353 28 253 q 65 545 28 465 q 173 668 103 625 q 342 711 243 711 q 458 681 407 711 q 540 594 508 651 l 540 694 l 790 694 l 790 83 q 747 -118 790 -32 q 617 -251 703 -204 q 406 -297 532 -297 m 418 240 q 477 256 453 240 q 515 300 501 272 q 528 363 528 328 q 514 428 528 400 q 476 471 500 456 q 417 486 451 486 q 358 471 383 486 q 319 428 333 456 q 304 363 306 400 q 319 300 306 328 q 359 256 333 272 q 418 240 385 240 m 425 753 q 279 781 343 753 q 179 858 215 808 q 143 972 143 908 l 371 972 q 386 933 371 949 q 425 918 401 918 q 463 933 449 918 q 478 972 478 949 l 706 972 q 669 858 706 908 q 570 781 633 808 q 425 753 507 753 z "},"ĝ":{"ha":853,"x_min":28,"x_max":790,"o":"m 406 -297 q 249 -287 315 -297 q 138 -259 183 -278 q 58 -214 92 -240 l 157 -15 q 209 -41 179 -26 q 283 -67 239 -56 q 393 -78 328 -78 q 469 -61 436 -78 q 522 -11 503 -44 q 540 72 540 22 l 540 133 q 458 60 508 86 q 342 33 407 33 q 173 72 243 33 q 65 181 103 110 q 28 353 28 253 q 65 545 28 465 q 173 668 103 625 q 342 711 243 711 q 458 681 407 711 q 540 594 508 651 l 540 694 l 790 694 l 790 83 q 747 -118 790 -32 q 617 -251 703 -204 q 406 -297 532 -297 m 418 240 q 477 256 453 240 q 515 300 501 272 q 528 363 528 328 q 514 428 528 400 q 476 471 500 456 q 417 486 451 486 q 358 471 383 486 q 319 428 333 456 q 304 363 306 400 q 319 300 306 328 q 359 256 333 272 q 418 240 385 240 m 503 785 l 299 971 l 299 989 l 535 989 l 711 785 l 503 785 m 121 785 l 297 989 l 533 989 l 533 971 l 329 785 l 121 785 z "},"ģ":{"ha":853,"x_min":28,"x_max":790,"o":"m 406 -297 q 249 -287 315 -297 q 138 -259 183 -278 q 58 -214 92 -240 l 157 -15 q 209 -41 179 -26 q 283 -67 239 -56 q 393 -78 328 -78 q 469 -61 436 -78 q 522 -11 503 -44 q 540 72 540 22 l 540 133 q 458 60 508 86 q 342 33 407 33 q 173 72 243 33 q 65 181 103 110 q 28 353 28 253 q 65 545 28 465 q 173 668 103 625 q 342 711 243 711 q 458 681 407 711 q 540 594 508 651 l 540 694 l 790 694 l 790 83 q 747 -118 790 -32 q 617 -251 703 -204 q 406 -297 532 -297 m 418 240 q 477 256 453 240 q 515 300 501 272 q 528 363 528 328 q 514 428 528 400 q 476 471 500 456 q 417 486 451 486 q 358 471 383 486 q 319 428 333 456 q 304 363 306 400 q 319 300 306 328 q 359 256 333 272 q 418 240 385 240 m 622 990 l 531 783 l 281 783 l 442 990 l 622 990 z "},"ġ":{"ha":853,"x_min":28,"x_max":790,"o":"m 406 -297 q 249 -287 315 -297 q 138 -259 183 -278 q 58 -214 92 -240 l 157 -15 q 209 -41 179 -26 q 283 -67 239 -56 q 393 -78 328 -78 q 469 -61 436 -78 q 522 -11 503 -44 q 540 72 540 22 l 540 133 q 458 60 508 86 q 342 33 407 33 q 173 72 243 33 q 65 181 103 110 q 28 353 28 253 q 65 545 28 465 q 173 668 103 625 q 342 711 243 711 q 458 681 407 711 q 540 594 508 651 l 540 694 l 790 694 l 790 83 q 747 -118 790 -32 q 617 -251 703 -204 q 406 -297 532 -297 m 418 240 q 477 256 453 240 q 515 300 501 272 q 528 363 528 328 q 514 428 528 400 q 476 471 500 456 q 417 486 451 486 q 358 471 383 486 q 319 428 333 456 q 304 363 306 400 q 319 300 306 328 q 359 256 333 272 q 418 240 385 240 m 424 761 q 326 803 368 761 q 285 900 285 844 q 326 998 285 957 q 424 1039 368 1039 q 522 998 481 1039 q 563 900 563 957 q 522 803 563 844 q 424 761 481 761 z "},"h":{"ha":806,"x_min":65,"x_max":750,"o":"m 65 0 l 65 972 l 315 972 l 315 617 q 397 688 350 664 q 500 711 444 711 q 640 677 585 711 q 723 574 696 643 q 750 397 750 504 l 750 0 l 500 0 l 500 356 q 491 422 500 396 q 465 461 482 447 q 421 476 447 475 q 342 453 368 479 q 315 369 315 426 l 315 0 l 65 0 z "},"ħ":{"ha":806,"x_min":0,"x_max":750,"o":"m 0 757 l 0 903 l 492 903 l 492 757 l 0 757 m 65 0 l 65 972 l 315 972 l 315 617 q 397 688 350 664 q 500 711 444 711 q 640 677 585 711 q 723 574 696 643 q 750 397 750 504 l 750 0 l 500 0 l 500 356 q 491 422 500 396 q 465 461 482 447 q 421 476 447 475 q 342 453 368 479 q 315 369 315 426 l 315 0 l 65 0 z "},"ĥ":{"ha":806,"x_min":-115,"x_max":750,"o":"m 65 0 l 65 972 l 315 972 l 315 617 q 397 688 350 664 q 500 711 444 711 q 640 677 585 711 q 723 574 696 643 q 750 397 750 504 l 750 0 l 500 0 l 500 356 q 491 422 500 396 q 465 461 482 447 q 421 476 447 475 q 342 453 368 479 q 315 369 315 426 l 315 0 l 65 0 m 267 1063 l 63 1249 l 63 1267 l 299 1267 l 475 1063 l 267 1063 m -115 1063 l 61 1267 l 297 1267 l 297 1249 l 93 1063 l -115 1063 z "},"i":{"ha":403,"x_min":63,"x_max":340,"o":"m 76 0 l 76 694 l 326 694 l 326 0 l 76 0 m 201 761 q 104 803 146 761 q 63 900 63 844 q 104 998 63 957 q 201 1039 146 1039 q 299 998 258 1039 q 340 900 340 957 q 299 803 340 844 q 201 761 258 761 z "},"ı":{"ha":403,"x_min":76,"x_max":326,"o":"m 76 0 l 76 694 l 326 694 l 326 0 l 76 0 z "},"í":{"ha":403,"x_min":64,"x_max":481,"o":"m 76 0 l 76 694 l 326 694 l 326 0 l 76 0 m 64 769 l 217 972 l 481 972 l 300 769 l 64 769 z "},"î":{"ha":403,"x_min":-101,"x_max":489,"o":"m 76 0 l 76 694 l 326 694 l 326 0 l 76 0 m 281 785 l 76 971 l 76 989 l 313 989 l 489 785 l 281 785 m -101 785 l 75 989 l 311 989 l 311 971 l 107 785 l -101 785 z "},"ï":{"ha":403,"x_min":-60,"x_max":463,"o":"m 340 790 q 255 827 292 790 q 218 913 218 864 q 255 998 218 961 q 340 1035 292 1035 q 426 998 389 1035 q 463 913 463 961 q 426 827 463 864 q 340 790 389 790 m 63 790 q -24 826 13 790 q -60 913 -60 863 q -24 999 -60 963 q 63 1035 13 1035 q 149 999 113 1035 q 185 913 185 963 q 149 826 185 863 q 63 790 113 790 m 76 0 l 76 694 l 326 694 l 326 0 l 76 0 z "},"ì":{"ha":403,"x_min":-62,"x_max":357,"o":"m 76 0 l 76 694 l 326 694 l 326 0 l 76 0 m 121 769 l -62 974 l 201 974 l 357 769 l 121 769 z "},"ī":{"ha":403,"x_min":-7,"x_max":410,"o":"m 76 0 l 76 694 l 326 694 l 326 0 l 76 0 m -7 763 l -7 972 l 410 972 l 410 763 l -7 763 z "},"į":{"ha":403,"x_min":56,"x_max":381,"o":"m 76 0 l 76 694 l 326 694 l 326 0 l 76 0 m 201 761 q 104 803 146 761 q 63 900 63 844 q 104 998 63 957 q 201 1039 146 1039 q 299 998 258 1039 q 340 900 340 957 q 299 803 340 844 q 201 761 258 761 m 272 -294 q 165 -275 214 -294 q 85 -217 115 -256 q 56 -122 56 -179 q 79 -49 56 -82 q 135 0 103 -17 l 326 0 q 269 -52 289 -24 q 249 -104 249 -81 q 256 -124 249 -115 q 274 -132 263 -132 q 293 -129 285 -132 q 308 -122 301 -126 l 381 -272 q 333 -290 360 -285 q 272 -294 307 -294 z "},"ĳ":{"ha":835,"x_min":63,"x_max":772,"o":"m 76 0 l 76 694 l 326 694 l 326 0 l 76 0 m 201 761 q 104 803 146 761 q 63 900 63 844 q 104 998 63 957 q 201 1039 146 1039 q 299 998 258 1039 q 340 900 340 957 q 299 803 340 844 q 201 761 258 761 m 629 753 q 528 795 571 753 q 486 896 486 838 q 528 997 486 954 q 629 1039 571 1039 q 730 997 688 1039 q 772 896 772 954 q 730 795 772 838 q 629 753 688 753 m 475 -299 q 306 -250 372 -299 l 408 -43 q 435 -59 421 -53 q 464 -65 450 -65 q 504 -10 504 -65 l 504 694 l 754 694 l 754 -29 q 681 -227 754 -156 q 475 -299 607 -299 z "},"j":{"ha":432,"x_min":-97,"x_max":369,"o":"m 226 753 q 126 795 168 753 q 83 896 83 838 q 126 997 83 954 q 226 1039 168 1039 q 327 997 285 1039 q 369 896 369 954 q 327 795 369 838 q 226 753 285 753 m 72 -299 q -97 -250 -31 -299 l 6 -43 q 33 -59 18 -53 q 61 -65 47 -65 q 101 -10 101 -65 l 101 694 l 351 694 l 351 -29 q 278 -227 351 -156 q 72 -299 204 -299 z "},"ȷ":{"ha":414,"x_min":-97,"x_max":351,"o":"m 72 -299 q -97 -250 -31 -299 l 6 -43 q 33 -59 18 -53 q 61 -65 47 -65 q 101 -10 101 -65 l 101 694 l 351 694 l 351 -29 q 278 -227 351 -156 q 72 -299 204 -299 z "},"ĵ":{"ha":414,"x_min":-97,"x_max":514,"o":"m 72 -299 q -97 -250 -31 -299 l 6 -43 q 33 -59 18 -53 q 61 -65 47 -65 q 101 -10 101 -65 l 101 694 l 351 694 l 351 -29 q 278 -227 351 -156 q 72 -299 204 -299 m 306 785 l 101 971 l 101 989 l 338 989 l 514 785 l 306 785 m -76 785 l 100 989 l 336 989 l 336 971 l 132 785 l -76 785 z "},"k":{"ha":814,"x_min":63,"x_max":800,"o":"m 63 0 l 63 972 l 313 972 l 313 488 l 494 694 l 786 694 l 521 388 l 800 0 l 513 0 l 364 207 l 313 149 l 313 0 l 63 0 z "},"ķ":{"ha":814,"x_min":63,"x_max":800,"o":"m 63 0 l 63 972 l 313 972 l 313 488 l 494 694 l 786 694 l 521 388 l 800 0 l 513 0 l 364 207 l 313 149 l 313 0 l 63 0 m 233 -278 l 297 -56 l 531 -56 l 414 -278 l 233 -278 z "},"l":{"ha":375,"x_min":63,"x_max":313,"o":"m 63 0 l 63 972 l 313 972 l 313 0 l 63 0 z "},"ĺ":{"ha":375,"x_min":50,"x_max":467,"o":"m 63 0 l 63 972 l 313 972 l 313 0 l 63 0 m 50 1047 l 203 1250 l 467 1250 l 286 1047 l 50 1047 z "},"ľ":{"ha":375,"x_min":63,"x_max":576,"o":"m 63 0 l 63 972 l 313 972 l 313 0 l 63 0 m 336 767 l 368 972 l 576 972 l 517 767 l 336 767 z "},"ļ":{"ha":375,"x_min":22,"x_max":319,"o":"m 63 0 l 63 972 l 313 972 l 313 0 l 63 0 m 22 -278 l 86 -56 l 319 -56 l 203 -278 l 22 -278 z "},"ł":{"ha":403,"x_min":0,"x_max":403,"o":"m 0 283 l 0 475 l 403 689 l 403 497 l 0 283 m 76 0 l 76 972 l 326 972 l 326 0 l 76 0 z "},"m":{"ha":1238,"x_min":63,"x_max":1182,"o":"m 63 0 l 63 694 l 299 694 l 308 610 q 390 685 342 660 q 497 711 439 711 q 639 677 583 711 q 721 572 694 643 q 809 676 754 640 q 932 711 864 711 q 1121 635 1060 711 q 1182 397 1182 558 l 1182 0 l 932 0 l 932 356 q 923 422 932 396 q 897 461 914 447 q 853 476 879 475 q 774 453 800 479 q 747 369 747 426 l 747 0 l 497 0 l 497 356 q 488 422 497 396 q 462 461 479 447 q 418 476 444 475 q 339 453 365 479 q 313 369 313 426 l 313 0 l 63 0 z "},"n":{"ha":803,"x_min":63,"x_max":747,"o":"m 63 0 l 63 694 l 299 694 l 308 610 q 390 685 342 658 q 497 711 439 711 q 638 677 582 711 q 720 574 693 643 q 747 397 747 504 l 747 0 l 497 0 l 497 356 q 488 422 497 396 q 462 461 479 447 q 418 476 444 475 q 339 453 365 479 q 313 369 313 426 l 313 0 l 63 0 z "},"ń":{"ha":803,"x_min":63,"x_max":747,"o":"m 63 0 l 63 694 l 299 694 l 308 610 q 390 685 342 658 q 497 711 439 711 q 638 677 582 711 q 720 574 693 643 q 747 397 747 504 l 747 0 l 497 0 l 497 356 q 488 422 497 396 q 462 461 479 447 q 418 476 444 475 q 339 453 365 479 q 313 369 313 426 l 313 0 l 63 0 m 257 769 l 410 972 l 674 972 l 493 769 l 257 769 z "},"ň":{"ha":803,"x_min":63,"x_max":747,"o":"m 63 0 l 63 694 l 299 694 l 308 610 q 390 685 342 658 q 497 711 439 711 q 638 677 582 711 q 720 574 693 643 q 747 397 747 504 l 747 0 l 497 0 l 497 356 q 488 422 497 396 q 462 461 479 447 q 418 476 444 475 q 339 453 365 479 q 313 369 313 426 l 313 0 l 63 0 m 283 769 l 283 776 l 474 972 l 682 972 l 506 769 l 283 769 m 268 769 l 92 972 l 300 972 l 490 776 l 490 769 l 268 769 z "},"ņ":{"ha":803,"x_min":63,"x_max":747,"o":"m 63 0 l 63 694 l 299 694 l 308 610 q 390 685 342 658 q 497 711 439 711 q 638 677 582 711 q 720 574 693 643 q 747 397 747 504 l 747 0 l 497 0 l 497 356 q 488 422 497 396 q 462 461 479 447 q 418 476 444 475 q 339 453 365 479 q 313 369 313 426 l 313 0 l 63 0 m 229 -278 l 293 -56 l 526 -56 l 410 -278 l 229 -278 z "},"ñ":{"ha":803,"x_min":63,"x_max":747,"o":"m 63 0 l 63 694 l 299 694 l 308 610 q 390 685 342 658 q 497 711 439 711 q 638 677 582 711 q 720 574 693 643 q 747 397 747 504 l 747 0 l 497 0 l 497 356 q 488 422 497 396 q 462 461 479 447 q 418 476 444 475 q 339 453 365 479 q 313 369 313 426 l 313 0 l 63 0 m 507 742 q 426 757 454 742 q 382 792 397 772 q 353 826 367 811 q 315 842 339 842 q 293 833 306 842 q 272 788 281 824 l 118 788 q 149 906 126 861 q 212 969 172 950 q 307 989 251 989 q 395 974 364 989 q 443 939 426 958 q 472 904 460 919 q 506 889 485 889 q 532 905 525 889 q 542 943 539 921 l 696 943 q 640 794 683 846 q 507 742 596 742 z "},"ŋ":{"ha":803,"x_min":63,"x_max":747,"o":"m 468 -299 q 299 -250 365 -299 l 401 -43 q 428 -59 414 -53 q 457 -65 443 -65 q 497 -10 497 -65 l 497 356 q 488 422 497 396 q 462 461 479 447 q 418 476 444 475 q 339 453 365 479 q 313 369 313 426 l 313 0 l 63 0 l 63 694 l 299 694 l 308 610 q 390 685 342 658 q 497 711 439 711 q 638 677 582 711 q 720 574 693 643 q 747 397 747 504 l 747 -29 q 674 -227 747 -156 q 468 -299 600 -299 z "},"o":{"ha":810,"x_min":28,"x_max":782,"o":"m 407 -17 q 210 30 296 -17 q 76 158 125 76 q 28 347 28 240 q 76 536 28 454 q 209 665 124 618 q 404 711 294 711 q 601 665 515 711 q 734 536 686 618 q 782 347 782 454 q 734 158 782 240 q 601 30 686 76 q 407 -17 517 -17 m 407 214 q 468 231 442 214 q 510 278 494 249 q 525 347 525 308 q 510 416 525 386 q 467 463 494 446 q 404 481 440 481 q 342 463 369 481 q 300 416 315 446 q 285 347 285 386 q 300 278 285 308 q 343 231 315 249 q 407 214 371 214 z "},"ó":{"ha":810,"x_min":28,"x_max":782,"o":"m 407 -17 q 210 30 296 -17 q 76 158 125 76 q 28 347 28 240 q 76 536 28 454 q 209 665 124 618 q 404 711 294 711 q 601 665 515 711 q 734 536 686 618 q 782 347 782 454 q 734 158 782 240 q 601 30 686 76 q 407 -17 517 -17 m 407 214 q 468 231 442 214 q 510 278 494 249 q 525 347 525 308 q 510 416 525 386 q 467 463 494 446 q 404 481 440 481 q 342 463 369 481 q 300 416 315 446 q 285 347 285 386 q 300 278 285 308 q 343 231 315 249 q 407 214 371 214 m 260 769 l 413 972 l 676 972 l 496 769 l 260 769 z "},"ô":{"ha":810,"x_min":28,"x_max":782,"o":"m 407 -17 q 210 30 296 -17 q 76 158 125 76 q 28 347 28 240 q 76 536 28 454 q 209 665 124 618 q 404 711 294 711 q 601 665 515 711 q 734 536 686 618 q 782 347 782 454 q 734 158 782 240 q 601 30 686 76 q 407 -17 517 -17 m 407 214 q 468 231 442 214 q 510 278 494 249 q 525 347 525 308 q 510 416 525 386 q 467 463 494 446 q 404 481 440 481 q 342 463 369 481 q 300 416 315 446 q 285 347 285 386 q 300 278 285 308 q 343 231 315 249 q 407 214 371 214 m 476 785 l 272 971 l 272 989 l 508 989 l 685 785 l 476 785 m 94 785 l 271 989 l 507 989 l 507 971 l 303 785 l 94 785 z "},"ö":{"ha":810,"x_min":28,"x_max":782,"o":"m 407 -17 q 210 30 296 -17 q 76 158 125 76 q 28 347 28 240 q 76 536 28 454 q 209 665 124 618 q 404 711 294 711 q 601 665 515 711 q 734 536 686 618 q 782 347 782 454 q 734 158 782 240 q 601 30 686 76 q 407 -17 517 -17 m 407 214 q 468 231 442 214 q 510 278 494 249 q 525 347 525 308 q 510 416 525 386 q 467 463 494 446 q 404 481 440 481 q 342 463 369 481 q 300 416 315 446 q 285 347 285 386 q 300 278 285 308 q 343 231 315 249 q 407 214 371 214 m 585 790 q 499 827 536 790 q 463 913 463 864 q 499 998 463 961 q 585 1035 536 1035 q 670 998 633 1035 q 707 913 707 961 q 670 827 707 864 q 585 790 633 790 m 210 790 q 124 826 160 790 q 88 913 88 863 q 124 999 88 963 q 210 1035 160 1035 q 296 999 260 1035 q 332 913 332 963 q 296 826 332 863 q 210 790 260 790 z "},"ò":{"ha":810,"x_min":28,"x_max":782,"o":"m 407 -17 q 210 30 296 -17 q 76 158 125 76 q 28 347 28 240 q 76 536 28 454 q 209 665 124 618 q 404 711 294 711 q 601 665 515 711 q 734 536 686 618 q 782 347 782 454 q 734 158 782 240 q 601 30 686 76 q 407 -17 517 -17 m 407 214 q 468 231 442 214 q 510 278 494 249 q 525 347 525 308 q 510 416 525 386 q 467 463 494 446 q 404 481 440 481 q 342 463 369 481 q 300 416 315 446 q 285 347 285 386 q 300 278 285 308 q 343 231 315 249 q 407 214 371 214 m 317 769 l 133 974 l 397 974 l 553 769 l 317 769 z "},"ő":{"ha":810,"x_min":28,"x_max":833,"o":"m 407 -17 q 210 30 296 -17 q 76 158 125 76 q 28 347 28 240 q 76 536 28 454 q 209 665 124 618 q 404 711 294 711 q 601 665 515 711 q 734 536 686 618 q 782 347 782 454 q 734 158 782 240 q 601 30 686 76 q 407 -17 517 -17 m 407 214 q 468 231 442 214 q 510 278 494 249 q 525 347 525 308 q 510 416 525 386 q 467 463 494 446 q 404 481 440 481 q 342 463 369 481 q 300 416 315 446 q 285 347 285 386 q 300 278 285 308 q 343 231 315 249 q 407 214 371 214 m 458 769 l 597 972 l 833 972 l 664 769 l 458 769 m 139 769 l 272 972 l 508 972 l 342 769 l 139 769 z "},"ō":{"ha":810,"x_min":28,"x_max":782,"o":"m 407 -17 q 210 30 296 -17 q 76 158 125 76 q 28 347 28 240 q 76 536 28 454 q 209 665 124 618 q 404 711 294 711 q 601 665 515 711 q 734 536 686 618 q 782 347 782 454 q 734 158 782 240 q 601 30 686 76 q 407 -17 517 -17 m 407 214 q 468 231 442 214 q 510 278 494 249 q 525 347 525 308 q 510 416 525 386 q 467 463 494 446 q 404 481 440 481 q 342 463 369 481 q 300 416 315 446 q 285 347 285 386 q 300 278 285 308 q 343 231 315 249 q 407 214 371 214 m 161 763 l 161 972 l 633 972 l 633 763 l 161 763 z "},"ø":{"ha":803,"x_min":10,"x_max":793,"o":"m 10 0 l 596 694 l 793 694 l 206 0 l 10 0 m 400 -17 q 203 30 289 -17 q 69 158 118 76 q 21 347 21 240 q 69 536 21 454 q 202 665 117 618 q 397 711 288 711 q 594 665 508 711 q 727 536 679 618 q 775 347 775 454 q 727 158 775 240 q 594 30 679 76 q 400 -17 510 -17 m 400 214 q 461 231 435 214 q 503 278 488 249 q 518 347 518 308 q 503 416 518 386 q 460 463 488 446 q 397 481 433 481 q 335 463 363 481 q 293 416 308 446 q 278 347 278 386 q 293 278 278 308 q 336 231 308 249 q 400 214 364 214 z "},"õ":{"ha":810,"x_min":28,"x_max":782,"o":"m 407 -17 q 210 30 296 -17 q 76 158 125 76 q 28 347 28 240 q 76 536 28 454 q 209 665 124 618 q 404 711 294 711 q 601 665 515 711 q 734 536 686 618 q 782 347 782 454 q 734 158 782 240 q 601 30 686 76 q 407 -17 517 -17 m 407 214 q 468 231 442 214 q 510 278 494 249 q 525 347 525 308 q 510 416 525 386 q 467 463 494 446 q 404 481 440 481 q 342 463 369 481 q 300 416 315 446 q 285 347 285 386 q 300 278 285 308 q 343 231 315 249 q 407 214 371 214 m 510 742 q 428 757 457 742 q 385 792 400 772 q 356 826 369 811 q 318 842 342 842 q 296 833 308 842 q 275 788 283 824 l 121 788 q 152 906 129 861 q 215 969 175 950 q 310 989 254 989 q 398 974 367 989 q 446 939 429 958 q 475 904 463 919 q 508 889 488 889 q 535 905 528 889 q 544 943 542 921 l 699 943 q 642 794 686 846 q 510 742 599 742 z "},"œ":{"ha":1400,"x_min":28,"x_max":1386,"o":"m 407 -17 q 210 30 296 -17 q 76 158 125 76 q 28 347 28 240 q 76 536 28 454 q 209 665 124 618 q 404 711 294 711 q 601 665 515 711 q 734 536 686 618 q 782 347 782 454 q 734 158 782 240 q 601 30 686 76 q 407 -17 517 -17 m 407 214 q 468 231 442 214 q 510 278 494 249 q 525 347 525 308 q 510 416 525 386 q 467 463 494 446 q 404 481 440 481 q 342 463 369 481 q 300 416 315 446 q 285 347 285 386 q 300 278 285 308 q 343 231 315 249 q 407 214 371 214 m 1028 -17 q 828 29 915 -17 q 691 157 740 75 q 642 347 642 239 q 690 538 642 456 q 825 665 739 619 q 1024 711 911 711 q 1212 665 1131 711 q 1340 524 1293 618 q 1386 285 1386 429 l 900 285 q 938 203 907 233 q 1021 174 969 174 q 1101 195 1067 174 q 1143 249 1135 217 l 1363 181 q 1283 65 1338 108 q 1160 2 1228 21 q 1028 -17 1093 -17 m 901 438 l 1132 438 q 1107 499 1125 476 q 1065 530 1089 521 q 1017 539 1042 539 q 968 530 992 539 q 926 499 944 521 q 901 438 908 476 z "},"p":{"ha":847,"x_min":69,"x_max":819,"o":"m 69 -278 l 69 694 l 306 694 l 314 615 q 394 687 346 663 q 506 711 442 711 q 674 668 604 711 q 782 544 744 625 q 819 347 819 463 q 782 151 819 233 q 674 26 744 69 q 506 -17 604 -17 q 397 6 443 -17 q 319 72 351 29 l 319 -278 l 69 -278 m 439 214 q 500 231 474 214 q 542 278 526 249 q 558 347 558 308 q 543 416 558 386 q 501 463 528 446 q 440 479 475 479 q 378 463 406 479 q 335 416 350 446 q 319 347 319 386 q 335 278 319 308 q 377 231 350 249 q 439 214 404 214 z "},"þ":{"ha":840,"x_min":63,"x_max":813,"o":"m 63 -278 l 63 972 l 313 972 l 313 622 q 390 689 344 667 q 499 711 436 711 q 667 668 597 711 q 775 544 738 625 q 813 347 813 463 q 775 151 813 233 q 667 26 738 69 q 499 -17 597 -17 q 390 6 436 -17 q 313 72 344 29 l 313 -278 l 63 -278 m 432 214 q 493 231 467 214 q 535 278 519 249 q 551 347 551 308 q 536 416 551 386 q 494 463 521 446 q 433 479 468 479 q 371 463 399 479 q 328 416 343 446 q 313 347 313 386 q 328 278 313 308 q 370 231 343 249 q 432 214 397 214 z "},"q":{"ha":840,"x_min":28,"x_max":778,"o":"m 528 -278 l 528 72 q 451 6 497 29 q 342 -17 404 -17 q 173 26 243 -17 q 65 151 103 69 q 28 347 28 233 q 65 544 28 463 q 173 668 103 625 q 342 711 243 711 q 455 686 407 711 q 533 614 503 661 l 542 694 l 778 694 l 778 -278 l 528 -278 m 408 214 q 470 231 443 214 q 513 278 497 249 q 528 347 528 308 q 513 416 528 386 q 470 463 497 446 q 407 479 443 479 q 347 463 374 479 q 306 416 321 446 q 289 347 290 386 q 306 278 290 308 q 348 231 321 249 q 408 214 375 214 z "},"r":{"ha":579,"x_min":63,"x_max":558,"o":"m 63 0 l 63 694 l 313 694 l 313 564 q 423 663 357 629 q 558 697 489 697 l 558 453 q 437 441 493 453 q 347 406 381 429 q 313 349 313 382 l 313 0 l 63 0 z "},"ŕ":{"ha":579,"x_min":63,"x_max":558,"o":"m 63 0 l 63 694 l 313 694 l 313 564 q 423 663 357 629 q 558 697 489 697 l 558 453 q 437 441 493 453 q 347 406 381 429 q 313 349 313 382 l 313 0 l 63 0 m 124 769 l 276 972 l 540 972 l 360 769 l 124 769 z "},"ř":{"ha":579,"x_min":-42,"x_max":558,"o":"m 63 0 l 63 694 l 313 694 l 313 564 q 423 663 357 629 q 558 697 489 697 l 558 453 q 437 441 493 453 q 347 406 381 429 q 313 349 313 382 l 313 0 l 63 0 m 150 769 l 150 776 l 340 972 l 549 972 l 372 769 l 150 769 m 135 769 l -42 972 l 167 972 l 357 776 l 357 769 l 135 769 z "},"ŗ":{"ha":579,"x_min":63,"x_max":558,"o":"m 63 0 l 63 694 l 313 694 l 313 564 q 423 663 357 629 q 558 697 489 697 l 558 453 q 437 441 493 453 q 347 406 381 429 q 313 349 313 382 l 313 0 l 63 0 m 63 -278 l 126 -56 l 360 -56 l 243 -278 l 63 -278 z "},"s":{"ha":682,"x_min":35,"x_max":647,"o":"m 325 -17 q 196 3 256 -17 q 94 58 136 22 q 35 143 51 93 l 233 221 q 276 173 249 183 q 325 163 304 163 q 361 172 347 163 q 375 200 375 182 q 356 233 375 219 q 296 256 336 246 l 239 269 q 99 351 146 293 q 51 488 51 410 q 130 653 51 594 q 343 711 208 711 q 481 691 425 711 q 574 635 538 671 q 629 551 610 599 l 436 478 q 403 518 426 506 q 347 531 381 531 q 310 519 324 531 q 297 493 297 508 q 317 465 297 476 q 379 442 338 453 l 436 428 q 547 381 500 413 q 621 304 594 350 q 647 199 647 258 q 607 83 647 131 q 494 9 567 35 q 325 -17 422 -17 z "},"ś":{"ha":682,"x_min":35,"x_max":647,"o":"m 325 -17 q 196 3 256 -17 q 94 58 136 22 q 35 143 51 93 l 233 221 q 276 173 249 183 q 325 163 304 163 q 361 172 347 163 q 375 200 375 182 q 356 233 375 219 q 296 256 336 246 l 239 269 q 99 351 146 293 q 51 488 51 410 q 130 653 51 594 q 343 711 208 711 q 481 691 425 711 q 574 635 538 671 q 629 551 610 599 l 436 478 q 403 518 426 506 q 347 531 381 531 q 310 519 324 531 q 297 493 297 508 q 317 465 297 476 q 379 442 338 453 l 436 428 q 547 381 500 413 q 621 304 594 350 q 647 199 647 258 q 607 83 647 131 q 494 9 567 35 q 325 -17 422 -17 m 206 769 l 358 972 l 622 972 l 442 769 l 206 769 z "},"š":{"ha":682,"x_min":35,"x_max":647,"o":"m 325 -17 q 196 3 256 -17 q 94 58 136 22 q 35 143 51 93 l 233 221 q 276 173 249 183 q 325 163 304 163 q 361 172 347 163 q 375 200 375 182 q 356 233 375 219 q 296 256 336 246 l 239 269 q 99 351 146 293 q 51 488 51 410 q 130 653 51 594 q 343 711 208 711 q 481 691 425 711 q 574 635 538 671 q 629 551 610 599 l 436 478 q 403 518 426 506 q 347 531 381 531 q 310 519 324 531 q 297 493 297 508 q 317 465 297 476 q 379 442 338 453 l 436 428 q 547 381 500 413 q 621 304 594 350 q 647 199 647 258 q 607 83 647 131 q 494 9 567 35 q 325 -17 422 -17 m 232 769 l 232 776 l 422 972 l 631 972 l 454 769 l 232 769 m 217 769 l 40 972 l 249 972 l 439 776 l 439 769 l 217 769 z "},"ş":{"ha":682,"x_min":35,"x_max":647,"o":"m 325 -17 q 196 3 256 -17 q 94 58 136 22 q 35 143 51 93 l 233 221 q 276 173 249 183 q 325 163 304 163 q 361 172 347 163 q 375 200 375 182 q 356 233 375 219 q 296 256 336 246 l 239 269 q 99 351 146 293 q 51 488 51 410 q 130 653 51 594 q 343 711 208 711 q 481 691 425 711 q 574 635 538 671 q 629 551 610 599 l 436 478 q 403 518 426 506 q 347 531 381 531 q 310 519 324 531 q 297 493 297 508 q 317 465 297 476 q 379 442 338 453 l 436 428 q 547 381 500 413 q 621 304 594 350 q 647 199 647 258 q 607 83 647 131 q 494 9 567 35 q 325 -17 422 -17 m 264 -290 q 195 -278 231 -290 q 131 -247 160 -267 l 160 -142 q 197 -156 179 -151 q 225 -161 214 -161 q 263 -154 249 -161 q 276 -135 276 -147 q 256 -105 276 -115 q 200 -94 236 -94 l 242 10 l 376 10 l 356 -35 q 429 -81 403 -50 q 456 -149 456 -111 q 405 -253 456 -215 q 264 -290 354 -290 z "},"ŝ":{"ha":682,"x_min":35,"x_max":647,"o":"m 325 -17 q 196 3 256 -17 q 94 58 136 22 q 35 143 51 93 l 233 221 q 276 173 249 183 q 325 163 304 163 q 361 172 347 163 q 375 200 375 182 q 356 233 375 219 q 296 256 336 246 l 239 269 q 99 351 146 293 q 51 488 51 410 q 130 653 51 594 q 343 711 208 711 q 481 691 425 711 q 574 635 538 671 q 629 551 610 599 l 436 478 q 403 518 426 506 q 347 531 381 531 q 310 519 324 531 q 297 493 297 508 q 317 465 297 476 q 379 442 338 453 l 436 428 q 547 381 500 413 q 621 304 594 350 q 647 199 647 258 q 607 83 647 131 q 494 9 567 35 q 325 -17 422 -17 m 422 785 l 218 971 l 218 989 l 454 989 l 631 785 l 422 785 m 40 785 l 217 989 l 453 989 l 453 971 l 249 785 l 40 785 z "},"ș":{"ha":682,"x_min":35,"x_max":647,"o":"m 325 -17 q 196 3 256 -17 q 94 58 136 22 q 35 143 51 93 l 233 221 q 276 173 249 183 q 325 163 304 163 q 361 172 347 163 q 375 200 375 182 q 356 233 375 219 q 296 256 336 246 l 239 269 q 99 351 146 293 q 51 488 51 410 q 130 653 51 594 q 343 711 208 711 q 481 691 425 711 q 574 635 538 671 q 629 551 610 599 l 436 478 q 403 518 426 506 q 347 531 381 531 q 310 519 324 531 q 297 493 297 508 q 317 465 297 476 q 379 442 338 453 l 436 428 q 547 381 500 413 q 621 304 594 350 q 647 199 647 258 q 607 83 647 131 q 494 9 567 35 q 325 -17 422 -17 m 174 -276 l 238 -54 l 471 -54 l 354 -276 l 174 -276 z "},"ß":{"ha":846,"x_min":63,"x_max":811,"o":"m 63 0 l 63 661 q 108 847 63 774 q 235 954 153 919 q 425 989 317 989 q 608 958 529 989 q 732 861 688 926 q 776 693 776 796 q 758 601 776 647 q 703 515 739 556 q 785 425 760 482 q 811 281 811 368 q 770 128 811 190 q 656 33 729 65 q 489 0 583 0 l 408 0 l 408 226 l 458 226 q 531 251 504 226 q 558 307 558 276 q 531 363 558 342 q 458 383 503 383 l 408 383 l 408 604 l 425 604 q 478 615 456 604 q 514 647 501 626 q 526 697 526 668 q 496 758 526 738 q 422 778 465 778 q 342 749 371 778 q 313 661 313 719 l 313 0 l 63 0 z "},"t":{"ha":590,"x_min":14,"x_max":556,"o":"m 372 -17 q 181 44 243 -17 q 118 219 118 106 l 118 486 l 14 486 l 14 694 l 118 694 l 118 911 l 368 911 l 368 694 l 511 694 l 511 486 l 368 486 l 368 288 q 379 232 368 249 q 417 215 390 215 q 444 222 428 215 q 471 236 461 229 l 556 56 q 472 6 524 28 q 372 -17 421 -17 z "},"ť":{"ha":631,"x_min":14,"x_max":629,"o":"m 372 -17 q 181 44 243 -17 q 118 219 118 106 l 118 486 l 14 486 l 14 694 l 118 694 l 118 911 l 368 911 l 368 694 l 511 694 l 511 486 l 368 486 l 368 288 q 379 232 368 249 q 417 215 390 215 q 444 222 428 215 q 471 236 461 229 l 556 56 q 472 6 524 28 q 372 -17 421 -17 m 389 807 l 421 972 l 629 972 l 569 807 l 389 807 z "},"ț":{"ha":590,"x_min":14,"x_max":556,"o":"m 372 -17 q 181 44 243 -17 q 118 219 118 106 l 118 486 l 14 486 l 14 694 l 118 694 l 118 911 l 368 911 l 368 694 l 511 694 l 511 486 l 368 486 l 368 288 q 379 232 368 249 q 417 215 390 215 q 444 222 428 215 q 471 236 461 229 l 556 56 q 472 6 524 28 q 372 -17 421 -17 m 144 -278 l 208 -56 l 442 -56 l 325 -278 l 144 -278 z "},"u":{"ha":803,"x_min":56,"x_max":740,"o":"m 306 -17 q 165 17 221 -17 q 83 121 110 51 q 56 297 56 190 l 56 694 l 306 694 l 306 339 q 315 274 306 300 q 341 233 324 247 q 385 218 358 219 q 464 243 438 217 q 490 325 490 269 l 490 694 l 740 694 l 740 0 l 504 0 l 494 85 q 413 10 461 36 q 306 -17 364 -17 z "},"ú":{"ha":803,"x_min":56,"x_max":740,"o":"m 306 -17 q 165 17 221 -17 q 83 121 110 51 q 56 297 56 190 l 56 694 l 306 694 l 306 339 q 315 274 306 300 q 341 233 324 247 q 385 218 358 219 q 464 243 438 217 q 490 325 490 269 l 490 694 l 740 694 l 740 0 l 504 0 l 494 85 q 413 10 461 36 q 306 -17 364 -17 m 260 769 l 413 972 l 676 972 l 496 769 l 260 769 z "},"ŭ":{"ha":803,"x_min":56,"x_max":740,"o":"m 306 -17 q 165 17 221 -17 q 83 121 110 51 q 56 297 56 190 l 56 694 l 306 694 l 306 339 q 315 274 306 300 q 341 233 324 247 q 385 218 358 219 q 464 243 438 217 q 490 325 490 269 l 490 694 l 740 694 l 740 0 l 504 0 l 494 85 q 413 10 461 36 q 306 -17 364 -17 m 399 753 q 253 781 317 753 q 153 858 189 808 q 117 972 117 908 l 344 972 q 360 933 344 949 q 399 918 375 918 q 437 933 422 918 q 451 972 451 949 l 679 972 q 643 858 679 908 q 544 781 607 808 q 399 753 481 753 z "},"û":{"ha":803,"x_min":56,"x_max":740,"o":"m 306 -17 q 165 17 221 -17 q 83 121 110 51 q 56 297 56 190 l 56 694 l 306 694 l 306 339 q 315 274 306 300 q 341 233 324 247 q 385 218 358 219 q 464 243 438 217 q 490 325 490 269 l 490 694 l 740 694 l 740 0 l 504 0 l 494 85 q 413 10 461 36 q 306 -17 364 -17 m 476 785 l 272 971 l 272 989 l 508 989 l 685 785 l 476 785 m 94 785 l 271 989 l 507 989 l 507 971 l 303 785 l 94 785 z "},"ü":{"ha":803,"x_min":56,"x_max":740,"o":"m 306 -17 q 165 17 221 -17 q 83 121 110 51 q 56 297 56 190 l 56 694 l 306 694 l 306 339 q 315 274 306 300 q 341 233 324 247 q 385 218 358 219 q 464 243 438 217 q 490 325 490 269 l 490 694 l 740 694 l 740 0 l 504 0 l 494 85 q 413 10 461 36 q 306 -17 364 -17 m 585 790 q 499 827 536 790 q 463 913 463 864 q 499 998 463 961 q 585 1035 536 1035 q 670 998 633 1035 q 707 913 707 961 q 670 827 707 864 q 585 790 633 790 m 210 790 q 124 826 160 790 q 88 913 88 863 q 124 999 88 963 q 210 1035 160 1035 q 296 999 260 1035 q 332 913 332 963 q 296 826 332 863 q 210 790 260 790 z "},"ù":{"ha":803,"x_min":56,"x_max":740,"o":"m 306 -17 q 165 17 221 -17 q 83 121 110 51 q 56 297 56 190 l 56 694 l 306 694 l 306 339 q 315 274 306 300 q 341 233 324 247 q 385 218 358 219 q 464 243 438 217 q 490 325 490 269 l 490 694 l 740 694 l 740 0 l 504 0 l 494 85 q 413 10 461 36 q 306 -17 364 -17 m 317 769 l 133 974 l 397 974 l 553 769 l 317 769 z "},"ű":{"ha":803,"x_min":56,"x_max":833,"o":"m 306 -17 q 165 17 221 -17 q 83 121 110 51 q 56 297 56 190 l 56 694 l 306 694 l 306 339 q 315 274 306 300 q 341 233 324 247 q 385 218 358 219 q 464 243 438 217 q 490 325 490 269 l 490 694 l 740 694 l 740 0 l 504 0 l 494 85 q 413 10 461 36 q 306 -17 364 -17 m 458 769 l 597 972 l 833 972 l 664 769 l 458 769 m 139 769 l 272 972 l 508 972 l 342 769 l 139 769 z "},"ū":{"ha":803,"x_min":56,"x_max":740,"o":"m 306 -17 q 165 17 221 -17 q 83 121 110 51 q 56 297 56 190 l 56 694 l 306 694 l 306 339 q 315 274 306 300 q 341 233 324 247 q 385 218 358 219 q 464 243 438 217 q 490 325 490 269 l 490 694 l 740 694 l 740 0 l 504 0 l 494 85 q 413 10 461 36 q 306 -17 364 -17 m 161 763 l 161 972 l 633 972 l 633 763 l 161 763 z "},"ų":{"ha":803,"x_min":56,"x_max":794,"o":"m 306 -17 q 165 17 221 -17 q 83 121 110 51 q 56 297 56 190 l 56 694 l 306 694 l 306 339 q 315 274 306 300 q 341 233 324 247 q 385 218 358 219 q 464 243 438 217 q 490 325 490 269 l 490 694 l 740 694 l 740 0 l 504 0 l 494 85 q 413 10 461 36 q 306 -17 364 -17 m 686 -294 q 578 -275 628 -294 q 499 -217 529 -256 q 469 -122 469 -179 q 493 -49 469 -82 q 549 0 517 -17 l 740 0 q 683 -52 703 -24 q 663 -104 663 -81 q 669 -124 663 -115 q 688 -132 676 -132 q 707 -129 699 -132 q 722 -122 715 -126 l 794 -272 q 747 -290 774 -285 q 686 -294 721 -294 z "},"ů":{"ha":803,"x_min":56,"x_max":740,"o":"m 306 -17 q 165 17 221 -17 q 83 121 110 51 q 56 297 56 190 l 56 694 l 306 694 l 306 339 q 315 274 306 300 q 341 233 324 247 q 385 218 358 219 q 464 243 438 217 q 490 325 490 269 l 490 694 l 740 694 l 740 0 l 504 0 l 494 85 q 413 10 461 36 q 306 -17 364 -17 m 397 722 q 302 747 346 722 q 232 811 258 771 q 206 901 206 851 q 232 993 206 953 q 302 1058 258 1033 q 397 1082 346 1082 q 492 1058 449 1082 q 561 993 535 1033 q 588 901 588 953 q 561 811 588 851 q 492 747 535 771 q 397 722 449 722 m 397 856 q 442 901 442 856 q 397 949 442 949 q 351 901 351 949 q 397 856 351 856 z "},"v":{"ha":819,"x_min":7,"x_max":813,"o":"m 286 0 l 7 694 l 265 694 l 410 285 l 554 694 l 813 694 l 533 0 l 286 0 z "},"w":{"ha":1226,"x_min":14,"x_max":1213,"o":"m 250 0 l 14 694 l 269 694 l 379 331 l 490 694 l 736 694 l 843 342 l 957 694 l 1213 694 l 975 0 l 731 0 l 613 400 l 494 0 l 250 0 z "},"ẃ":{"ha":1226,"x_min":14,"x_max":1213,"o":"m 250 0 l 14 694 l 269 694 l 379 331 l 490 694 l 736 694 l 843 342 l 957 694 l 1213 694 l 975 0 l 731 0 l 613 400 l 494 0 l 250 0 m 476 769 l 629 972 l 893 972 l 713 769 l 476 769 z "},"ŵ":{"ha":1226,"x_min":14,"x_max":1213,"o":"m 250 0 l 14 694 l 269 694 l 379 331 l 490 694 l 736 694 l 843 342 l 957 694 l 1213 694 l 975 0 l 731 0 l 613 400 l 494 0 l 250 0 m 693 785 l 489 971 l 489 989 l 725 989 l 901 785 l 693 785 m 311 785 l 488 989 l 724 989 l 724 971 l 519 785 l 311 785 z "},"ẅ":{"ha":1226,"x_min":14,"x_max":1213,"o":"m 250 0 l 14 694 l 269 694 l 379 331 l 490 694 l 736 694 l 843 342 l 957 694 l 1213 694 l 975 0 l 731 0 l 613 400 l 494 0 l 250 0 m 801 790 q 716 827 753 790 q 679 913 679 864 q 716 998 679 961 q 801 1035 753 1035 q 887 998 850 1035 q 924 913 924 961 q 887 827 924 864 q 801 790 850 790 m 426 790 q 340 826 376 790 q 304 913 304 863 q 340 999 304 963 q 426 1035 376 1035 q 513 999 476 1035 q 549 913 549 963 q 513 826 549 863 q 426 790 476 790 z "},"ẁ":{"ha":1226,"x_min":14,"x_max":1213,"o":"m 250 0 l 14 694 l 269 694 l 379 331 l 490 694 l 736 694 l 843 342 l 957 694 l 1213 694 l 975 0 l 731 0 l 613 400 l 494 0 l 250 0 m 533 769 l 350 974 l 614 974 l 769 769 l 533 769 z "},"x":{"ha":822,"x_min":14,"x_max":808,"o":"m 14 0 l 275 360 l 32 694 l 326 694 l 413 564 l 497 694 l 792 694 l 550 358 l 808 0 l 513 0 l 413 156 l 311 0 l 14 0 z "},"y":{"ha":864,"x_min":0,"x_max":864,"o":"m 272 -294 q 169 -276 224 -294 q 83 -236 115 -257 l 176 -35 q 209 -55 192 -47 q 242 -62 226 -62 q 284 -51 264 -62 q 315 -14 304 -40 l 326 14 l 0 694 l 278 694 l 439 293 l 586 694 l 864 694 l 565 -25 q 499 -164 533 -103 q 412 -260 464 -225 q 272 -294 360 -294 z "},"ý":{"ha":864,"x_min":0,"x_max":864,"o":"m 272 -294 q 169 -276 224 -294 q 83 -236 115 -257 l 176 -35 q 209 -55 192 -47 q 242 -62 226 -62 q 284 -51 264 -62 q 315 -14 304 -40 l 326 14 l 0 694 l 278 694 l 439 293 l 586 694 l 864 694 l 565 -25 q 499 -164 533 -103 q 412 -260 464 -225 q 272 -294 360 -294 m 294 769 l 447 972 l 711 972 l 531 769 l 294 769 z "},"ŷ":{"ha":864,"x_min":0,"x_max":864,"o":"m 272 -294 q 169 -276 224 -294 q 83 -236 115 -257 l 176 -35 q 209 -55 192 -47 q 242 -62 226 -62 q 284 -51 264 -62 q 315 -14 304 -40 l 326 14 l 0 694 l 278 694 l 439 293 l 586 694 l 864 694 l 565 -25 q 499 -164 533 -103 q 412 -260 464 -225 q 272 -294 360 -294 m 511 785 l 307 971 l 307 989 l 543 989 l 719 785 l 511 785 m 129 785 l 306 989 l 542 989 l 542 971 l 338 785 l 129 785 z "},"ÿ":{"ha":864,"x_min":0,"x_max":864,"o":"m 272 -294 q 169 -276 224 -294 q 83 -236 115 -257 l 176 -35 q 209 -55 192 -47 q 242 -62 226 -62 q 284 -51 264 -62 q 315 -14 304 -40 l 326 14 l 0 694 l 278 694 l 439 293 l 586 694 l 864 694 l 565 -25 q 499 -164 533 -103 q 412 -260 464 -225 q 272 -294 360 -294 m 619 790 q 534 827 571 790 q 497 913 497 864 q 534 998 497 961 q 619 1035 571 1035 q 705 998 668 1035 q 742 913 742 961 q 705 827 742 864 q 619 790 668 790 m 244 790 q 158 826 194 790 q 122 913 122 863 q 158 999 122 963 q 244 1035 194 1035 q 331 999 294 1035 q 367 913 367 963 q 331 826 367 863 q 244 790 294 790 z "},"ỳ":{"ha":864,"x_min":0,"x_max":864,"o":"m 272 -294 q 169 -276 224 -294 q 83 -236 115 -257 l 176 -35 q 209 -55 192 -47 q 242 -62 226 -62 q 284 -51 264 -62 q 315 -14 304 -40 l 326 14 l 0 694 l 278 694 l 439 293 l 586 694 l 864 694 l 565 -25 q 499 -164 533 -103 q 412 -260 464 -225 q 272 -294 360 -294 m 351 769 l 168 974 l 432 974 l 588 769 l 351 769 z "},"z":{"ha":644,"x_min":28,"x_max":617,"o":"m 28 0 l 28 174 l 308 493 l 28 493 l 28 694 l 617 694 l 617 521 l 336 200 l 617 200 l 617 0 l 28 0 z "},"ź":{"ha":644,"x_min":28,"x_max":617,"o":"m 28 0 l 28 174 l 308 493 l 28 493 l 28 694 l 617 694 l 617 521 l 336 200 l 617 200 l 617 0 l 28 0 m 185 769 l 338 972 l 601 972 l 421 769 l 185 769 z "},"ž":{"ha":644,"x_min":19,"x_max":617,"o":"m 28 0 l 28 174 l 308 493 l 28 493 l 28 694 l 617 694 l 617 521 l 336 200 l 617 200 l 617 0 l 28 0 m 211 769 l 211 776 l 401 972 l 610 972 l 433 769 l 211 769 m 196 769 l 19 972 l 228 972 l 418 776 l 418 769 l 196 769 z "},"ż":{"ha":644,"x_min":28,"x_max":617,"o":"m 28 0 l 28 174 l 308 493 l 28 493 l 28 694 l 617 694 l 617 521 l 336 200 l 617 200 l 617 0 l 28 0 m 322 761 q 225 803 267 761 q 183 900 183 844 q 225 998 183 957 q 322 1039 267 1039 q 420 998 379 1039 q 461 900 461 957 q 420 803 461 844 q 322 761 379 761 z "},"ª":{"ha":476,"x_min":19,"x_max":438,"o":"m 279 556 l 276 757 q 274 803 276 782 q 260 838 272 825 q 214 850 247 850 q 190 844 200 850 q 167 822 181 838 l 19 867 q 98 951 50 919 q 218 982 146 982 q 379 928 321 982 q 438 792 438 875 l 438 556 l 279 556 m 172 546 q 60 578 100 546 q 19 674 19 611 q 60 769 19 739 q 172 800 101 800 l 289 800 l 289 708 l 239 708 q 186 676 186 708 q 194 665 186 669 q 215 661 201 661 q 256 676 240 661 q 271 715 271 690 l 314 733 q 276 594 314 643 q 172 546 239 546 z "},"º":{"ha":499,"x_min":19,"x_max":479,"o":"m 251 546 q 131 574 183 546 q 49 651 79 601 q 19 764 19 700 q 49 877 19 828 q 130 954 78 926 q 249 982 182 982 q 415 921 351 982 q 479 764 479 860 q 450 651 479 700 q 369 574 421 601 q 251 546 318 546 m 251 700 q 292 718 275 700 q 308 764 308 736 q 292 810 308 792 q 249 829 275 829 q 208 810 224 829 q 192 764 192 792 q 208 718 192 736 q 251 700 225 700 z "},"⁄":{"ha":314,"x_min":-257,"x_max":571,"o":"m -257 0 l 411 972 l 571 972 l -97 0 l -257 0 z "},"½":{"ha":1218,"x_min":35,"x_max":1189,"o":"m 149 389 l 149 881 l 167 972 l 310 972 l 310 389 l 149 389 m 35 743 l 35 899 q 103 918 69 894 q 167 974 136 942 l 276 872 q 158 769 217 801 q 35 743 100 736 m 131 0 l 799 972 l 958 972 l 290 0 l 131 0 m 910 90 l 742 118 q 762 169 742 139 q 816 233 782 200 q 892 293 850 267 l 936 321 q 983 355 958 335 q 1008 397 1008 375 q 995 426 1008 415 q 950 438 982 438 q 917 424 932 438 q 897 390 903 411 l 721 418 q 758 505 728 465 q 837 569 788 544 q 951 594 886 594 q 1122 540 1061 594 q 1183 399 1183 486 q 1147 289 1183 331 q 1056 213 1110 247 l 1007 182 q 968 152 989 171 q 931 116 947 133 q 910 90 914 99 m 742 0 l 742 118 l 868 150 l 1189 150 l 1189 0 l 742 0 z "},"¼":{"ha":1178,"x_min":35,"x_max":1149,"o":"m 149 389 l 149 881 l 167 972 l 310 972 l 310 389 l 149 389 m 35 743 l 35 899 q 103 918 69 894 q 167 974 136 942 l 276 872 q 158 769 217 801 q 35 743 100 736 m 131 0 l 799 972 l 958 972 l 290 0 l 131 0 m 757 158 l 635 218 l 883 583 l 981 489 l 757 158 m 635 79 l 635 218 l 724 224 l 1149 224 l 1149 79 l 635 79 m 908 0 l 908 497 l 885 583 l 1069 583 l 1069 0 l 908 0 z "},"¾":{"ha":1283,"x_min":19,"x_max":1254,"o":"m 257 379 q 97 422 164 379 q 19 554 29 465 l 186 583 q 199 547 189 569 q 246 525 210 525 q 279 536 267 525 q 292 568 292 547 q 290 585 292 575 q 274 603 288 596 q 225 611 261 611 l 165 611 l 165 717 l 218 717 q 335 694 279 717 q 428 633 392 672 q 464 543 464 594 q 433 453 464 489 q 356 398 403 417 q 257 379 308 379 m 165 651 l 165 747 l 225 747 q 276 760 265 747 q 286 796 286 774 q 274 825 286 814 q 246 836 263 836 q 210 824 228 836 q 189 775 192 811 l 24 804 q 64 903 29 864 q 149 963 99 943 q 249 982 199 982 q 353 961 306 982 q 428 903 400 940 q 457 815 457 867 q 419 721 457 757 q 326 668 382 685 q 218 651 271 651 l 165 651 m 236 0 l 904 972 l 1064 972 l 396 0 l 236 0 m 863 158 l 740 218 l 989 583 l 1086 489 l 863 158 m 740 79 l 740 218 l 829 224 l 1254 224 l 1254 79 l 740 79 m 1014 0 l 1014 497 l 990 583 l 1175 583 l 1175 0 l 1014 0 z "},"⅛":{"ha":1226,"x_min":35,"x_max":1197,"o":"m 149 389 l 149 881 l 167 972 l 310 972 l 310 389 l 149 389 m 35 743 l 35 899 q 103 918 69 894 q 167 974 136 942 l 276 872 q 158 769 217 801 q 35 743 100 736 m 131 0 l 799 972 l 958 972 l 290 0 l 131 0 m 964 -10 q 788 35 844 -10 q 731 151 731 79 q 787 282 731 232 q 963 332 843 332 q 1140 282 1082 332 q 1197 151 1197 232 q 1140 35 1197 79 q 964 -10 1082 -10 m 963 129 q 1004 143 988 129 q 1021 178 1021 157 q 1004 220 1021 204 q 964 236 988 236 q 923 220 939 236 q 907 178 907 204 q 923 143 907 157 q 963 129 939 129 m 963 361 q 1001 376 986 361 q 1015 414 1015 392 q 1001 447 1015 433 q 963 461 986 461 q 926 447 940 461 q 913 414 913 433 q 926 376 913 392 q 963 361 940 361 m 963 281 q 801 324 856 281 q 746 435 746 367 q 801 549 746 504 q 964 593 856 593 q 1126 549 1071 593 q 1181 435 1181 504 q 1125 324 1181 367 q 963 281 1069 281 z "},"⅜":{"ha":1332,"x_min":19,"x_max":1303,"o":"m 257 379 q 97 422 164 379 q 19 554 29 465 l 186 583 q 199 547 189 569 q 246 525 210 525 q 279 536 267 525 q 292 568 292 547 q 290 585 292 575 q 274 603 288 596 q 225 611 261 611 l 165 611 l 165 717 l 218 717 q 335 694 279 717 q 428 633 392 672 q 464 543 464 594 q 433 453 464 489 q 356 398 403 417 q 257 379 308 379 m 165 651 l 165 747 l 225 747 q 276 760 265 747 q 286 796 286 774 q 274 825 286 814 q 246 836 263 836 q 210 824 228 836 q 189 775 192 811 l 24 804 q 64 903 29 864 q 149 963 99 943 q 249 982 199 982 q 353 961 306 982 q 428 903 400 940 q 457 815 457 867 q 419 721 457 757 q 326 668 382 685 q 218 651 271 651 l 165 651 m 236 0 l 904 972 l 1064 972 l 396 0 l 236 0 m 1069 -10 q 893 35 950 -10 q 836 151 836 79 q 892 282 836 232 q 1068 332 949 332 q 1245 282 1188 332 q 1303 151 1303 232 q 1245 35 1303 79 q 1069 -10 1188 -10 m 1068 129 q 1110 143 1093 129 q 1126 178 1126 157 q 1110 220 1126 204 q 1069 236 1093 236 q 1028 220 1044 236 q 1013 178 1013 204 q 1028 143 1013 157 q 1068 129 1044 129 m 1068 361 q 1106 376 1092 361 q 1121 414 1121 392 q 1106 447 1121 433 q 1068 461 1092 461 q 1032 447 1046 461 q 1018 414 1018 433 q 1032 376 1018 392 q 1068 361 1046 361 m 1068 281 q 906 324 961 281 q 851 435 851 367 q 906 549 851 504 q 1069 593 961 593 q 1231 549 1176 593 q 1286 435 1286 504 q 1231 324 1286 367 q 1068 281 1175 281 z "},"⅝":{"ha":1346,"x_min":29,"x_max":1317,"o":"m 257 379 q 160 397 210 379 q 75 447 111 414 q 29 524 39 479 l 197 554 q 213 533 200 540 q 244 526 226 526 q 283 541 268 526 q 299 581 299 556 q 284 619 299 601 q 243 636 269 636 q 215 628 226 636 q 197 606 204 621 l 43 639 l 88 972 l 442 972 l 442 817 l 119 817 l 88 967 l 257 967 l 193 618 l 124 639 q 151 684 129 654 q 216 738 174 714 q 324 760 258 763 q 431 712 385 758 q 478 592 478 665 q 416 438 478 497 q 257 379 354 379 m 250 0 l 918 972 l 1078 972 l 410 0 l 250 0 m 1083 -10 q 907 35 964 -10 q 850 151 850 79 q 906 282 850 232 q 1082 332 963 332 q 1259 282 1201 332 q 1317 151 1317 232 q 1259 35 1317 79 q 1083 -10 1201 -10 m 1082 129 q 1124 143 1107 129 q 1140 178 1140 157 q 1124 220 1140 204 q 1083 236 1107 236 q 1042 220 1058 236 q 1026 178 1026 204 q 1042 143 1026 157 q 1082 129 1058 129 m 1082 361 q 1120 376 1106 361 q 1135 414 1135 392 q 1120 447 1135 433 q 1082 461 1106 461 q 1046 447 1060 461 q 1032 414 1032 433 q 1046 376 1032 392 q 1082 361 1060 361 m 1082 281 q 920 324 975 281 q 865 435 865 367 q 920 549 865 504 q 1083 593 975 593 q 1245 549 1190 593 q 1300 435 1300 504 q 1244 324 1300 367 q 1082 281 1189 281 z "},"⅞":{"ha":1306,"x_min":25,"x_max":1276,"o":"m 97 389 l 272 815 l 465 854 l 288 389 l 97 389 m 25 815 l 25 972 l 465 972 l 465 854 l 272 815 l 25 815 m 210 0 l 878 972 l 1038 972 l 369 0 l 210 0 m 1043 -10 q 867 35 924 -10 q 810 151 810 79 q 866 282 810 232 q 1042 332 922 332 q 1219 282 1161 332 q 1276 151 1276 232 q 1219 35 1276 79 q 1043 -10 1161 -10 m 1042 129 q 1083 143 1067 129 q 1100 178 1100 157 q 1083 220 1100 204 q 1043 236 1067 236 q 1002 220 1018 236 q 986 178 986 204 q 1002 143 986 157 q 1042 129 1018 129 m 1042 361 q 1080 376 1065 361 q 1094 414 1094 392 q 1080 447 1094 433 q 1042 461 1065 461 q 1006 447 1019 461 q 992 414 992 433 q 1006 376 992 392 q 1042 361 1019 361 m 1042 281 q 880 324 935 281 q 825 435 825 367 q 880 549 825 504 q 1043 593 935 593 q 1205 549 1150 593 q 1260 435 1260 504 q 1204 324 1260 367 q 1042 281 1149 281 z "},"₀":{"ha":564,"x_min":25,"x_max":539,"o":"m 283 -147 q 149 -109 207 -147 q 58 -3 92 -71 q 25 154 25 65 q 58 312 25 244 q 149 417 90 379 q 282 456 207 456 q 415 417 358 456 q 506 312 472 379 q 539 154 539 244 q 506 -3 539 65 q 416 -109 474 -71 q 283 -147 358 -147 m 282 8 q 347 49 322 8 q 372 154 372 90 q 347 261 372 219 q 281 303 321 303 q 223 261 246 303 q 200 154 200 219 q 223 49 200 90 q 282 8 246 8 z "},"₁":{"ha":388,"x_min":35,"x_max":310,"o":"m 149 -139 l 149 353 l 167 444 l 310 444 l 310 -139 l 149 -139 m 35 215 l 35 371 q 103 390 69 367 q 167 446 136 414 l 276 344 q 158 241 217 274 q 35 215 100 208 z "},"₂":{"ha":517,"x_min":19,"x_max":488,"o":"m 208 -49 l 40 -21 q 60 31 40 0 q 115 94 81 61 q 190 154 149 128 l 235 182 q 282 216 257 196 q 307 258 307 236 q 294 288 307 276 q 249 299 281 299 q 216 285 231 299 q 196 251 201 272 l 19 279 q 56 366 26 326 q 135 431 86 406 q 250 456 185 456 q 421 401 360 456 q 482 260 482 347 q 445 150 482 192 q 354 74 408 108 l 306 43 q 267 13 288 32 q 229 -23 246 -6 q 208 -49 213 -40 m 40 -139 l 40 -21 l 167 11 l 488 11 l 488 -139 l 40 -139 z "},"₃":{"ha":493,"x_min":19,"x_max":464,"o":"m 257 -147 q 97 -104 164 -147 q 19 28 29 -61 l 186 57 q 199 21 189 43 q 246 -1 210 -1 q 279 10 267 -1 q 292 42 292 21 q 290 59 292 49 q 274 77 288 69 q 225 85 261 85 l 165 85 l 165 190 l 218 190 q 335 168 279 190 q 428 107 392 146 q 464 17 464 68 q 433 -74 464 -37 q 356 -128 403 -110 q 257 -147 308 -147 m 165 125 l 165 221 l 225 221 q 276 234 265 221 q 286 269 286 247 q 274 299 286 288 q 246 310 263 310 q 210 297 228 310 q 189 249 192 285 l 24 278 q 64 377 29 338 q 149 436 99 417 q 249 456 199 456 q 353 435 306 456 q 428 377 400 414 q 457 289 457 340 q 419 194 457 231 q 326 142 382 158 q 218 125 271 125 l 165 125 z "},"₄":{"ha":553,"x_min":10,"x_max":524,"o":"m 132 19 l 10 79 l 258 444 l 356 350 l 132 19 m 10 -60 l 10 79 l 99 85 l 524 85 l 524 -60 l 10 -60 m 283 -139 l 283 358 l 260 444 l 444 444 l 444 -139 l 283 -139 z "},"₅":{"ha":507,"x_min":29,"x_max":478,"o":"m 257 -149 q 160 -131 210 -149 q 75 -81 111 -114 q 29 -4 39 -49 l 197 26 q 213 6 200 13 q 244 -1 226 -1 q 283 13 268 -1 q 299 53 299 28 q 284 91 299 74 q 243 108 269 108 q 215 101 226 108 q 197 78 204 93 l 43 111 l 88 444 l 442 444 l 442 289 l 119 289 l 88 439 l 257 439 l 193 90 l 124 111 q 151 156 129 126 q 216 210 174 186 q 324 232 258 235 q 431 184 385 231 q 478 64 478 138 q 416 -90 478 -31 q 257 -149 354 -149 z "},"₆":{"ha":510,"x_min":29,"x_max":481,"o":"m 256 -149 q 130 -115 181 -149 q 54 -22 79 -81 q 29 111 29 36 q 41 228 29 168 q 81 340 53 289 q 160 423 110 392 q 286 454 210 454 q 381 441 336 454 q 463 403 426 428 l 383 276 q 331 299 358 293 q 283 306 303 306 q 218 268 246 306 q 190 140 190 231 l 156 156 q 210 220 175 196 q 293 244 246 244 q 390 216 349 244 q 456 142 432 188 q 481 40 481 96 q 421 -94 481 -40 q 256 -149 361 -149 m 257 -7 q 295 10 279 -7 q 311 50 311 28 q 295 92 311 74 q 257 110 279 110 q 218 92 235 110 q 201 50 201 74 q 218 10 201 26 q 257 -7 235 -7 z "},"₇":{"ha":494,"x_min":25,"x_max":465,"o":"m 97 -139 l 272 288 l 465 326 l 288 -139 l 97 -139 m 25 288 l 25 444 l 465 444 l 465 326 l 272 288 l 25 288 z "},"₈":{"ha":525,"x_min":29,"x_max":496,"o":"m 263 -149 q 86 -104 143 -149 q 29 13 29 -60 q 85 143 29 93 q 261 193 142 193 q 438 143 381 193 q 496 13 496 93 q 438 -104 496 -60 q 263 -149 381 -149 m 261 -10 q 303 4 286 -10 q 319 39 319 18 q 303 81 319 65 q 263 97 286 97 q 222 81 238 97 q 206 39 206 65 q 222 4 206 18 q 261 -10 238 -10 m 261 222 q 299 238 285 222 q 314 275 314 253 q 299 308 314 294 q 261 322 285 322 q 225 308 239 322 q 211 275 211 294 q 225 238 211 253 q 261 222 239 222 m 261 142 q 99 185 154 142 q 44 296 44 228 q 99 410 44 365 q 263 454 154 454 q 424 410 369 454 q 479 296 479 365 q 424 185 479 228 q 261 142 368 142 z "},"₉":{"ha":510,"x_min":29,"x_max":481,"o":"m 224 -150 q 129 -137 175 -150 q 47 -99 83 -124 l 126 28 q 181 5 151 11 q 226 -1 210 -1 q 290 34 263 -1 q 319 165 318 69 l 354 149 q 302 86 336 113 q 217 60 268 60 q 119 88 161 60 q 53 163 78 117 q 29 265 29 210 q 89 399 29 344 q 254 454 149 454 q 380 420 329 454 q 456 327 431 386 q 481 193 481 268 q 469 76 481 136 q 428 -35 457 17 q 350 -118 400 -86 q 224 -150 300 -150 m 253 194 q 292 213 275 194 q 308 256 308 232 q 292 296 308 279 q 253 313 275 313 q 215 296 231 313 q 199 256 199 279 q 215 213 199 232 q 253 194 231 194 z "},"⁰":{"ha":564,"x_min":25,"x_max":539,"o":"m 283 518 q 149 556 207 518 q 58 663 92 594 q 25 819 25 731 q 58 977 25 910 q 149 1083 90 1044 q 282 1121 207 1121 q 415 1083 358 1121 q 506 977 472 1044 q 539 819 539 910 q 506 663 539 731 q 416 556 474 594 q 283 518 358 518 m 282 674 q 347 715 322 674 q 372 819 372 756 q 347 926 372 885 q 281 968 321 968 q 223 926 246 968 q 200 819 200 885 q 223 715 200 756 q 282 674 246 674 z "},"¹":{"ha":388,"x_min":35,"x_max":310,"o":"m 149 528 l 149 1019 l 167 1111 l 310 1111 l 310 528 l 149 528 m 35 882 l 35 1038 q 103 1057 69 1033 q 167 1113 136 1081 l 276 1011 q 158 908 217 940 q 35 882 100 875 z "},"²":{"ha":517,"x_min":19,"x_max":488,"o":"m 208 618 l 40 646 q 60 697 40 667 q 115 761 81 728 q 190 821 149 794 l 235 849 q 282 883 257 863 q 307 925 307 903 q 294 954 307 943 q 249 965 281 965 q 216 952 231 965 q 196 918 201 939 l 19 946 q 56 1033 26 993 q 135 1097 86 1072 q 250 1122 185 1122 q 421 1068 360 1122 q 482 926 482 1014 q 445 817 482 858 q 354 740 408 775 l 306 710 q 267 680 288 699 q 229 644 246 661 q 208 618 213 626 m 40 528 l 40 646 l 167 678 l 488 678 l 488 528 l 40 528 z "},"³":{"ha":493,"x_min":19,"x_max":464,"o":"m 257 518 q 97 561 164 518 q 19 693 29 604 l 186 722 q 199 686 189 708 q 246 664 210 664 q 279 675 267 664 q 292 707 292 686 q 290 724 292 714 q 274 742 288 735 q 225 750 261 750 l 165 750 l 165 856 l 218 856 q 335 833 279 856 q 428 772 392 811 q 464 682 464 733 q 433 592 464 628 q 356 537 403 556 q 257 518 308 518 m 165 790 l 165 886 l 225 886 q 276 899 265 886 q 286 935 286 913 q 274 964 286 953 q 246 975 263 975 q 210 963 228 975 q 189 914 192 950 l 24 943 q 64 1042 29 1003 q 149 1101 99 1082 q 249 1121 199 1121 q 353 1100 306 1121 q 428 1042 400 1079 q 457 954 457 1006 q 419 860 457 896 q 326 807 382 824 q 218 790 271 790 l 165 790 z "},"⁴":{"ha":553,"x_min":10,"x_max":524,"o":"m 132 686 l 10 746 l 258 1111 l 356 1017 l 132 686 m 10 607 l 10 746 l 99 751 l 524 751 l 524 607 l 10 607 m 283 528 l 283 1025 l 260 1111 l 444 1111 l 444 528 l 283 528 z "},"⁵":{"ha":507,"x_min":29,"x_max":478,"o":"m 257 518 q 160 535 210 518 q 75 585 111 553 q 29 663 39 618 l 197 693 q 213 672 200 679 q 244 665 226 665 q 283 680 268 665 q 299 719 299 694 q 284 758 299 740 q 243 775 269 775 q 215 767 226 775 q 197 744 204 760 l 43 778 l 88 1111 l 442 1111 l 442 956 l 119 956 l 88 1106 l 257 1106 l 193 757 l 124 778 q 151 823 129 793 q 216 877 174 853 q 324 899 258 901 q 431 851 385 897 q 478 731 478 804 q 416 577 478 636 q 257 518 354 518 z "},"⁶":{"ha":510,"x_min":29,"x_max":481,"o":"m 256 518 q 130 552 181 518 q 54 644 79 586 q 29 778 29 703 q 41 895 29 835 q 81 1007 53 956 q 160 1090 110 1058 q 286 1121 210 1121 q 381 1108 336 1121 q 463 1069 426 1094 l 383 943 q 331 966 358 960 q 283 972 303 972 q 218 935 246 972 q 190 807 190 897 l 156 822 q 210 887 175 863 q 293 911 246 911 q 390 883 349 911 q 456 808 432 854 q 481 707 481 763 q 421 572 481 626 q 256 518 361 518 m 257 660 q 295 677 279 660 q 311 717 311 694 q 295 758 311 740 q 257 776 279 776 q 218 758 235 776 q 201 717 201 740 q 218 676 201 693 q 257 660 235 660 z "},"⁷":{"ha":494,"x_min":25,"x_max":465,"o":"m 97 528 l 272 954 l 465 993 l 288 528 l 97 528 m 25 954 l 25 1111 l 465 1111 l 465 993 l 272 954 l 25 954 z "},"⁸":{"ha":525,"x_min":29,"x_max":496,"o":"m 263 518 q 86 563 143 518 q 29 679 29 607 q 85 810 29 760 q 261 860 142 860 q 438 810 381 860 q 496 679 496 760 q 438 563 496 607 q 263 518 381 518 m 261 657 q 303 671 286 657 q 319 706 319 685 q 303 748 319 732 q 263 764 286 764 q 222 748 238 764 q 206 706 206 732 q 222 671 206 685 q 261 657 238 657 m 261 889 q 299 904 285 889 q 314 942 314 919 q 299 975 314 961 q 261 989 285 989 q 225 975 239 989 q 211 942 211 961 q 225 904 211 919 q 261 889 239 889 m 261 808 q 99 851 154 808 q 44 963 44 894 q 99 1076 44 1032 q 263 1121 154 1121 q 424 1076 369 1121 q 479 963 479 1032 q 424 851 479 894 q 261 808 368 808 z "},"⁹":{"ha":510,"x_min":29,"x_max":481,"o":"m 224 517 q 129 530 175 517 q 47 568 83 543 l 126 694 q 181 672 151 678 q 226 665 210 665 q 290 701 263 665 q 319 832 318 736 l 354 815 q 302 753 336 779 q 217 726 268 726 q 119 755 161 726 q 53 830 78 783 q 29 932 29 876 q 89 1066 29 1011 q 254 1121 149 1121 q 380 1087 329 1121 q 456 994 431 1053 q 481 860 481 935 q 469 743 481 803 q 428 632 457 683 q 350 549 400 581 q 224 517 300 517 m 253 861 q 292 880 275 861 q 308 922 308 899 q 292 963 308 946 q 253 979 275 979 q 215 963 231 979 q 199 922 199 946 q 215 880 199 899 q 253 861 231 861 z "}," ":{"ha":319,"x_min":0,"x_max":0,"o":""}," ":{"ha":319,"x_min":0,"x_max":0,"o":""},"\r":{"ha":833,"x_min":0,"x_max":0,"o":""},".":{"ha":397,"x_min":56,"x_max":342,"o":"m 199 -21 q 98 22 140 -21 q 56 122 56 64 q 98 223 56 181 q 199 265 140 265 q 299 223 257 265 q 342 122 342 181 q 299 22 342 64 q 199 -21 257 -21 z "},",":{"ha":397,"x_min":25,"x_max":367,"o":"m 25 -157 l 117 203 l 367 203 l 206 -157 l 25 -157 z "},":":{"ha":481,"x_min":97,"x_max":383,"o":"m 240 408 q 140 451 182 408 q 97 551 97 493 q 140 652 97 610 q 240 694 182 694 q 341 652 299 694 q 383 551 383 610 q 341 451 383 493 q 240 408 299 408 m 240 -1 q 140 41 182 -1 q 97 142 97 83 q 140 242 97 200 q 240 285 182 285 q 341 242 299 285 q 383 142 383 200 q 341 41 383 83 q 240 -1 299 -1 z "},";":{"ha":482,"x_min":39,"x_max":385,"o":"m 242 403 q 141 445 183 403 q 99 546 99 488 q 141 647 99 604 q 242 689 183 689 q 342 647 300 689 q 385 546 385 604 q 342 445 385 488 q 242 403 300 403 m 39 -157 l 131 203 l 381 203 l 219 -157 l 39 -157 z "},"…":{"ha":1108,"x_min":56,"x_max":1053,"o":"m 199 -21 q 98 22 140 -21 q 56 122 56 64 q 98 223 56 181 q 199 265 140 265 q 299 223 257 265 q 342 122 342 181 q 299 22 342 64 q 199 -21 257 -21 m 554 -21 q 453 22 496 -21 q 411 122 411 64 q 453 223 411 181 q 554 265 496 265 q 655 223 613 265 q 697 122 697 181 q 655 22 697 64 q 554 -21 613 -21 m 910 -21 q 809 22 851 -21 q 767 122 767 64 q 809 223 767 181 q 910 265 851 265 q 1010 223 968 265 q 1053 122 1053 181 q 1010 22 1053 64 q 910 -21 968 -21 z "},"!":{"ha":453,"x_min":83,"x_max":369,"o":"m 108 349 l 88 972 l 365 972 l 344 349 l 108 349 m 226 -22 q 126 20 168 -22 q 83 121 83 63 q 126 222 83 179 q 226 264 168 264 q 327 222 285 264 q 369 121 369 179 q 327 20 369 63 q 226 -22 285 -22 z "},"¡":{"ha":425,"x_min":83,"x_max":369,"o":"m 344 340 l 365 -283 l 88 -283 l 108 340 l 344 340 m 226 711 q 327 669 285 711 q 369 568 369 626 q 327 467 369 510 q 226 425 285 425 q 126 467 168 425 q 83 568 83 510 q 126 669 83 626 q 226 711 168 711 z "},"?":{"ha":725,"x_min":21,"x_max":690,"o":"m 210 296 l 200 538 l 329 550 q 419 582 385 557 q 454 664 454 607 q 422 738 454 708 q 339 767 390 767 q 280 748 304 767 q 244 701 256 729 l 21 761 q 132 928 49 867 q 339 989 215 989 q 521 947 442 989 q 645 833 600 906 q 690 664 690 760 q 660 540 690 594 q 576 449 631 485 q 447 401 521 414 l 443 296 l 210 296 m 326 -21 q 226 22 268 -21 q 183 122 183 64 q 226 223 183 181 q 326 265 268 265 q 427 223 385 265 q 469 122 469 181 q 427 22 469 64 q 326 -21 385 -21 z "},"¿":{"ha":661,"x_min":-1,"x_max":668,"o":"m 479 394 l 489 153 l 360 140 q 269 109 304 135 q 235 26 235 83 q 267 -47 235 -18 q 350 -76 299 -76 q 410 -58 386 -76 q 444 -11 435 -39 l 668 -71 q 558 -237 642 -176 q 350 -299 474 -299 q 168 -257 247 -299 q 44 -142 89 -215 q -1 26 -1 -68 q 28 151 -1 97 q 113 241 58 206 q 242 289 168 276 l 246 394 l 479 394 m 363 711 q 463 669 421 711 q 506 568 506 626 q 463 467 506 510 q 363 425 421 425 q 262 467 304 425 q 219 568 219 510 q 262 669 219 626 q 363 711 304 711 z "},"·":{"ha":369,"x_min":42,"x_max":328,"o":"m 185 342 q 84 384 126 342 q 42 485 42 426 q 84 585 42 543 q 185 628 126 628 q 285 585 243 628 q 328 485 328 543 q 285 384 328 426 q 185 342 243 342 z "},"•":{"ha":624,"x_min":125,"x_max":499,"o":"m 311 215 q 217 240 260 215 q 150 307 175 265 q 125 400 125 349 q 150 492 125 451 q 217 558 175 533 q 311 583 260 583 q 406 558 364 583 q 474 492 449 533 q 499 400 499 451 q 474 307 499 349 q 406 240 449 265 q 311 215 364 215 z "},"*":{"ha":686,"x_min":56,"x_max":631,"o":"m 438 450 l 299 689 l 388 754 l 572 549 l 438 450 m 250 449 l 115 546 l 299 753 l 389 688 l 250 449 m 326 667 l 56 725 l 107 883 l 360 772 l 326 667 m 288 719 l 260 994 l 426 994 l 399 719 l 288 719 m 360 667 l 326 772 l 579 883 l 631 725 l 360 667 z "},"#":{"ha":879,"x_min":14,"x_max":865,"o":"m 421 0 l 574 972 l 750 972 l 597 0 l 421 0 m 14 235 l 39 410 l 819 410 l 794 235 l 14 235 m 136 0 l 289 972 l 465 972 l 313 0 l 136 0 m 53 518 l 85 694 l 865 694 l 833 518 l 53 518 z "},"/":{"ha":656,"x_min":21,"x_max":635,"o":"m 21 -117 l 404 1038 l 635 1038 l 254 -117 l 21 -117 z "},"\\":{"ha":656,"x_min":21,"x_max":635,"o":"m 635 -117 l 401 -117 l 21 1038 l 251 1038 l 635 -117 z "},"-":{"ha":556,"x_min":69,"x_max":486,"o":"m 69 310 l 69 518 l 486 518 l 486 310 l 69 310 z "},"–":{"ha":764,"x_min":0,"x_max":764,"o":"m 0 310 l 0 518 l 764 518 l 764 310 l 0 310 z "},"—":{"ha":1528,"x_min":0,"x_max":1528,"o":"m 0 310 l 0 518 l 1528 518 l 1528 310 l 0 310 z "},"_":{"ha":597,"x_min":21,"x_max":576,"o":"m 21 -208 l 21 0 l 576 0 l 576 -208 l 21 -208 z "},"(":{"ha":569,"x_min":56,"x_max":528,"o":"m 286 -139 q 169 45 222 -54 q 86 256 117 144 q 56 486 56 367 q 86 717 56 607 q 169 927 117 828 q 286 1111 222 1026 l 528 1111 q 411 921 464 1022 q 328 710 358 819 q 297 486 297 601 q 328 263 297 372 q 411 52 358 153 q 528 -139 464 -49 l 286 -139 z "},")":{"ha":569,"x_min":42,"x_max":514,"o":"m 283 -139 l 42 -139 q 159 52 107 -49 q 242 263 211 153 q 272 486 272 372 q 242 710 272 601 q 159 921 211 819 q 42 1111 107 1022 l 283 1111 q 401 927 349 1026 q 483 717 453 828 q 514 486 514 607 q 483 256 514 367 q 401 45 453 144 q 283 -139 349 -54 z "},"{":{"ha":558,"x_min":69,"x_max":489,"o":"m 69 471 l 69 576 q 147 588 119 576 q 184 628 174 599 q 194 711 194 657 q 208 908 194 831 q 253 1031 221 986 q 343 1093 286 1075 q 489 1111 400 1111 l 489 919 q 435 901 454 919 q 410 839 417 883 q 403 713 403 794 q 375 564 403 617 q 275 491 347 511 q 69 471 203 471 m 489 -139 q 343 -121 400 -139 q 253 -58 286 -103 q 208 64 221 -14 q 194 261 194 142 q 184 344 194 315 q 147 385 174 374 q 69 396 119 396 l 69 501 q 276 481 204 501 q 376 409 349 461 q 404 260 404 357 q 411 133 404 178 q 437 72 418 89 q 489 53 456 54 l 489 -139 z "},"}":{"ha":558,"x_min":69,"x_max":489,"o":"m 489 471 q 283 491 356 471 q 183 564 211 511 q 156 713 156 617 q 149 839 156 794 q 123 901 142 883 q 69 919 104 919 l 69 1111 q 215 1093 158 1111 q 305 1031 272 1075 q 351 908 338 986 q 364 711 364 831 q 374 628 364 657 q 412 588 385 599 q 489 576 439 576 l 489 471 m 69 -139 l 69 53 q 122 72 104 54 q 147 133 140 89 q 154 260 154 178 q 182 409 154 357 q 283 481 210 461 q 489 501 356 501 l 489 396 q 412 385 439 396 q 374 344 385 374 q 364 261 364 315 q 351 64 364 142 q 305 -58 338 -14 q 215 -121 272 -103 q 69 -139 158 -139 z "},"[":{"ha":503,"x_min":83,"x_max":447,"o":"m 83 -139 l 83 1111 l 447 1111 l 447 889 l 292 889 l 292 83 l 447 83 l 447 -139 l 83 -139 z "},"]":{"ha":503,"x_min":56,"x_max":419,"o":"m 419 -139 l 56 -139 l 56 83 l 211 83 l 211 889 l 56 889 l 56 1111 l 419 1111 l 419 -139 z "},"‚":{"ha":397,"x_min":25,"x_max":367,"o":"m 25 -157 l 117 203 l 367 203 l 206 -157 l 25 -157 z "},"„":{"ha":685,"x_min":0,"x_max":674,"o":"m 332 -157 l 424 203 l 674 203 l 513 -157 l 332 -157 m 0 -157 l 92 203 l 342 203 l 181 -157 l 0 -157 z "},"“":{"ha":685,"x_min":0,"x_max":674,"o":"m 342 978 l 250 618 l 0 618 l 161 978 l 342 978 m 674 978 l 582 618 l 332 618 l 493 978 l 674 978 z "},"”":{"ha":685,"x_min":11,"x_max":685,"o":"m 343 613 l 435 972 l 685 972 l 524 613 l 343 613 m 11 613 l 103 972 l 353 972 l 192 613 l 11 613 z "},"‘":{"ha":353,"x_min":0,"x_max":342,"o":"m 342 972 l 250 613 l 0 613 l 161 972 l 342 972 z "},"’":{"ha":353,"x_min":11,"x_max":353,"o":"m 11 613 l 103 972 l 353 972 l 192 613 l 11 613 z "},"«":{"ha":981,"x_min":63,"x_max":918,"o":"m 639 133 l 442 414 l 639 694 l 918 694 l 733 414 l 918 133 l 639 133 m 260 133 l 63 414 l 260 694 l 539 694 l 354 414 l 539 133 l 260 133 z "},"»":{"ha":981,"x_min":63,"x_max":918,"o":"m 342 133 l 63 133 l 247 414 l 63 694 l 342 694 l 539 414 l 342 133 m 721 133 l 442 133 l 626 414 l 442 694 l 721 694 l 918 414 l 721 133 z "},"‹":{"ha":608,"x_min":63,"x_max":539,"o":"m 260 133 l 63 414 l 260 694 l 539 694 l 354 414 l 539 133 l 260 133 z "},"›":{"ha":608,"x_min":69,"x_max":546,"o":"m 349 133 l 69 133 l 254 414 l 69 694 l 349 694 l 546 414 l 349 133 z "},"\"":{"ha":690,"x_min":83,"x_max":607,"o":"m 111 611 l 83 994 l 315 994 l 288 611 l 111 611 m 403 611 l 375 994 l 607 994 l 579 611 l 403 611 z "},"'":{"ha":399,"x_min":83,"x_max":315,"o":"m 111 611 l 83 994 l 315 994 l 288 611 l 111 611 z "},"@":{"ha":1381,"x_min":35,"x_max":1346,"o":"m 718 -289 q 443 -242 568 -289 q 226 -109 318 -194 q 85 93 135 -24 q 35 350 35 210 q 85 609 35 492 q 226 813 135 726 q 443 946 318 899 q 718 993 568 993 q 971 946 856 993 q 1170 813 1086 899 q 1300 609 1254 726 q 1346 350 1346 492 q 1307 158 1346 242 q 1200 27 1268 75 q 1043 -21 1132 -21 q 913 14 971 -21 q 833 107 856 49 q 741 42 794 65 q 625 19 688 19 q 485 62 546 19 q 390 179 424 104 q 356 350 356 254 q 390 521 356 447 q 485 637 424 594 q 625 679 546 679 q 726 663 679 679 q 810 615 774 646 l 808 665 l 1003 665 l 1003 181 q 1019 136 1003 146 q 1063 126 1036 126 q 1123 155 1097 126 q 1164 234 1149 183 q 1179 350 1179 285 q 1145 542 1179 454 q 1049 693 1111 629 q 903 792 988 757 q 718 826 819 826 q 510 792 604 826 q 346 693 415 757 q 239 542 276 629 q 201 350 201 454 q 239 160 201 246 q 346 10 276 74 q 510 -87 415 -53 q 718 -122 604 -122 q 810 -107 763 -122 q 889 -68 858 -92 l 988 -203 q 854 -265 929 -240 q 718 -289 779 -289 m 710 219 q 784 251 754 219 q 818 336 814 283 l 817 372 q 777 450 810 421 q 697 479 744 479 q 638 463 664 479 q 598 418 613 447 q 583 351 583 389 q 600 283 583 313 q 645 236 617 253 q 710 219 674 219 z "},"&":{"ha":904,"x_min":42,"x_max":926,"o":"m 346 -17 q 188 17 257 -17 q 81 111 119 51 q 42 249 42 171 q 58 333 42 292 q 103 410 74 374 q 174 475 133 447 l 408 636 q 437 656 418 643 q 472 692 456 669 q 489 743 489 714 q 467 785 489 771 q 413 799 444 799 q 356 784 378 799 q 335 743 335 769 q 354 690 335 713 q 394 640 374 668 l 592 403 l 926 0 l 646 0 l 426 261 l 207 528 q 139 623 163 585 q 107 690 115 661 q 99 746 99 719 q 139 872 99 817 q 247 958 179 926 q 399 989 315 989 q 563 957 492 989 q 675 868 635 925 q 715 736 715 811 q 686 628 715 678 q 595 526 657 579 q 435 406 533 474 l 339 339 q 316 315 325 329 q 302 286 307 301 q 297 256 297 271 q 316 208 297 226 q 365 189 335 189 q 463 201 411 189 q 559 241 514 214 q 632 310 604 268 q 660 413 660 353 l 885 413 q 816 190 885 288 q 626 38 747 93 q 346 -17 504 -17 z "},"¶":{"ha":863,"x_min":7,"x_max":779,"o":"m 382 292 q 188 335 272 292 q 55 456 103 379 q 7 633 7 533 q 55 810 7 733 q 188 929 103 886 q 382 972 272 972 l 439 972 l 439 292 l 382 292 m 392 -117 l 392 972 l 554 972 l 554 -117 l 392 -117 m 617 -117 l 617 972 l 779 972 l 779 -117 l 617 -117 m 539 736 l 539 972 l 632 972 l 632 736 l 539 736 z "},"§":{"ha":669,"x_min":42,"x_max":626,"o":"m 339 -126 q 200 -101 265 -126 q 92 -35 135 -76 q 42 54 50 7 l 218 108 q 260 53 229 75 q 333 29 290 31 q 404 48 375 28 q 433 104 433 68 q 413 149 433 131 q 356 178 393 168 l 246 207 q 110 287 161 231 q 58 428 58 343 q 133 599 58 538 q 340 661 208 661 q 465 642 411 661 q 556 583 518 622 q 617 485 594 543 l 446 431 q 410 483 438 460 q 339 506 383 506 q 268 486 293 506 q 243 428 243 467 q 263 388 243 403 q 318 363 283 372 l 431 332 q 570 246 519 308 q 621 104 621 183 q 547 -65 621 -4 q 339 -126 474 -126 m 343 201 q 215 228 275 201 q 115 297 154 254 q 68 389 76 339 l 222 435 q 252 396 229 414 q 301 367 275 378 q 339 357 326 357 q 408 376 379 357 q 438 431 438 396 q 417 477 438 458 q 360 506 397 496 l 250 535 q 114 615 165 558 q 63 756 63 671 q 138 927 63 865 q 344 989 213 989 q 472 969 417 989 q 565 911 526 950 q 626 814 603 872 l 450 758 q 415 810 442 788 q 343 833 388 833 q 272 814 297 833 q 247 756 247 794 q 268 713 247 731 q 324 688 289 696 l 435 660 q 574 574 524 638 q 625 431 625 511 q 551 263 625 324 q 343 201 478 201 z "},"©":{"ha":1074,"x_min":35,"x_max":1039,"o":"m 538 -15 q 335 22 428 -15 q 176 126 243 58 q 72 285 108 193 q 35 486 35 376 q 72 689 35 597 q 176 848 108 781 q 335 952 243 915 q 538 989 428 989 q 739 952 647 989 q 898 848 831 915 q 1002 689 965 781 q 1039 486 1039 597 q 1002 285 1039 376 q 898 126 965 193 q 739 22 831 58 q 538 -15 647 -15 m 539 211 q 400 244 458 211 q 311 338 342 276 q 281 486 281 400 q 311 634 281 572 q 399 728 342 696 q 538 761 457 761 q 663 726 604 761 q 757 629 721 692 l 774 594 l 636 543 l 619 567 q 579 597 601 586 q 538 608 557 608 q 465 576 490 608 q 439 486 439 543 q 465 397 439 429 q 539 364 492 364 q 584 380 561 364 q 628 422 607 396 l 636 436 l 778 386 l 765 363 q 671 251 731 290 q 539 211 611 211 m 538 138 q 716 182 639 138 q 837 306 793 226 q 881 486 881 385 q 837 668 881 589 q 716 792 793 747 q 538 836 639 836 q 360 792 438 836 q 238 668 282 747 q 193 486 193 589 q 238 306 193 385 q 360 182 282 226 q 538 138 438 138 z "},"®":{"ha":844,"x_min":28,"x_max":817,"o":"m 422 200 q 269 231 340 200 q 143 315 197 261 q 58 441 89 369 q 28 594 28 513 q 58 748 28 676 q 143 874 89 819 q 269 958 197 928 q 422 989 340 989 q 576 958 504 989 q 701 874 647 928 q 786 748 756 819 q 817 594 817 676 q 786 441 817 513 q 701 315 756 369 q 576 231 647 261 q 422 200 504 200 m 422 306 q 573 342 508 306 q 673 443 638 378 q 708 594 708 508 q 673 747 708 682 q 573 847 638 811 q 422 883 508 883 q 272 847 336 883 q 172 747 207 811 q 136 594 136 682 q 172 443 136 508 q 272 342 207 378 q 422 306 336 306 m 271 406 l 271 810 l 439 811 q 551 772 508 811 q 594 672 594 733 q 575 601 594 633 q 522 553 556 569 l 611 406 l 489 406 l 415 533 l 378 533 l 378 406 l 271 406 m 378 632 l 433 632 q 468 643 454 632 q 482 672 482 654 q 468 701 482 690 q 433 713 454 713 l 378 713 l 378 632 z "},"™":{"ha":1249,"x_min":15,"x_max":1204,"o":"m 886 496 l 738 710 l 738 389 l 567 389 l 567 972 l 757 972 l 886 782 l 1014 972 l 1204 972 l 1204 389 l 1033 389 l 1033 710 l 886 496 m 176 389 l 176 815 l 15 815 l 15 972 l 507 972 l 507 815 l 347 815 l 347 389 l 176 389 z "},"°":{"ha":538,"x_min":42,"x_max":496,"o":"m 268 560 q 156 589 207 560 q 73 668 104 618 q 42 779 42 718 q 73 889 42 840 q 156 966 104 938 q 269 994 208 994 q 381 966 329 994 q 465 889 433 938 q 496 779 496 840 q 465 668 496 718 q 381 589 433 618 q 268 560 329 560 m 268 713 q 311 733 293 713 q 329 779 329 753 q 311 824 329 806 q 268 842 293 842 q 226 824 244 842 q 208 779 208 806 q 226 733 208 753 q 268 713 244 713 z "},"|":{"ha":354,"x_min":83,"x_max":271,"o":"m 83 -306 l 83 1097 l 271 1097 l 271 -306 l 83 -306 z "},"¦":{"ha":465,"x_min":139,"x_max":326,"o":"m 139 486 l 139 1097 l 326 1097 l 326 486 l 139 486 m 139 -306 l 139 306 l 326 306 l 326 -306 l 139 -306 z "},"†":{"ha":686,"x_min":44,"x_max":640,"o":"m 217 0 l 279 596 l 231 972 l 456 972 l 407 596 l 469 0 l 217 0 m 44 481 l 44 711 l 343 663 l 640 711 l 640 481 l 343 529 l 44 481 z "},"‡":{"ha":686,"x_min":40,"x_max":644,"o":"m 213 -278 l 275 99 l 240 347 l 275 596 l 226 972 l 451 972 l 403 596 l 438 347 l 403 99 l 465 -278 l 213 -278 m 49 -10 l 49 207 l 347 165 l 644 207 l 644 -10 l 347 32 l 49 -10 m 40 488 l 40 704 l 339 663 l 636 704 l 636 488 l 339 529 l 40 488 z "},"¢":{"ha":757,"x_min":28,"x_max":750,"o":"m 344 0 l 344 972 l 460 972 l 460 0 l 344 0 m 419 136 q 217 183 306 136 q 78 312 128 229 q 28 500 28 394 q 78 689 28 607 q 215 817 128 771 q 417 864 303 864 q 618 807 526 864 q 749 642 710 750 l 510 564 q 469 610 499 592 q 403 628 439 628 q 342 612 368 628 q 300 567 315 596 q 285 500 285 538 q 300 434 285 463 q 343 389 315 406 q 406 372 371 372 q 469 390 440 372 q 511 436 499 408 l 750 360 q 620 194 711 251 q 419 136 529 136 z "},"¤":{"ha":886,"x_min":83,"x_max":803,"o":"m 446 182 q 281 221 353 182 q 169 328 210 260 q 129 486 129 397 q 169 644 129 575 q 281 751 210 713 q 443 790 351 790 q 607 751 536 790 q 718 644 678 713 q 758 486 758 575 q 719 328 758 397 q 608 221 679 260 q 446 182 538 182 m 219 126 l 85 261 l 285 463 l 424 331 l 219 126 m 444 390 q 510 417 485 390 q 536 486 536 444 q 510 555 536 528 q 443 582 483 582 q 378 555 404 582 q 351 486 351 528 q 378 417 351 444 q 444 390 404 390 m 301 499 l 83 711 l 218 846 l 439 631 l 301 499 m 668 126 l 461 331 l 599 463 l 803 261 l 668 126 m 589 511 l 450 643 l 668 846 l 803 711 l 589 511 z "},"$":{"ha":758,"x_min":42,"x_max":715,"o":"m 385 33 q 228 63 303 33 q 102 140 153 92 q 42 246 51 189 l 272 310 q 310 257 283 279 q 382 232 338 235 q 444 251 417 231 q 471 304 471 271 q 455 344 471 325 q 406 372 439 364 l 274 406 q 158 460 206 424 q 85 549 110 496 q 60 667 60 601 q 145 867 60 794 q 385 939 231 939 q 530 918 467 939 q 640 851 593 897 q 715 731 686 806 l 486 665 q 455 715 481 689 q 385 740 429 740 q 320 722 343 740 q 297 667 297 703 q 316 628 297 644 q 369 601 335 611 l 501 567 q 658 469 601 540 q 714 303 714 397 q 674 156 714 217 q 561 65 635 96 q 385 33 488 33 m 289 -143 l 289 1083 l 489 1083 l 489 -143 l 289 -143 z "},"€":{"ha":1007,"x_min":14,"x_max":986,"o":"m 575 -17 q 334 48 439 -17 q 170 226 229 113 q 111 486 111 339 q 170 747 111 633 q 334 924 229 860 q 575 989 439 989 q 756 952 675 989 q 894 849 836 915 q 983 694 953 782 l 756 617 q 713 689 739 658 q 652 736 686 719 q 575 753 618 753 q 472 719 517 753 q 401 625 426 685 q 375 486 375 565 q 401 348 375 408 q 474 253 428 288 q 578 219 519 219 q 658 237 625 219 q 715 285 692 254 q 757 357 739 315 l 986 279 q 897 125 956 192 q 758 21 839 58 q 575 -17 676 -17 m 14 353 l 14 467 l 674 467 l 674 353 l 14 353 m 14 506 l 14 619 l 674 619 l 674 506 l 14 506 z "},"₹":{"ha":806,"x_min":83,"x_max":736,"o":"m 351 0 l 83 289 l 83 463 l 254 463 q 313 478 288 463 q 354 524 339 494 l 83 524 l 83 701 l 349 701 q 309 745 333 729 q 254 761 285 761 l 83 761 l 83 972 l 736 972 l 736 794 l 594 794 q 616 749 607 772 q 631 701 625 726 l 736 701 l 736 524 l 635 524 q 594 420 624 468 q 519 336 564 372 q 417 279 474 300 l 410 276 l 669 0 l 351 0 z "},"£":{"ha":851,"x_min":56,"x_max":810,"o":"m 56 0 l 56 236 l 75 236 q 125 260 104 236 q 146 319 146 285 l 146 378 l 56 378 l 56 572 l 146 572 l 146 661 q 188 847 146 774 q 306 954 231 919 q 483 989 382 989 q 653 956 579 989 q 768 857 726 924 q 810 685 810 790 l 560 700 q 536 759 560 740 q 481 778 513 778 q 419 749 442 778 q 396 661 396 719 l 396 572 l 685 572 l 685 378 l 396 378 l 396 333 q 358 236 396 282 l 810 236 l 810 0 l 56 0 z "},"¥":{"ha":897,"x_min":7,"x_max":890,"o":"m 568 399 l 331 442 l 599 972 l 890 972 l 568 399 m 321 0 l 321 467 l 578 467 l 578 0 l 321 0 m 118 228 l 118 356 l 778 356 l 778 228 l 118 228 m 118 394 l 118 522 l 778 522 l 778 394 l 118 394 m 329 399 l 7 972 l 299 972 l 567 442 l 329 399 z "},"∕":{"ha":889,"x_min":39,"x_max":850,"o":"m 39 0 l 707 972 l 850 972 l 182 0 l 39 0 z "},"+":{"ha":889,"x_min":118,"x_max":771,"o":"m 347 88 l 347 740 l 542 740 l 542 88 l 347 88 m 118 317 l 118 511 l 771 511 l 771 317 l 118 317 z "},"−":{"ha":889,"x_min":174,"x_max":715,"o":"m 174 314 l 174 514 l 715 514 l 715 314 l 174 314 z "},"×":{"ha":889,"x_min":140,"x_max":749,"o":"m 614 110 l 140 583 l 275 718 l 749 244 l 614 110 m 275 110 l 140 244 l 613 718 l 747 583 l 275 110 z "},"÷":{"ha":889,"x_min":146,"x_max":743,"o":"m 146 314 l 146 514 l 743 514 l 743 314 l 146 314 m 444 69 q 374 100 404 69 q 344 171 344 131 q 374 242 344 211 q 444 272 404 272 q 515 242 485 272 q 546 171 546 211 q 515 100 546 131 q 444 69 485 69 m 444 556 q 374 585 404 556 q 343 656 343 615 q 374 726 343 696 q 444 757 404 757 q 515 726 485 757 q 544 656 544 696 q 515 585 544 615 q 444 556 485 556 z "},"=":{"ha":889,"x_min":167,"x_max":722,"o":"m 167 456 l 167 649 l 722 649 l 722 456 l 167 456 m 167 178 l 167 371 l 722 371 l 722 178 l 167 178 z "},"≠":{"ha":889,"x_min":167,"x_max":722,"o":"m 167 103 l 532 814 l 715 814 l 350 103 l 167 103 m 167 501 l 167 694 l 722 694 l 722 501 l 167 501 m 167 224 l 167 417 l 722 417 l 722 224 l 167 224 z "},">":{"ha":889,"x_min":167,"x_max":724,"o":"m 167 83 l 167 301 l 475 415 l 167 526 l 167 744 l 724 513 l 724 318 l 167 83 z "},"<":{"ha":889,"x_min":165,"x_max":722,"o":"m 722 744 l 722 526 l 414 413 l 722 301 l 722 83 l 165 315 l 165 510 l 722 744 z "},"≥":{"ha":889,"x_min":167,"x_max":724,"o":"m 167 0 l 167 167 l 724 167 l 724 0 l 167 0 m 167 199 l 167 394 l 475 497 l 167 597 l 167 793 l 724 585 l 724 410 l 167 199 z "},"≤":{"ha":889,"x_min":165,"x_max":722,"o":"m 722 0 l 165 0 l 165 167 l 722 167 l 722 0 m 722 199 l 165 410 l 165 585 l 722 793 l 722 597 l 414 497 l 722 394 l 722 199 z "},"±":{"ha":889,"x_min":118,"x_max":771,"o":"m 118 456 l 118 636 l 771 636 l 771 456 l 118 456 m 118 42 l 118 208 l 771 208 l 771 42 l 118 42 m 347 247 l 347 844 l 542 844 l 542 247 l 347 247 z "},"¬":{"ha":889,"x_min":181,"x_max":694,"o":"m 181 368 l 181 568 l 694 568 l 694 368 l 181 368 m 494 188 l 494 568 l 694 568 l 694 188 l 494 188 z "},"~":{"ha":1054,"x_min":69,"x_max":985,"o":"m 708 201 q 594 223 644 201 q 510 278 544 244 q 453 347 475 311 q 413 406 435 376 q 351 435 392 435 q 290 408 310 435 q 264 340 269 382 l 69 340 q 106 516 69 440 q 206 635 143 592 q 346 678 269 678 q 508 649 440 678 q 614 532 575 619 q 652 473 628 501 q 707 444 676 444 q 764 468 742 444 q 790 539 786 492 l 985 539 q 948 364 985 440 q 849 244 911 288 q 708 201 786 201 z "},"^":{"ha":846,"x_min":97,"x_max":749,"o":"m 538 518 l 313 972 l 531 972 l 749 518 l 538 518 m 97 518 l 313 972 l 529 972 l 310 518 l 97 518 z "},"µ":{"ha":803,"x_min":56,"x_max":740,"o":"m 390 -17 q 259 60 307 -17 q 213 297 211 138 l 306 339 q 315 274 306 300 q 341 233 324 247 q 385 218 358 219 q 464 243 438 217 q 490 325 490 269 l 558 325 q 516 72 558 161 q 390 -17 474 -17 m 56 -278 l 56 694 l 306 694 l 306 138 l 278 138 l 278 -278 l 56 -278 m 504 0 l 490 128 l 490 694 l 740 694 l 740 0 l 504 0 z "},"%":{"ha":1164,"x_min":49,"x_max":1115,"o":"m 115 0 l 806 972 l 1039 972 l 344 0 l 115 0 m 881 -21 q 759 11 813 -21 q 676 100 706 43 q 646 229 646 157 q 676 359 646 303 q 759 447 706 415 q 882 479 813 479 q 1003 447 950 479 q 1085 359 1056 415 q 1115 229 1115 303 q 1085 100 1115 157 q 1003 11 1056 43 q 881 -21 950 -21 m 881 133 q 934 161 914 133 q 954 229 954 189 q 934 297 954 269 q 881 325 914 325 q 827 297 847 325 q 807 229 807 269 q 827 161 807 189 q 881 133 847 133 m 283 494 q 162 526 215 494 q 78 615 108 558 q 49 744 49 672 q 78 874 49 818 q 162 963 108 931 q 285 994 215 994 q 406 963 353 994 q 488 874 458 931 q 518 744 518 818 q 488 615 518 672 q 406 526 458 558 q 283 494 353 494 m 283 649 q 337 676 317 649 q 357 744 357 704 q 337 813 357 785 q 283 840 317 840 q 230 813 250 840 q 210 744 210 785 q 230 676 210 704 q 283 649 250 649 z "},"↑":{"ha":1061,"x_min":125,"x_max":936,"o":"m 646 800 l 272 465 l 125 615 l 535 989 l 646 800 m 638 0 l 429 0 l 429 860 l 638 860 l 638 0 m 936 607 l 788 460 l 418 801 l 535 989 l 936 607 z "},"↗":{"ha":872,"x_min":83,"x_max":789,"o":"m 231 265 l 83 413 l 624 953 l 771 806 l 231 265 m 233 769 l 233 972 l 789 972 l 738 772 l 233 769 m 586 417 l 589 921 l 789 972 l 789 417 l 586 417 z "},"→":{"ha":1053,"x_min":83,"x_max":976,"o":"m 788 301 l 453 675 l 603 822 l 976 413 l 788 301 m 83 310 l 83 518 l 847 518 l 847 310 l 83 310 m 594 11 l 447 160 l 789 529 l 976 413 l 594 11 z "},"↘":{"ha":874,"x_min":83,"x_max":790,"o":"m 83 531 l 231 678 l 771 138 l 624 -10 l 83 531 m 588 528 l 790 528 l 790 -28 l 590 24 l 588 528 m 235 175 l 739 172 l 790 -28 l 235 -28 l 235 175 z "},"↓":{"ha":1061,"x_min":125,"x_max":936,"o":"m 646 172 l 535 -17 l 125 357 l 272 507 l 646 172 m 638 972 l 638 113 l 429 113 l 429 972 l 638 972 m 936 365 l 535 -17 l 418 171 l 788 513 l 936 365 z "},"↙":{"ha":872,"x_min":83,"x_max":789,"o":"m 642 707 l 789 560 l 249 19 l 101 167 l 642 707 m 639 203 l 639 0 l 83 0 l 135 200 l 639 203 m 286 556 l 283 51 l 83 0 l 83 556 l 286 556 z "},"←":{"ha":1053,"x_min":76,"x_max":969,"o":"m 265 301 l 76 413 l 450 822 l 600 675 l 265 301 m 969 310 l 206 310 l 206 518 l 969 518 l 969 310 m 458 11 l 76 413 l 264 529 l 606 160 l 458 11 z "},"↖":{"ha":874,"x_min":83,"x_max":790,"o":"m 790 442 l 643 294 l 103 835 l 250 982 l 790 442 m 286 444 l 83 444 l 83 1000 l 283 949 l 286 444 m 639 797 l 135 800 l 83 1000 l 639 1000 l 639 797 z "},"̈":{"ha":0,"x_min":79,"x_max":699,"o":"m 576 790 q 491 827 528 790 q 454 913 454 864 q 491 998 454 961 q 576 1035 528 1035 q 662 998 625 1035 q 699 913 699 961 q 662 827 699 864 q 576 790 625 790 m 201 790 q 115 826 151 790 q 79 913 79 863 q 115 999 79 963 q 201 1035 151 1035 q 288 999 251 1035 q 324 913 324 963 q 288 826 324 863 q 201 790 251 790 z "},"̇":{"ha":0,"x_min":0,"x_max":278,"o":"m 139 761 q 42 803 83 761 q 0 900 0 844 q 42 998 0 957 q 139 1039 83 1039 q 237 998 196 1039 q 278 900 278 957 q 237 803 278 844 q 139 761 196 761 z "},"̀":{"ha":0,"x_min":53,"x_max":472,"o":"m 236 769 l 53 974 l 317 974 l 472 769 l 236 769 z "},"́":{"ha":0,"x_min":346,"x_max":763,"o":"m 346 769 l 499 972 l 763 972 l 582 769 l 346 769 z "},"̋":{"ha":0,"x_min":6,"x_max":700,"o":"m 325 769 l 464 972 l 700 972 l 531 769 l 325 769 m 6 769 l 139 972 l 375 972 l 208 769 l 6 769 z "},"̂":{"ha":0,"x_min":14,"x_max":604,"o":"m 396 785 l 192 971 l 192 989 l 428 989 l 604 785 l 396 785 m 14 785 l 190 989 l 426 989 l 426 971 l 222 785 l 14 785 z "},"̌":{"ha":0,"x_min":0,"x_max":590,"o":"m 192 769 l 192 776 l 382 972 l 590 972 l 414 769 l 192 769 m 176 769 l 0 972 l 208 972 l 399 776 l 399 769 l 176 769 z "},"̆":{"ha":0,"x_min":0,"x_max":563,"o":"m 282 753 q 136 781 200 753 q 36 858 72 808 q 0 972 0 908 l 228 972 q 243 933 228 949 q 282 918 258 918 q 320 933 306 918 q 335 972 335 949 l 563 972 q 526 858 563 908 q 427 781 490 808 q 282 753 364 753 z "},"̊":{"ha":0,"x_min":56,"x_max":438,"o":"m 247 722 q 152 747 196 722 q 82 811 108 771 q 56 901 56 851 q 82 993 56 953 q 152 1058 108 1033 q 247 1082 196 1082 q 342 1058 299 1082 q 411 993 385 1033 q 438 901 438 953 q 411 811 438 851 q 342 747 385 771 q 247 722 299 722 m 247 856 q 292 901 292 856 q 247 949 292 949 q 201 901 201 949 q 247 856 201 856 z "},"̃":{"ha":0,"x_min":99,"x_max":676,"o":"m 488 742 q 406 757 435 742 q 363 792 378 772 q 333 826 347 811 q 296 842 319 842 q 274 833 286 842 q 253 788 261 824 l 99 788 q 130 906 107 861 q 192 969 153 950 q 288 989 232 989 q 376 974 344 989 q 424 939 407 958 q 453 904 440 919 q 486 889 465 889 q 513 905 506 889 q 522 943 519 921 l 676 943 q 620 794 664 846 q 488 742 576 742 z "},"̄":{"ha":0,"x_min":-28,"x_max":444,"o":"m -28 763 l -28 972 l 444 972 l 444 763 l -28 763 z "},"̒":{"ha":0,"x_min":0,"x_max":342,"o":"m 342 990 l 250 783 l 0 783 l 161 990 l 342 990 z "},"̦":{"ha":0,"x_min":36,"x_max":333,"o":"m 36 -278 l 100 -56 l 333 -56 l 217 -278 l 36 -278 z "},"̧":{"ha":0,"x_min":222,"x_max":547,"o":"m 356 -292 q 287 -280 322 -292 q 222 -249 251 -268 l 251 -143 q 288 -158 271 -153 q 317 -162 306 -162 q 354 -156 340 -162 q 368 -136 368 -149 q 348 -106 368 -117 q 292 -96 328 -96 l 333 8 l 468 8 l 447 -36 q 521 -82 494 -51 q 547 -150 547 -112 q 497 -254 547 -217 q 356 -292 446 -292 z "},"̨":{"ha":0,"x_min":28,"x_max":353,"o":"m 244 -294 q 137 -275 186 -294 q 58 -217 88 -256 q 28 -122 28 -179 q 51 -49 28 -82 q 107 0 75 -17 l 299 0 q 241 -52 261 -24 q 221 -104 221 -81 q 228 -124 221 -115 q 246 -132 235 -132 q 265 -129 257 -132 q 281 -122 274 -126 l 353 -272 q 306 -290 332 -285 q 244 -294 279 -294 z "},"¨":{"ha":731,"x_min":56,"x_max":675,"o":"m 553 790 q 467 827 504 790 q 431 913 431 864 q 467 998 431 961 q 553 1035 504 1035 q 638 998 601 1035 q 675 913 675 961 q 638 827 675 864 q 553 790 601 790 m 178 790 q 92 826 128 790 q 56 913 56 863 q 92 999 56 963 q 178 1035 128 1035 q 264 999 228 1035 q 300 913 300 963 q 264 826 300 863 q 178 790 228 790 z "},"˙":{"ha":278,"x_min":0,"x_max":278,"o":"m 139 761 q 42 803 83 761 q 0 900 0 844 q 42 998 0 957 q 139 1039 83 1039 q 237 998 196 1039 q 278 900 278 957 q 237 803 278 844 q 139 761 196 761 z "},"`":{"ha":419,"x_min":0,"x_max":419,"o":"m 183 769 l 0 974 l 264 974 l 419 769 l 183 769 z "},"´":{"ha":419,"x_min":3,"x_max":419,"o":"m 3 769 l 156 972 l 419 972 l 239 769 l 3 769 z "},"˝":{"ha":728,"x_min":19,"x_max":714,"o":"m 339 769 l 478 972 l 714 972 l 544 769 l 339 769 m 19 769 l 153 972 l 389 972 l 222 769 l 19 769 z "},"ˆ":{"ha":618,"x_min":14,"x_max":604,"o":"m 396 785 l 192 971 l 192 989 l 428 989 l 604 785 l 396 785 m 14 785 l 190 989 l 426 989 l 426 971 l 222 785 l 14 785 z "},"ˇ":{"ha":618,"x_min":0,"x_max":590,"o":"m 192 769 l 192 776 l 382 972 l 590 972 l 414 769 l 192 769 m 176 769 l 0 972 l 208 972 l 399 776 l 399 769 l 176 769 z "},"˘":{"ha":563,"x_min":0,"x_max":563,"o":"m 282 753 q 136 781 200 753 q 36 858 72 808 q 0 972 0 908 l 228 972 q 243 933 228 949 q 282 918 258 918 q 320 933 306 918 q 335 972 335 949 l 563 972 q 526 858 563 908 q 427 781 490 808 q 282 753 364 753 z "},"˚":{"ha":833,"x_min":269,"x_max":651,"o":"m 461 722 q 366 747 410 722 q 296 811 322 771 q 269 901 269 851 q 296 993 269 953 q 366 1058 322 1033 q 461 1082 410 1082 q 556 1058 513 1082 q 625 993 599 1033 q 651 901 651 953 q 625 811 651 851 q 556 747 599 771 q 461 722 513 722 m 461 856 q 506 901 506 856 q 461 949 506 949 q 415 901 415 949 q 461 856 415 856 z "},"˜":{"ha":606,"x_min":14,"x_max":592,"o":"m 403 742 q 322 757 350 742 q 278 792 293 772 q 249 826 263 811 q 211 842 235 842 q 189 833 201 842 q 168 788 176 824 l 14 788 q 45 906 22 861 q 108 969 68 950 q 203 989 147 989 q 291 974 260 989 q 339 939 322 958 q 368 904 356 919 q 401 889 381 889 q 428 905 421 889 q 438 943 435 921 l 592 943 q 535 794 579 846 q 403 742 492 742 z "},"¯":{"ha":417,"x_min":-28,"x_max":444,"o":"m -28 763 l -28 972 l 444 972 l 444 763 l -28 763 z "},"¸":{"ha":353,"x_min":14,"x_max":339,"o":"m 147 -292 q 78 -280 114 -292 q 14 -249 43 -268 l 43 -143 q 80 -158 63 -153 q 108 -162 97 -162 q 146 -156 132 -162 q 160 -136 160 -149 q 140 -106 160 -117 q 83 -96 119 -96 l 125 8 l 260 8 l 239 -36 q 313 -82 286 -51 q 339 -150 339 -112 q 288 -254 339 -217 q 147 -292 238 -292 z "},"˛":{"ha":353,"x_min":28,"x_max":353,"o":"m 244 -294 q 137 -275 186 -294 q 58 -217 88 -256 q 28 -122 28 -179 q 51 -49 28 -82 q 107 0 75 -17 l 299 0 q 241 -52 261 -24 q 221 -104 221 -81 q 228 -124 221 -115 q 246 -132 235 -132 q 265 -129 257 -132 q 281 -122 274 -126 l 353 -272 q 306 -290 332 -285 q 244 -294 279 -294 z "}}}
